Jost-ExtraLightItalic.ufo
<glyph name="numbersign" format="2">
  <advance width="563"/>
  <unicode hex="0023"/>
  <outline>
    <contour>
      <point x="122" y="450" type="line"/>
      <point x="127" y="477" type="line"/>
      <point x="585" y="477" type="line"/>
      <point x="580" y="450" type="line"/>
      <point x="461" y="450" type="line"/>
      <point x="454" y="450" type="line"/>
      <point x="258" y="450" type="line"/>
      <point x="251" y="450" type="line"/>
    </contour>
    <contour>
      <point x="46" y="228" type="line"/>
      <point x="50" y="255" type="line"/>
      <point x="169" y="255" type="line"/>
      <point x="177" y="255" type="line"/>
      <point x="373" y="255" type="line"/>
      <point x="383" y="255" type="line"/>
      <point x="508" y="255" type="line"/>
      <point x="504" y="228" type="line"/>
    </contour>
    <contour>
      <point x="544" y="700" type="line"/>
      <point x="575" y="700" type="line"/>
      <point x="289" y="0" type="line"/>
      <point x="258" y="0" type="line"/>
      <point x="356" y="239" type="line"/>
      <point x="359" y="246" type="line"/>
      <point x="445" y="459" type="line"/>
      <point x="448" y="467" type="line"/>
    </contour>
    <contour>
      <point x="340" y="700" type="line"/>
      <point x="371" y="700" type="line"/>
      <point x="276" y="468" type="line"/>
      <point x="273" y="460" type="line"/>
      <point x="185" y="244" type="line"/>
      <point x="183" y="238" type="line"/>
      <point x="85" y="0" type="line"/>
      <point x="55" y="0" type="line"/>
    </contour>
  </outline>
</glyph>
<glyph name="ampersand" format="2">
  <advance width="655"/>
  <unicode hex="0026"/>
  <outline>
    <contour>
      <point x="236" y="414" type="line" smooth="yes"/>
      <point x="207" y="458"/>
      <point x="175" y="505"/>
      <point x="183" y="570" type="curve" smooth="yes"/>
      <point x="195" y="650"/>
      <point x="265" y="711"/>
      <point x="357" y="710" type="curve" smooth="yes"/>
      <point x="445" y="709"/>
      <point x="491" y="639"/>
      <point x="480" y="568" type="curve" smooth="yes"/>
      <point x="467" y="492"/>
      <point x="394" y="439"/>
      <point x="311" y="391" type="curve" smooth="yes"/>
      <point x="226" y="343"/>
      <point x="99" y="300"/>
      <point x="81" y="178" type="curve" smooth="yes"/>
      <point x="67" y="83"/>
      <point x="134" y="21"/>
      <point x="230" y="20" type="curve" smooth="yes"/>
      <point x="397" y="18"/>
      <point x="510" y="191"/>
      <point x="616" y="315" type="curve"/>
      <point x="639" y="299" type="line"/>
      <point x="527" y="169"/>
      <point x="410" y="-11"/>
      <point x="226" y="-10" type="curve" smooth="yes"/>
      <point x="116" y="-9"/>
      <point x="33" y="64"/>
      <point x="48" y="176" type="curve" smooth="yes"/>
      <point x="67" y="313"/>
      <point x="204" y="363"/>
      <point x="291" y="410" type="curve" smooth="yes"/>
      <point x="367" y="452"/>
      <point x="436" y="501"/>
      <point x="448" y="568" type="curve" smooth="yes"/>
      <point x="457" y="624"/>
      <point x="426" y="681"/>
      <point x="355" y="682" type="curve" smooth="yes"/>
      <point x="280" y="683"/>
      <point x="226" y="632"/>
      <point x="216" y="570" type="curve" smooth="yes"/>
      <point x="208" y="514"/>
      <point x="234" y="473"/>
      <point x="261" y="432" type="curve" smooth="yes"/>
      <point x="562" y="0" type="line"/>
      <point x="526" y="0" type="line"/>
    </contour>
  </outline>
</glyph>
<glyph name="quotesingle" format="2">
  <advance width="234"/>
  <unicode hex="0027"/>
  <outline>
    <contour>
      <point x="223" y="700" type="line"/>
      <point x="262" y="700" type="line"/>
      <point x="152" y="415" type="line"/>
      <point x="130" y="414" type="line"/>
    </contour>
  </outline>
</glyph>
<glyph name="parenright" format="2">
  <advance width="252"/>
  <unicode hex="0029"/>
  <outline>
    <contour>
      <point x="7" y="-199" type="curve"/>
      <point x="-19" y="-199" type="line"/>
      <point x="73" y="-47"/>
      <point x="133" y="117"/>
      <point x="160" y="290" type="curve" smooth="yes"/>
      <point x="184" y="454"/>
      <point x="178" y="619"/>
      <point x="132" y="780" type="curve"/>
      <point x="157" y="780" type="line"/>
      <point x="210" y="622"/>
      <point x="218" y="454"/>
      <point x="194" y="290" type="curve" smooth="yes"/>
      <point x="167" y="116"/>
      <point x="106" y="-52"/>
    </contour>
  </outline>
</glyph>
<glyph name="plus" format="2">
  <advance width="552"/>
  <unicode hex="002B"/>
  <outline>
    <contour>
      <point x="77" y="239" type="line"/>
      <point x="82" y="271" type="line"/>
      <point x="503" y="271" type="line"/>
      <point x="497" y="239" type="line"/>
    </contour>
    <contour>
      <point x="313" y="486" type="line"/>
      <point x="346" y="486" type="line"/>
      <point x="266" y="24" type="line"/>
      <point x="234" y="24" type="line"/>
    </contour>
  </outline>
</glyph>
<glyph name="comma" format="2">
  <advance width="276"/>
  <unicode hex="002C"/>
  <outline>
    <contour>
      <point x="152" y="98" type="line"/>
      <point x="182" y="85" type="line"/>
      <point x="31" y="-163" type="line"/>
      <point x="10" y="-155" type="line"/>
    </contour>
  </outline>
</glyph>
<glyph name="five" format="2">
  <advance width="542"/>
  <unicode hex="0035"/>
  <outline>
    <contour>
      <point x="504" y="230" type="curve" smooth="yes"/>
      <point x="486" y="87"/>
      <point x="376" y="-10"/>
      <point x="243" y="-10" type="curve" smooth="yes"/>
      <point x="138" y="-10"/>
      <point x="79" y="50"/>
      <point x="50" y="137" type="curve"/>
      <point x="79" y="155" type="line"/>
      <point x="104" y="77"/>
      <point x="156" y="22"/>
      <point x="246" y="22" type="curve" smooth="yes"/>
      <point x="362" y="22"/>
      <point x="454" y="109"/>
      <point x="471" y="230" type="curve" smooth="yes"/>
      <point x="485" y="330"/>
      <point x="429" y="419"/>
      <point x="327" y="421" type="curve" smooth="yes"/>
      <point x="246" y="422"/>
      <point x="180" y="383"/>
      <point x="120" y="328" type="curve"/>
      <point x="267" y="700" type="line"/>
      <point x="587" y="700" type="line"/>
      <point x="583" y="670" type="line"/>
      <point x="287" y="670" type="line"/>
      <point x="173" y="384" type="line"/>
      <point x="213" y="421"/>
      <point x="272" y="453"/>
      <point x="340" y="452" type="curve" smooth="yes"/>
      <point x="457" y="451"/>
      <point x="519" y="346"/>
    </contour>
  </outline>
</glyph>
<glyph name="seven" format="2">
  <advance width="502"/>
  <unicode hex="0037"/>
  <outline>
    <contour>
      <point x="118" y="669" type="line"/>
      <point x="123" y="700" type="line"/>
      <point x="586" y="700" type="line"/>
      <point x="129" y="0" type="line"/>
      <point x="94" y="0" type="line"/>
      <point x="531" y="668" type="line"/>
    </contour>
  </outline>
</glyph>
<glyph name="eight" format="2">
  <advance width="508"/>
  <unicode hex="0038"/>
  <outline>
    <contour>
      <point x="145" y="538" type="curve" smooth="yes"/>
      <point x="160" y="629"/>
      <point x="248" y="710"/>
      <point x="348" y="710" type="curve" smooth="yes"/>
      <point x="447" y="710"/>
      <point x="508" y="625"/>
      <point x="494" y="537" type="curve" smooth="yes"/>
      <point x="479" y="440"/>
      <point x="387" y="365"/>
      <point x="291" y="365" type="curve" smooth="yes"/>
      <point x="196" y="365"/>
      <point x="131" y="444"/>
    </contour>
    <contour>
      <point x="176" y="535" type="curve" smooth="yes"/>
      <point x="165" y="459"/>
      <point x="220" y="387"/>
      <point x="292" y="386" type="curve" smooth="yes"/>
      <point x="366" y="385"/>
      <point x="449" y="455"/>
      <point x="462" y="535" type="curve" smooth="yes"/>
      <point x="474" y="609"/>
      <point x="428" y="679"/>
      <point x="345" y="680" type="curve" smooth="yes"/>
      <point x="261" y="681"/>
      <point x="189" y="613"/>
    </contour>
    <contour>
      <point x="64" y="187" type="curve" smooth="yes"/>
      <point x="81" y="295"/>
      <point x="184" y="377"/>
      <point x="291" y="377" type="curve" smooth="yes"/>
      <point x="396" y="377"/>
      <point x="470" y="292"/>
      <point x="455" y="186" type="curve" smooth="yes"/>
      <point x="438" y="79"/>
      <point x="346" y="-10"/>
      <point x="227" y="-10" type="curve" smooth="yes"/>
      <point x="109" y="-10"/>
      <point x="48" y="84"/>
    </contour>
    <contour>
      <point x="96" y="190" type="curve" smooth="yes"/>
      <point x="81" y="99"/>
      <point x="132" y="21"/>
      <point x="230" y="20" type="curve" smooth="yes"/>
      <point x="329" y="19"/>
      <point x="409" y="95"/>
      <point x="424" y="190" type="curve" smooth="yes"/>
      <point x="437" y="277"/>
      <point x="377" y="354"/>
      <point x="290" y="355" type="curve" smooth="yes"/>
      <point x="202" y="356"/>
      <point x="111" y="281"/>
    </contour>
  </outline>
</glyph>
<glyph name="nine" format="2">
  <advance width="531"/>
  <unicode hex="0039"/>
  <outline>
    <contour>
      <point x="509" y="477" type="curve" smooth="yes"/>
      <point x="524" y="582"/>
      <point x="468" y="679"/>
      <point x="355" y="679" type="curve" smooth="yes"/>
      <point x="241" y="679"/>
      <point x="152" y="587"/>
      <point x="136" y="477" type="curve" smooth="yes"/>
      <point x="122" y="378"/>
      <point x="182" y="284"/>
      <point x="284" y="283" type="curve" smooth="yes"/>
      <point x="402" y="282"/>
      <point x="492" y="374"/>
    </contour>
    <contour>
      <point x="195" y="0" type="line"/>
      <point x="154" y="0" type="line"/>
      <point x="433" y="328" type="line"/>
      <point x="436" y="325" type="line"/>
      <point x="393" y="283"/>
      <point x="338" y="256"/>
      <point x="273" y="257" type="curve" smooth="yes"/>
      <point x="157" y="259"/>
      <point x="90" y="366"/>
      <point x="104" y="477" type="curve" smooth="yes"/>
      <point x="121" y="606"/>
      <point x="224" y="710"/>
      <point x="357" y="710" type="curve" smooth="yes"/>
      <point x="490" y="710"/>
      <point x="557" y="601"/>
      <point x="540" y="477" type="curve" smooth="yes"/>
      <point x="531" y="419"/>
      <point x="500" y="363"/>
      <point x="466" y="322" type="curve" smooth="yes"/>
    </contour>
  </outline>
</glyph>
<glyph name="semicolon" format="2">
  <advance width="283"/>
  <unicode hex="003B"/>
  <outline>
    <contour>
      <point x="173" y="371" type="curve" smooth="yes"/>
      <point x="173" y="385"/>
      <point x="184" y="395"/>
      <point x="197" y="395" type="curve" smooth="yes"/>
      <point x="210" y="395"/>
      <point x="222" y="385"/>
      <point x="222" y="371" type="curve" smooth="yes"/>
      <point x="222" y="357"/>
      <point x="210" y="346"/>
      <point x="197" y="346" type="curve" smooth="yes"/>
      <point x="184" y="346"/>
      <point x="173" y="357"/>
    </contour>
    <contour>
      <point x="152" y="98" type="line"/>
      <point x="182" y="85" type="line"/>
      <point x="31" y="-163" type="line"/>
      <point x="10" y="-155" type="line"/>
    </contour>
  </outline>
</glyph>
<glyph name="question" format="2">
  <advance width="529"/>
  <unicode hex="003F"/>
  <outline>
    <contour>
      <point x="489" y="514" type="curve" smooth="yes"/>
      <point x="505" y="605"/>
      <point x="451" y="680"/>
      <point x="348" y="680" type="curve" smooth="yes"/>
      <point x="266" y="680"/>
      <point x="207" y="634"/>
      <point x="159" y="577" type="curve"/>
      <point x="135" y="594" type="line"/>
      <point x="190" y="659"/>
      <point x="255" y="711"/>
      <point x="353" y="710" type="curve" smooth="yes"/>
      <point x="471" y="709"/>
      <point x="537" y="620"/>
      <point x="520" y="514" type="curve" smooth="yes"/>
      <point x="500" y="404"/>
      <point x="390" y="333"/>
      <point x="271" y="323" type="curve"/>
      <point x="243" y="170" type="line"/>
      <point x="219" y="170" type="line"/>
      <point x="240" y="345" type="line"/>
      <point x="248" y="345" type="line"/>
      <point x="365" y="350"/>
      <point x="469" y="415"/>
    </contour>
    <contour>
      <point x="177" y="13" type="curve" smooth="yes"/>
      <point x="177" y="26"/>
      <point x="188" y="37"/>
      <point x="201" y="37" type="curve" smooth="yes"/>
      <point x="215" y="37"/>
      <point x="225" y="26"/>
      <point x="225" y="13" type="curve" smooth="yes"/>
      <point x="225" y="-1"/>
      <point x="214" y="-11"/>
      <point x="201" y="-11" type="curve" smooth="yes"/>
      <point x="187" y="-11"/>
      <point x="177" y="-1"/>
    </contour>
  </outline>
</glyph>
<glyph name="C" format="2">
  <advance width="664"/>
  <unicode hex="0043"/>
  <outline>
    <contour>
      <point x="113" y="350" type="curve" smooth="yes"/>
      <point x="88" y="184"/>
      <point x="173" y="28"/>
      <point x="348" y="26" type="curve" smooth="yes"/>
      <point x="443" y="25"/>
      <point x="519" y="61"/>
      <point x="583" y="115" type="curve"/>
      <point x="576" y="70" type="line"/>
      <point x="510" y="21"/>
      <point x="439" y="-8"/>
      <point x="345" y="-8" type="curve" smooth="yes"/>
      <point x="149" y="-7"/>
      <point x="51" y="164"/>
      <point x="78" y="350" type="curve" smooth="yes"/>
      <point x="108" y="546"/>
      <point x="266" y="708"/>
      <point x="464" y="709" type="curve" smooth="yes"/>
      <point x="553" y="709"/>
      <point x="616" y="683"/>
      <point x="671" y="630" type="curve"/>
      <point x="663" y="585" type="line"/>
      <point x="614" y="644"/>
      <point x="546" y="674"/>
      <point x="461" y="674" type="curve" smooth="yes"/>
      <point x="284" y="673"/>
      <point x="141" y="527"/>
    </contour>
  </outline>
</glyph>
<glyph name="D" format="2">
  <advance width="629"/>
  <unicode hex="0044"/>
  <outline>
    <contour>
      <point x="176" y="700" type="line"/>
      <point x="210" y="700" type="line"/>
      <point x="90" y="0" type="line"/>
      <point x="57" y="0" type="line"/>
    </contour>
    <contour>
      <point x="229" y="0" type="curve" smooth="yes"/>
      <point x="74" y="0" type="line"/>
      <point x="80" y="34" type="line"/>
      <point x="232" y="34" type="line" smooth="yes"/>
      <point x="418" y="34"/>
      <point x="555" y="169"/>
      <point x="584" y="350" type="curve" smooth="yes"/>
      <point x="611" y="522"/>
      <point x="525" y="666"/>
      <point x="342" y="666" type="curve" smooth="yes"/>
      <point x="188" y="666" type="line"/>
      <point x="194" y="700" type="line"/>
      <point x="345" y="700" type="line" smooth="yes"/>
      <point x="546" y="700"/>
      <point x="645" y="540"/>
      <point x="617" y="350" type="curve" smooth="yes"/>
      <point x="586" y="151"/>
      <point x="433" y="0"/>
    </contour>
  </outline>
</glyph>
<glyph name="G" format="2">
  <advance width="745"/>
  <unicode hex="0047"/>
  <outline>
    <contour>
      <point x="429" y="313" type="line"/>
      <point x="435" y="344" type="line"/>
      <point x="727" y="344" type="line"/>
      <point x="692" y="163"/>
      <point x="555" y="-8"/>
      <point x="353" y="-8" type="curve" smooth="yes"/>
      <point x="155" y="-8"/>
      <point x="51" y="163"/>
      <point x="78" y="350" type="curve" smooth="yes"/>
      <point x="109" y="547"/>
      <point x="271" y="709"/>
      <point x="472" y="709" type="curve" smooth="yes"/>
      <point x="589" y="709"/>
      <point x="673" y="650"/>
      <point x="722" y="557" type="curve"/>
      <point x="695" y="537" type="line"/>
      <point x="656" y="621"/>
      <point x="575" y="675"/>
      <point x="469" y="675" type="curve" smooth="yes"/>
      <point x="287" y="675"/>
      <point x="142" y="529"/>
      <point x="113" y="350" type="curve" smooth="yes"/>
      <point x="88" y="183"/>
      <point x="176" y="25"/>
      <point x="356" y="25" type="curve" smooth="yes"/>
      <point x="528" y="25"/>
      <point x="646" y="164"/>
      <point x="686" y="313" type="curve"/>
    </contour>
  </outline>
</glyph>
<glyph name="I" format="2">
  <advance width="193"/>
  <unicode hex="0049"/>
  <outline>
    <contour>
      <point x="173" y="700" type="line"/>
      <point x="206" y="700" type="line"/>
      <point x="85" y="0" type="line"/>
      <point x="53" y="0" type="line"/>
    </contour>
  </outline>
</glyph>
<glyph name="K" format="2">
  <advance width="472"/>
  <unicode hex="004B"/>
  <outline>
    <contour>
      <point x="173" y="700" type="line"/>
      <point x="207" y="700" type="line"/>
      <point x="86" y="0" type="line"/>
      <point x="53" y="0" type="line"/>
    </contour>
    <contour>
      <point x="497" y="699" type="line"/>
      <point x="541" y="699" type="line"/>
      <point x="181" y="371" type="line"/>
      <point x="434" y="0" type="line"/>
      <point x="393" y="0" type="line"/>
      <point x="141" y="372" type="line"/>
    </contour>
  </outline>
</glyph>
<glyph name="L" format="2">
  <advance width="422"/>
  <unicode hex="004C"/>
  <outline>
    <contour>
      <point x="177" y="700" type="line"/>
      <point x="210" y="700" type="line"/>
      <point x="95" y="31" type="line"/>
      <point x="385" y="31" type="line"/>
      <point x="380" y="0" type="line"/>
      <point x="57" y="0" type="line"/>
    </contour>
  </outline>
</glyph>
<glyph name="N" format="2">
  <advance width="677"/>
  <unicode hex="004E"/>
  <outline>
    <contour>
      <point x="667" y="700" type="line"/>
      <point x="700" y="700" type="line"/>
      <point x="576" y="-21" type="line"/>
      <point x="171" y="630" type="line"/>
      <point x="63" y="0" type="line"/>
      <point x="29" y="0" type="line"/>
      <point x="153" y="721" type="line"/>
      <point x="558" y="66" type="line"/>
    </contour>
  </outline>
</glyph>
<glyph name="Q" format="2">
  <advance width="753"/>
  <unicode hex="0051"/>
  <outline>
    <contour>
      <point x="113" y="350" type="curve" smooth="yes"/>
      <point x="88" y="183"/>
      <point x="174" y="26"/>
      <point x="354" y="25" type="curve" smooth="yes"/>
      <point x="536" y="24"/>
      <point x="681" y="174"/>
      <point x="709" y="350" type="curve" smooth="yes"/>
      <point x="734" y="517"/>
      <point x="647" y="674"/>
      <point x="467" y="675" type="curve" smooth="yes"/>
      <point x="285" y="676"/>
      <point x="141" y="526"/>
    </contour>
    <contour>
      <point x="78" y="350" type="curve" smooth="yes"/>
      <point x="108" y="546"/>
      <point x="270" y="709"/>
      <point x="470" y="709" type="curve" smooth="yes"/>
      <point x="668" y="709"/>
      <point x="770" y="536"/>
      <point x="743" y="350" type="curve" smooth="yes"/>
      <point x="713" y="154"/>
      <point x="551" y="-9"/>
      <point x="351" y="-9" type="curve" smooth="yes"/>
      <point x="153" y="-9"/>
      <point x="51" y="164"/>
    </contour>
    <contour>
      <point x="406" y="300" type="line"/>
      <point x="448" y="300" type="line"/>
      <point x="703" y="0" type="line"/>
      <point x="660" y="0" type="line"/>
    </contour>
  </outline>
</glyph>
<glyph name="R" format="2">
  <advance width="480"/>
  <unicode hex="0052"/>
  <outline>
    <contour>
      <point x="223" y="326" type="line"/>
      <point x="259" y="326" type="line"/>
      <point x="427" y="0" type="line"/>
      <point x="388" y="0" type="line"/>
    </contour>
    <contour>
      <point x="176" y="700" type="line"/>
      <point x="210" y="700" type="line"/>
      <point x="90" y="0" type="line"/>
      <point x="57" y="0" type="line"/>
    </contour>
    <contour>
      <point x="186" y="669" type="line"/>
      <point x="192" y="700" type="line"/>
      <point x="309" y="700" type="line" smooth="yes"/>
      <point x="434" y="700"/>
      <point x="527" y="626"/>
      <point x="507" y="502" type="curve" smooth="yes"/>
      <point x="487" y="376"/>
      <point x="374" y="305"/>
      <point x="244" y="304" type="curve"/>
      <point x="124" y="304" type="line"/>
      <point x="129" y="333" type="line"/>
      <point x="247" y="333" type="line"/>
      <point x="360" y="334"/>
      <point x="456" y="393"/>
      <point x="474" y="502" type="curve" smooth="yes"/>
      <point x="492" y="609"/>
      <point x="416" y="667"/>
      <point x="307" y="669" type="curve"/>
    </contour>
  </outline>
</glyph>
<glyph name="T" format="2">
  <advance width="427"/>
  <unicode hex="0054"/>
  <outline>
    <contour>
      <point x="103" y="668" type="line"/>
      <point x="108" y="700" type="line"/>
      <point x="505" y="700" type="line"/>
      <point x="499" y="668" type="line"/>
      <point x="318" y="668" type="line"/>
      <point x="203" y="0" type="line"/>
      <point x="170" y="0" type="line"/>
      <point x="284" y="668" type="line"/>
    </contour>
  </outline>
</glyph>
<glyph name="U" format="2">
  <advance width="572"/>
  <unicode hex="0055"/>
  <outline>
    <contour>
      <point x="172" y="700" type="line"/>
      <point x="205" y="700" type="line"/>
      <point x="123" y="223" type="line" smooth="yes"/>
      <point x="109" y="116"/>
      <point x="147" y="23"/>
      <point x="262" y="23" type="curve" smooth="yes"/>
      <point x="380" y="23"/>
      <point x="454" y="111"/>
      <point x="472" y="223" type="curve" smooth="yes"/>
      <point x="554" y="700" type="line"/>
      <point x="588" y="700" type="line"/>
      <point x="506" y="223" type="line" smooth="yes"/>
      <point x="485" y="94"/>
      <point x="402" y="-10"/>
      <point x="260" y="-10" type="curve" smooth="yes"/>
      <point x="124" y="-10"/>
      <point x="73" y="100"/>
      <point x="90" y="223" type="curve" smooth="yes"/>
    </contour>
  </outline>
</glyph>
<glyph name="W" format="2">
  <advance width="932"/>
  <unicode hex="0057"/>
  <outline>
    <contour>
      <point x="669" y="73" type="line"/>
      <point x="972" y="700" type="line"/>
      <point x="1009" y="700" type="line"/>
      <point x="657" y="-22" type="line"/>
      <point x="547" y="625" type="line"/>
      <point x="236" y="-22" type="line"/>
      <point x="107" y="700" type="line"/>
      <point x="143" y="700" type="line"/>
      <point x="251" y="73" type="line"/>
      <point x="561" y="722" type="line"/>
    </contour>
  </outline>
</glyph>
<glyph name="Z" format="2">
  <advance width="521"/>
  <unicode hex="005A"/>
  <outline>
    <contour>
      <point x="124" y="668" type="line"/>
      <point x="129" y="700" type="line"/>
      <point x="599" y="700" type="line"/>
      <point x="54" y="33" type="line"/>
      <point x="472" y="32" type="line"/>
      <point x="467" y="0" type="line"/>
      <point x="-10" y="0" type="line"/>
      <point x="535" y="668" type="line"/>
    </contour>
  </outline>
</glyph>
<glyph name="grave" format="2">
  <advance width="348"/>
  <unicode hex="0060"/>
  <outline>
    <contour>
      <point x="177" y="683" type="line"/>
      <point x="207" y="700" type="line"/>
      <point x="343" y="540" type="line"/>
      <point x="325" y="528" type="line"/>
    </contour>
  </outline>
</glyph>
<glyph name="f" format="2">
  <advance width="271"/>
  <unicode hex="0066"/>
  <outline>
    <contour>
      <point x="97" y="460" type="line"/>
      <point x="297" y="460" type="line"/>
      <point x="292" y="430" type="line"/>
      <point x="91" y="430" type="line"/>
    </contour>
    <contour>
      <point x="364" y="718" type="line"/>
      <point x="350" y="738"/>
      <point x="332" y="756"/>
      <point x="304" y="757" type="curve" smooth="yes"/>
      <point x="241" y="758"/>
      <point x="212" y="695"/>
      <point x="202" y="641" type="curve" smooth="yes"/>
      <point x="93" y="0" type="line"/>
      <point x="61" y="0" type="line"/>
      <point x="171" y="644" type="line" smooth="yes"/>
      <point x="183" y="717"/>
      <point x="226" y="790"/>
      <point x="308" y="788" type="curve" smooth="yes"/>
      <point x="346" y="787"/>
      <point x="369" y="765"/>
      <point x="385" y="743" type="curve"/>
    </contour>
  </outline>
</glyph>
<glyph name="k" format="2">
  <advance width="380"/>
  <unicode hex="006B"/>
  <outline>
    <contour>
      <point x="180" y="780" type="line"/>
      <point x="212" y="780" type="line"/>
      <point x="78" y="0" type="line"/>
      <point x="47" y="0" type="line"/>
    </contour>
    <contour>
      <point x="366" y="459" type="line"/>
      <point x="409" y="459" type="line"/>
      <point x="151" y="268" type="line"/>
      <point x="347" y="0" type="line"/>
      <point x="309" y="0" type="line"/>
      <point x="114" y="271" type="line"/>
    </contour>
  </outline>
</glyph>
<glyph name="m" format="2">
  <advance width="695"/>
  <unicode hex="006D"/>
  <outline>
    <contour>
      <point x="358" y="308" type="line" smooth="yes"/>
      <point x="366" y="373"/>
      <point x="358" y="437"/>
      <point x="287" y="439" type="curve" smooth="yes"/>
      <point x="209" y="441"/>
      <point x="147" y="358"/>
      <point x="130" y="281" type="curve"/>
      <point x="119" y="281" type="line"/>
      <point x="137" y="375"/>
      <point x="204" y="471"/>
      <point x="295" y="470" type="curve" smooth="yes"/>
      <point x="380" y="469"/>
      <point x="400" y="392"/>
      <point x="390" y="311" type="curve" smooth="yes"/>
      <point x="336" y="0" type="line"/>
      <point x="305" y="0" type="line"/>
    </contour>
    <contour>
      <point x="162" y="460" type="line"/>
      <point x="83" y="0" type="line"/>
      <point x="51" y="0" type="line"/>
      <point x="131" y="460" type="line"/>
    </contour>
    <contour>
      <point x="643" y="311" type="curve" smooth="yes"/>
      <point x="589" y="0" type="line"/>
      <point x="558" y="0" type="line"/>
      <point x="612" y="308" type="line" smooth="yes"/>
      <point x="620" y="373"/>
      <point x="611" y="437"/>
      <point x="540" y="439" type="curve" smooth="yes"/>
      <point x="461" y="441"/>
      <point x="401" y="357"/>
      <point x="384" y="281" type="curve"/>
      <point x="366" y="281" type="line"/>
      <point x="385" y="376"/>
      <point x="457" y="471"/>
      <point x="549" y="470" type="curve" smooth="yes"/>
      <point x="634" y="469"/>
      <point x="653" y="392"/>
    </contour>
  </outline>
</glyph>
<glyph name="n" format="2">
  <advance width="474"/>
  <unicode hex="006E"/>
  <outline>
    <contour>
      <point x="162" y="460" type="line"/>
      <point x="83" y="0" type="line"/>
      <point x="51" y="0" type="line"/>
      <point x="131" y="460" type="line"/>
    </contour>
    <contour>
      <point x="391" y="308" type="line" smooth="yes"/>
      <point x="400" y="377"/>
      <point x="383" y="439"/>
      <point x="303" y="440" type="curve" smooth="yes"/>
      <point x="214" y="441"/>
      <point x="149" y="361"/>
      <point x="130" y="281" type="curve"/>
      <point x="119" y="281" type="line"/>
      <point x="139" y="379"/>
      <point x="211" y="470"/>
      <point x="312" y="470" type="curve" smooth="yes"/>
      <point x="406" y="470"/>
      <point x="434" y="397"/>
      <point x="423" y="311" type="curve"/>
      <point x="369" y="0" type="line"/>
      <point x="338" y="0" type="line"/>
    </contour>
  </outline>
</glyph>
<glyph name="o" format="2">
  <advance width="535"/>
  <unicode hex="006F"/>
  <outline>
    <contour>
      <point x="58" y="230" type="curve" smooth="yes"/>
      <point x="76" y="362"/>
      <point x="188" y="470"/>
      <point x="322" y="470" type="curve" smooth="yes"/>
      <point x="454" y="470"/>
      <point x="532" y="357"/>
      <point x="515" y="230" type="curve" smooth="yes"/>
      <point x="497" y="98"/>
      <point x="385" y="-10"/>
      <point x="251" y="-10" type="curve" smooth="yes"/>
      <point x="119" y="-10"/>
      <point x="41" y="103"/>
    </contour>
    <contour>
      <point x="90" y="230" type="curve" smooth="yes"/>
      <point x="75" y="120"/>
      <point x="138" y="20"/>
      <point x="253" y="20" type="curve" smooth="yes"/>
      <point x="369" y="20"/>
      <point x="466" y="115"/>
      <point x="483" y="230" type="curve" smooth="yes"/>
      <point x="498" y="340"/>
      <point x="435" y="440"/>
      <point x="320" y="440" type="curve" smooth="yes"/>
      <point x="204" y="440"/>
      <point x="107" y="345"/>
    </contour>
  </outline>
</glyph>
<glyph name="s" format="2">
  <advance width="391"/>
  <unicode hex="0073"/>
  <outline>
    <contour>
      <point x="65" y="151" type="line"/>
      <point x="76" y="88"/>
      <point x="104" y="21"/>
      <point x="182" y="20" type="curve" smooth="yes"/>
      <point x="242" y="20"/>
      <point x="296" y="59"/>
      <point x="304" y="118" type="curve" smooth="yes"/>
      <point x="313" y="177"/>
      <point x="261" y="205"/>
      <point x="206" y="225" type="curve" smooth="yes"/>
      <point x="142" y="249"/>
      <point x="87" y="277"/>
      <point x="98" y="356" type="curve" smooth="yes"/>
      <point x="108" y="428"/>
      <point x="175" y="468"/>
      <point x="247" y="468" type="curve" smooth="yes"/>
      <point x="318" y="468"/>
      <point x="355" y="425"/>
      <point x="373" y="371" type="curve"/>
      <point x="346" y="357" type="line"/>
      <point x="331" y="401"/>
      <point x="302" y="439"/>
      <point x="245" y="439" type="curve" smooth="yes"/>
      <point x="190" y="440"/>
      <point x="137" y="409"/>
      <point x="129" y="356" type="curve" smooth="yes"/>
      <point x="119" y="291"/>
      <point x="174" y="269"/>
      <point x="230" y="249" type="curve" smooth="yes"/>
      <point x="290" y="226"/>
      <point x="345" y="190"/>
      <point x="336" y="120" type="curve" smooth="yes"/>
      <point x="326" y="40"/>
      <point x="261" y="-10"/>
      <point x="180" y="-10" type="curve" smooth="yes"/>
      <point x="87" y="-10"/>
      <point x="50" y="64"/>
      <point x="38" y="138" type="curve"/>
    </contour>
  </outline>
</glyph>
<glyph name="z" format="2">
  <advance width="425"/>
  <unicode hex="007A"/>
  <outline>
    <contour>
      <point x="390" y="430" type="line"/>
      <point x="86" y="430" type="line"/>
      <point x="91" y="460" type="line"/>
      <point x="454" y="460" type="line"/>
      <point x="54" y="30" type="line"/>
      <point x="381" y="30" type="line"/>
      <point x="376" y="0" type="line"/>
      <point x="-10" y="0" type="line"/>
    </contour>
  </outline>
</glyph>
<glyph name="braceleft" format="2">
  <advance width="280"/>
  <unicode hex="007B"/>
  <outline>
    <contour>
      <point x="235" y="646" type="curve" smooth="yes"/>
      <point x="205" y="448" type="line" smooth="yes"/>
      <point x="193" y="368"/>
      <point x="164" y="299"/>
      <point x="100" y="286" type="curve"/>
      <point x="101" y="294" type="line"/>
      <point x="160" y="277"/>
      <point x="165" y="207"/>
      <point x="156" y="132" type="curve" smooth="yes"/>
      <point x="125" y="-66" type="line" smooth="yes"/>
      <point x="118" y="-126"/>
      <point x="122" y="-172"/>
      <point x="179" y="-172" type="curve" smooth="yes"/>
      <point x="203" y="-172" type="line"/>
      <point x="199" y="-200" type="line"/>
      <point x="168" y="-200" type="line" smooth="yes"/>
      <point x="97" y="-200"/>
      <point x="88" y="-138"/>
      <point x="96" y="-60" type="curve" smooth="yes"/>
      <point x="128" y="150" type="line" smooth="yes"/>
      <point x="135" y="212"/>
      <point x="126" y="252"/>
      <point x="94" y="277" type="curve"/>
      <point x="98" y="303" type="line"/>
      <point x="137" y="324"/>
      <point x="162" y="365"/>
      <point x="171" y="430" type="curve" smooth="yes"/>
      <point x="203" y="640" type="line" smooth="yes"/>
      <point x="214" y="722"/>
      <point x="247" y="780"/>
      <point x="318" y="780" type="curve" smooth="yes"/>
      <point x="350" y="780" type="line"/>
      <point x="346" y="752" type="line"/>
      <point x="322" y="752" type="line" smooth="yes"/>
      <point x="265" y="752"/>
      <point x="243" y="709"/>
    </contour>
  </outline>
</glyph>
<glyph name="braceright" format="2">
  <advance width="280"/>
  <unicode hex="007D"/>
  <outline>
    <contour>
      <point x="104" y="-66" type="curve" smooth="yes"/>
      <point x="134" y="132" type="line" smooth="yes"/>
      <point x="146" y="212"/>
      <point x="175" y="281"/>
      <point x="239" y="294" type="curve"/>
      <point x="238" y="286" type="line"/>
      <point x="179" y="303"/>
      <point x="174" y="373"/>
      <point x="183" y="448" type="curve" smooth="yes"/>
      <point x="214" y="646" type="line" smooth="yes"/>
      <point x="221" y="706"/>
      <point x="217" y="752"/>
      <point x="160" y="752" type="curve" smooth="yes"/>
      <point x="136" y="752" type="line"/>
      <point x="140" y="780" type="line"/>
      <point x="171" y="780" type="line" smooth="yes"/>
      <point x="242" y="780"/>
      <point x="252" y="718"/>
      <point x="244" y="640" type="curve" smooth="yes"/>
      <point x="211" y="430" type="line" smooth="yes"/>
      <point x="204" y="368"/>
      <point x="214" y="328"/>
      <point x="246" y="303" type="curve"/>
      <point x="242" y="277" type="line"/>
      <point x="203" y="256"/>
      <point x="178" y="215"/>
      <point x="169" y="150" type="curve" smooth="yes"/>
      <point x="137" y="-60" type="line" smooth="yes"/>
      <point x="126" y="-142"/>
      <point x="93" y="-200"/>
      <point x="22" y="-200" type="curve" smooth="yes"/>
      <point x="-10" y="-200" type="line"/>
      <point x="-6" y="-172" type="line"/>
      <point x="17" y="-172" type="line" smooth="yes"/>
      <point x="74" y="-172"/>
      <point x="96" y="-129"/>
    </contour>
  </outline>
</glyph>
<glyph name="brokenbar" format="2">
  <advance width="221"/>
  <unicode hex="00A6"/>
  <outline>
    <contour>
      <point x="189" y="694" type="line"/>
      <point x="218" y="694" type="line"/>
      <point x="176" y="456" type="line"/>
      <point x="147" y="456" type="line"/>
    </contour>
    <contour>
      <point x="141" y="244" type="line"/>
      <point x="99" y="6" type="line"/>
      <point x="70" y="6" type="line"/>
      <point x="112" y="244" type="line"/>
    </contour>
  </outline>
</glyph>
<glyph name="dieresis" format="2">
  <advance width="423"/>
  <unicode hex="00A8"/>
  <outline>
    <contour>
      <point x="373" y="680" type="curve" smooth="yes"/>
      <point x="374" y="692"/>
      <point x="388" y="704"/>
      <point x="400" y="704" type="curve" smooth="yes"/>
      <point x="413" y="704"/>
      <point x="421" y="693"/>
      <point x="420" y="680" type="curve" smooth="yes"/>
      <point x="419" y="668"/>
      <point x="405" y="656"/>
      <point x="393" y="656" type="curve" smooth="yes"/>
      <point x="380" y="656"/>
      <point x="372" y="667"/>
    </contour>
    <contour>
      <point x="179" y="680" type="curve" smooth="yes"/>
      <point x="180" y="692"/>
      <point x="194" y="704"/>
      <point x="206" y="704" type="curve" smooth="yes"/>
      <point x="219" y="704"/>
      <point x="227" y="693"/>
      <point x="226" y="680" type="curve" smooth="yes"/>
      <point x="225" y="668"/>
      <point x="211" y="656"/>
      <point x="199" y="656" type="curve" smooth="yes"/>
      <point x="186" y="656"/>
      <point x="178" y="667"/>
    </contour>
  </outline>
</glyph>
<glyph name="copyright" format="2">
  <advance width="776"/>
  <unicode hex="00A9"/>
  <outline>
    <contour>
      <point x="241" y="350" type="curve" smooth="yes"/>
      <point x="227" y="250"/>
      <point x="279" y="157"/>
      <point x="385" y="156" type="curve" smooth="yes"/>
      <point x="441" y="155"/>
      <point x="487" y="177"/>
      <point x="526" y="208" type="curve"/>
      <point x="522" y="182" type="line"/>
      <point x="483" y="154"/>
      <point x="440" y="135"/>
      <point x="384" y="135" type="curve" smooth="yes"/>
      <point x="267" y="136"/>
      <point x="205" y="238"/>
      <point x="220" y="350" type="curve" smooth="yes"/>
      <point x="236" y="467"/>
      <point x="330" y="564"/>
      <point x="448" y="565" type="curve" smooth="yes"/>
      <point x="502" y="565"/>
      <point x="539" y="548"/>
      <point x="573" y="518" type="curve"/>
      <point x="569" y="492" type="line"/>
      <point x="538" y="526"/>
      <point x="499" y="544"/>
      <point x="447" y="544" type="curve" smooth="yes"/>
      <point x="340" y="544"/>
      <point x="256" y="457"/>
    </contour>
    <contour>
      <point x="99" y="350" type="curve" smooth="yes"/>
      <point x="74" y="172"/>
      <point x="186" y="12"/>
      <point x="372" y="12" type="curve" smooth="yes"/>
      <point x="561" y="12"/>
      <point x="723" y="164"/>
      <point x="751" y="350" type="curve" smooth="yes"/>
      <point x="776" y="528"/>
      <point x="664" y="688"/>
      <point x="478" y="688" type="curve" smooth="yes"/>
      <point x="289" y="688"/>
      <point x="127" y="536"/>
    </contour>
    <contour>
      <point x="75" y="350" type="curve" smooth="yes"/>
      <point x="104" y="550"/>
      <point x="274" y="710"/>
      <point x="479" y="710" type="curve" smooth="yes"/>
      <point x="680" y="710"/>
      <point x="801" y="542"/>
      <point x="775" y="350" type="curve" smooth="yes"/>
      <point x="746" y="150"/>
      <point x="576" y="-10"/>
      <point x="371" y="-10" type="curve" smooth="yes"/>
      <point x="170" y="-10"/>
      <point x="49" y="158"/>
    </contour>
  </outline>
</glyph>
<glyph name="guillemotleft" format="2">
  <advance width="477"/>
  <unicode hex="00AB"/>
  <outline>
    <contour>
      <point x="244" y="256" type="line"/>
      <point x="390" y="38" type="line"/>
      <point x="368" y="20" type="line"/>
      <point x="210" y="257" type="line"/>
      <point x="447" y="489" type="line"/>
      <point x="464" y="470" type="line"/>
    </contour>
    <contour>
      <point x="88" y="256" type="line"/>
      <point x="235" y="38" type="line"/>
      <point x="212" y="20" type="line"/>
      <point x="55" y="257" type="line"/>
      <point x="292" y="489" type="line"/>
      <point x="309" y="470" type="line"/>
    </contour>
  </outline>
</glyph>
<glyph name="degree" format="2">
  <advance width="269"/>
  <unicode hex="00B0"/>
  <outline>
    <contour>
      <point x="94" y="600" type="curve" smooth="yes"/>
      <point x="104" y="666"/>
      <point x="163" y="720"/>
      <point x="230" y="720" type="curve" smooth="yes"/>
      <point x="297" y="720"/>
      <point x="335" y="664"/>
      <point x="326" y="600" type="curve" smooth="yes"/>
      <point x="316" y="534"/>
      <point x="258" y="480"/>
      <point x="191" y="480" type="curve" smooth="yes"/>
      <point x="124" y="480"/>
      <point x="85" y="536"/>
    </contour>
    <contour>
      <point x="113" y="600" type="curve" smooth="yes"/>
      <point x="105" y="547"/>
      <point x="137" y="500"/>
      <point x="192" y="499" type="curve" smooth="yes"/>
      <point x="248" y="498"/>
      <point x="298" y="545"/>
      <point x="307" y="600" type="curve" smooth="yes"/>
      <point x="315" y="653"/>
      <point x="284" y="700"/>
      <point x="229" y="701" type="curve" smooth="yes"/>
      <point x="173" y="702"/>
      <point x="122" y="655"/>
    </contour>
  </outline>
</glyph>
<glyph name="uni00B2" format="2">
  <advance width="325"/>
  <unicode hex="00B2"/>
  <outline>
    <contour>
      <point x="48" y="283" type="line"/>
      <point x="270" y="486" type="line" smooth="yes"/>
      <point x="301" y="515"/>
      <point x="334" y="548"/>
      <point x="341" y="592" type="curve" smooth="yes"/>
      <point x="349" y="637"/>
      <point x="326" y="689"/>
      <point x="264" y="690" type="curve" smooth="yes"/>
      <point x="193" y="692"/>
      <point x="149" y="627"/>
      <point x="134" y="559" type="curve"/>
      <point x="114" y="559" type="line"/>
      <point x="130" y="638"/>
      <point x="183" y="709"/>
      <point x="266" y="708" type="curve" smooth="yes"/>
      <point x="341" y="707"/>
      <point x="370" y="645"/>
      <point x="361" y="590" type="curve" smooth="yes"/>
      <point x="353" y="543"/>
      <point x="320" y="506"/>
      <point x="286" y="475" type="curve" smooth="yes"/>
      <point x="94" y="301" type="line"/>
      <point x="323" y="301" type="line"/>
      <point x="320" y="282" type="line"/>
    </contour>
  </outline>
</glyph>
<glyph name="acute" format="2">
  <advance width="348"/>
  <unicode hex="00B4"/>
  <outline>
    <contour>
      <point x="348" y="681" type="line"/>
      <point x="154" y="528" type="line"/>
      <point x="138" y="541" type="line"/>
      <point x="322" y="699" type="line"/>
    </contour>
  </outline>
</glyph>
<glyph name="periodcentered" format="2">
  <advance width="251"/>
  <unicode hex="00B7"/>
  <outline>
    <contour>
      <point x="113" y="227" type="curve" smooth="yes"/>
      <point x="114" y="239"/>
      <point x="129" y="251"/>
      <point x="141" y="251" type="curve" smooth="yes"/>
      <point x="154" y="251"/>
      <point x="163" y="239"/>
      <point x="162" y="226" type="curve" smooth="yes"/>
      <point x="161" y="214"/>
      <point x="146" y="203"/>
      <point x="134" y="203" type="curve" smooth="yes"/>
      <point x="121" y="203"/>
      <point x="112" y="214"/>
    </contour>
  </outline>
</glyph>
<glyph name="uni00B9" format="2">
  <advance width="456"/>
  <unicode hex="00B9"/>
  <outline>
    <contour>
      <point x="225" y="650" type="line"/>
      <point x="228" y="671" type="line"/>
      <point x="350" y="698" type="line"/>
      <point x="276" y="274" type="line"/>
      <point x="257" y="274" type="line"/>
      <point x="325" y="673" type="line"/>
    </contour>
  </outline>
</glyph>
<glyph name="threequarters" format="2">
  <advance width="795"/>
  <unicode hex="00BE"/>
  <outline>
    <contour>
      <point x="792" y="699" type="line"/>
      <point x="821" y="699" type="line"/>
      <point x="161" y="0" type="line"/>
      <point x="132" y="0" type="line"/>
    </contour>
    <contour>
      <point x="198" y="495" type="curve"/>
      <point x="200" y="508" type="line"/>
      <point x="255" y="513"/>
      <point x="315" y="541"/>
      <point x="326" y="598" type="curve" smooth="yes"/>
      <point x="334" y="643"/>
      <point x="306" y="686"/>
      <point x="253" y="687" type="curve" smooth="yes"/>
      <point x="196" y="688"/>
      <point x="157" y="646"/>
      <point x="143" y="597" type="curve"/>
      <point x="124" y="597" type="line"/>
      <point x="139" y="657"/>
      <point x="185" y="707"/>
      <point x="254" y="706" type="curve" smooth="yes"/>
      <point x="320" y="705"/>
      <point x="355" y="653"/>
      <point x="345" y="598" type="curve" smooth="yes"/>
      <point x="333" y="532"/>
      <point x="265" y="499"/>
    </contour>
    <contour>
      <point x="179" y="274" type="curve" smooth="yes"/>
      <point x="102" y="274"/>
      <point x="67" y="327"/>
      <point x="72" y="391" type="curve"/>
      <point x="91" y="391" type="line"/>
      <point x="88" y="336"/>
      <point x="114" y="294"/>
      <point x="180" y="293" type="curve" smooth="yes"/>
      <point x="240" y="292"/>
      <point x="292" y="334"/>
      <point x="301" y="389" type="curve" smooth="yes"/>
      <point x="311" y="455"/>
      <point x="251" y="484"/>
      <point x="197" y="489" type="curve"/>
      <point x="199" y="503" type="line"/>
      <point x="265" y="498"/>
      <point x="333" y="463"/>
      <point x="321" y="386" type="curve" smooth="yes"/>
      <point x="311" y="321"/>
      <point x="249" y="274"/>
    </contour>
    <contour>
      <point x="441" y="84" type="line"/>
      <point x="459" y="102" type="line"/>
      <point x="661" y="102" type="line"/>
      <point x="666" y="102" type="line"/>
      <point x="738" y="102" type="line"/>
      <point x="735" y="84" type="line"/>
    </contour>
    <contour>
      <point x="462" y="85" type="line"/>
      <point x="440" y="85" type="line"/>
      <point x="722" y="419" type="line"/>
      <point x="728" y="420" type="line"/>
      <point x="657" y="0" type="line"/>
      <point x="637" y="0" type="line"/>
      <point x="653" y="91" type="line"/>
      <point x="653" y="95" type="line"/>
      <point x="700" y="369" type="line"/>
    </contour>
  </outline>
</glyph>
<glyph name="Aacute" format="2">
  <advance width="599"/>
  <unicode hex="00C1"/>
  <outline>
    <contour>
      <point x="145" y="253" type="line"/>
      <point x="159" y="284" type="line"/>
      <point x="484" y="284" type="line"/>
      <point x="488" y="253" type="line"/>
    </contour>
    <contour>
      <point x="384" y="643" type="line"/>
      <point x="175" y="273" type="line"/>
      <point x="171" y="265" type="line"/>
      <point x="21" y="0" type="line"/>
      <point x="-17" y="0" type="line"/>
      <point x="396" y="722" type="line"/>
      <point x="561" y="0" type="line"/>
      <point x="525" y="0" type="line"/>
      <point x="468" y="263" type="line"/>
      <point x="466" y="271" type="line"/>
    </contour>
    <contour>
      <point x="563" y="935" type="line"/>
      <point x="366" y="782" type="line"/>
      <point x="351" y="795" type="line"/>
      <point x="538" y="953" type="line"/>
    </contour>
  </outline>
</glyph>
<glyph name="Atilde" format="2">
  <advance width="599"/>
  <unicode hex="00C3"/>
  <outline>
    <contour>
      <point x="145" y="253" type="line"/>
      <point x="159" y="284" type="line"/>
      <point x="484" y="284" type="line"/>
      <point x="488" y="253" type="line"/>
    </contour>
    <contour>
      <point x="384" y="643" type="line"/>
      <point x="175" y="273" type="line"/>
      <point x="171" y="265" type="line"/>
      <point x="21" y="0" type="line"/>
      <point x="-17" y="0" type="line"/>
      <point x="396" y="722" type="line"/>
      <point x="561" y="0" type="line"/>
      <point x="525" y="0" type="line"/>
      <point x="468" y="263" type="line"/>
      <point x="466" y="271" type="line"/>
    </contour>
    <contour>
      <point x="275" y="802" type="line"/>
      <point x="288" y="834"/>
      <point x="315" y="866"/>
      <point x="358" y="866" type="curve" smooth="yes"/>
      <point x="410" y="866"/>
      <point x="424" y="819"/>
      <point x="471" y="820" type="curve" smooth="yes"/>
      <point x="498" y="821"/>
      <point x="516" y="842"/>
      <point x="534" y="867" type="curve"/>
      <point x="553" y="851" type="line"/>
      <point x="533" y="820"/>
      <point x="504" y="792"/>
      <point x="467" y="793" type="curve" smooth="yes"/>
      <point x="417" y="793"/>
      <point x="399" y="840"/>
      <point x="357" y="839" type="curve" smooth="yes"/>
      <point x="321" y="838"/>
      <point x="306" y="811"/>
      <point x="297" y="789" type="curve"/>
    </contour>
  </outline>
</glyph>
<glyph name="Aring" format="2">
  <advance width="599"/>
  <unicode hex="00C5"/>
  <outline>
    <contour>
      <point x="145" y="253" type="line"/>
      <point x="159" y="284" type="line"/>
      <point x="484" y="284" type="line"/>
      <point x="488" y="253" type="line"/>
    </contour>
    <contour>
      <point x="384" y="643" type="line"/>
      <point x="175" y="273" type="line"/>
      <point x="171" y="265" type="line"/>
      <point x="21" y="0" type="line"/>
      <point x="-17" y="0" type="line"/>
      <point x="396" y="722" type="line"/>
      <point x="561" y="0" type="line"/>
      <point x="525" y="0" type="line"/>
      <point x="468" y="263" type="line"/>
      <point x="466" y="271" type="line"/>
    </contour>
    <contour>
      <point x="311" y="806" type="curve" smooth="yes"/>
      <point x="319" y="861"/>
      <point x="374" y="904"/>
      <point x="427" y="904" type="curve" smooth="yes"/>
      <point x="480" y="904"/>
      <point x="518" y="858"/>
      <point x="510" y="804" type="curve" smooth="yes"/>
      <point x="502" y="749"/>
      <point x="447" y="705"/>
      <point x="394" y="705" type="curve" smooth="yes"/>
      <point x="341" y="705"/>
      <point x="303" y="752"/>
    </contour>
    <contour>
      <point x="333" y="805" type="curve" smooth="yes"/>
      <point x="327" y="764"/>
      <point x="355" y="728"/>
      <point x="396" y="727" type="curve" smooth="yes"/>
      <point x="437" y="726"/>
      <point x="482" y="763"/>
      <point x="488" y="805" type="curve" smooth="yes"/>
      <point x="494" y="846"/>
      <point x="466" y="882"/>
      <point x="425" y="883" type="curve" smooth="yes"/>
      <point x="384" y="884"/>
      <point x="339" y="847"/>
    </contour>
  </outline>
</glyph>
<glyph name="Ccedilla" format="2">
  <advance width="664"/>
  <unicode hex="00C7"/>
  <outline>
    <contour>
      <point x="113" y="350" type="curve" smooth="yes"/>
      <point x="88" y="184"/>
      <point x="173" y="28"/>
      <point x="348" y="26" type="curve" smooth="yes"/>
      <point x="443" y="25"/>
      <point x="519" y="61"/>
      <point x="583" y="115" type="curve"/>
      <point x="576" y="70" type="line"/>
      <point x="510" y="21"/>
      <point x="439" y="-8"/>
      <point x="345" y="-8" type="curve" smooth="yes"/>
      <point x="149" y="-7"/>
      <point x="51" y="164"/>
      <point x="78" y="350" type="curve" smooth="yes"/>
      <point x="108" y="546"/>
      <point x="266" y="708"/>
      <point x="464" y="709" type="curve" smooth="yes"/>
      <point x="553" y="709"/>
      <point x="616" y="683"/>
      <point x="671" y="630" type="curve"/>
      <point x="663" y="585" type="line"/>
      <point x="614" y="644"/>
      <point x="546" y="674"/>
      <point x="461" y="674" type="curve" smooth="yes"/>
      <point x="284" y="673"/>
      <point x="141" y="527"/>
    </contour>
    <contour>
      <point x="340" y="17" type="line"/>
      <point x="367" y="17" type="line"/>
      <point x="295" y="-69" type="line"/>
      <point x="312" y="-60"/>
      <point x="326" y="-52"/>
      <point x="347" y="-53" type="curve" smooth="yes"/>
      <point x="383" y="-55"/>
      <point x="411" y="-85"/>
      <point x="406" y="-128" type="curve" smooth="yes"/>
      <point x="399" y="-185"/>
      <point x="341" y="-220"/>
      <point x="287" y="-220" type="curve" smooth="yes"/>
      <point x="252" y="-220"/>
      <point x="231" y="-208"/>
      <point x="206" y="-183" type="curve"/>
      <point x="222" y="-167" type="line"/>
      <point x="243" y="-186"/>
      <point x="261" y="-197"/>
      <point x="289" y="-197" type="curve" smooth="yes"/>
      <point x="330" y="-197"/>
      <point x="376" y="-170"/>
      <point x="382" y="-127" type="curve" smooth="yes"/>
      <point x="386" y="-94"/>
      <point x="364" y="-74"/>
      <point x="335" y="-72" type="curve" smooth="yes"/>
      <point x="310" y="-70"/>
      <point x="282" y="-81"/>
      <point x="259" y="-94" type="curve"/>
    </contour>
  </outline>
</glyph>
<glyph name="Eacute" format="2">
  <advance width="505"/>
  <unicode hex="00C9"/>
  <outline>
    <contour>
      <point x="73" y="0" type="line"/>
      <point x="78" y="31" type="line"/>
      <point x="411" y="31" type="line"/>
      <point x="406" y="0" type="line"/>
    </contour>
    <contour>
      <point x="187" y="669" type="line"/>
      <point x="192" y="700" type="line"/>
      <point x="525" y="700" type="line"/>
      <point x="520" y="669" type="line"/>
    </contour>
    <contour>
      <point x="136" y="371" type="line"/>
      <point x="141" y="402" type="line"/>
      <point x="455" y="402" type="line"/>
      <point x="449" y="371" type="line"/>
    </contour>
    <contour>
      <point x="176" y="700" type="line"/>
      <point x="210" y="700" type="line"/>
      <point x="90" y="0" type="line"/>
      <point x="57" y="0" type="line"/>
    </contour>
    <contour>
      <point x="533" y="922" type="line"/>
      <point x="336" y="770" type="line"/>
      <point x="321" y="782" type="line"/>
      <point x="508" y="940" type="line"/>
    </contour>
  </outline>
</glyph>
<glyph name="Edieresis" format="2">
  <advance width="505"/>
  <unicode hex="00CB"/>
  <outline>
    <contour>
      <point x="73" y="0" type="line"/>
      <point x="78" y="31" type="line"/>
      <point x="411" y="31" type="line"/>
      <point x="406" y="0" type="line"/>
    </contour>
    <contour>
      <point x="187" y="669" type="line"/>
      <point x="192" y="700" type="line"/>
      <point x="525" y="700" type="line"/>
      <point x="520" y="669" type="line"/>
    </contour>
    <contour>
      <point x="136" y="371" type="line"/>
      <point x="141" y="402" type="line"/>
      <point x="455" y="402" type="line"/>
      <point x="449" y="371" type="line"/>
    </contour>
    <contour>
      <point x="176" y="700" type="line"/>
      <point x="210" y="700" type="line"/>
      <point x="90" y="0" type="line"/>
      <point x="57" y="0" type="line"/>
    </contour>
    <contour>
      <point x="446" y="813" type="curve" smooth="yes"/>
      <point x="447" y="825"/>
      <point x="462" y="837"/>
      <point x="474" y="837" type="curve" smooth="yes"/>
      <point x="487" y="837"/>
      <point x="495" y="826"/>
      <point x="494" y="813" type="curve" smooth="yes"/>
      <point x="493" y="801"/>
      <point x="478" y="789"/>
      <point x="466" y="789" type="curve" smooth="yes"/>
      <point x="453" y="789"/>
      <point x="445" y="800"/>
    </contour>
    <contour>
      <point x="252" y="813" type="curve" smooth="yes"/>
      <point x="253" y="825"/>
      <point x="267" y="837"/>
      <point x="279" y="837" type="curve" smooth="yes"/>
      <point x="292" y="837"/>
      <point x="301" y="826"/>
      <point x="300" y="813" type="curve" smooth="yes"/>
      <point x="299" y="801"/>
      <point x="284" y="789"/>
      <point x="272" y="789" type="curve" smooth="yes"/>
      <point x="259" y="789"/>
      <point x="251" y="800"/>
    </contour>
  </outline>
</glyph>
<glyph name="Iacute" format="2">
  <advance width="193"/>
  <unicode hex="00CD"/>
  <outline>
    <contour>
      <point x="173" y="700" type="line"/>
      <point x="206" y="700" type="line"/>
      <point x="85" y="0" type="line"/>
      <point x="53" y="0" type="line"/>
    </contour>
    <contour>
      <point x="372" y="922" type="line"/>
      <point x="174" y="769" type="line"/>
      <point x="159" y="782" type="line"/>
      <point x="346" y="940" type="line"/>
    </contour>
  </outline>
</glyph>
<glyph name="Idieresis" format="2">
  <advance width="193"/>
  <unicode hex="00CF"/>
  <outline>
    <contour>
      <point x="173" y="700" type="line"/>
      <point x="206" y="700" type="line"/>
      <point x="85" y="0" type="line"/>
      <point x="53" y="0" type="line"/>
    </contour>
    <contour>
      <point x="260" y="807" type="curve" smooth="yes"/>
      <point x="261" y="819"/>
      <point x="276" y="831"/>
      <point x="288" y="831" type="curve" smooth="yes"/>
      <point x="301" y="831"/>
      <point x="310" y="820"/>
      <point x="309" y="807" type="curve" smooth="yes"/>
      <point x="308" y="795"/>
      <point x="293" y="783"/>
      <point x="281" y="783" type="curve" smooth="yes"/>
      <point x="268" y="783"/>
      <point x="259" y="794"/>
    </contour>
    <contour>
      <point x="107" y="807" type="curve" smooth="yes"/>
      <point x="108" y="819"/>
      <point x="122" y="831"/>
      <point x="134" y="831" type="curve" smooth="yes"/>
      <point x="147" y="831"/>
      <point x="156" y="820"/>
      <point x="155" y="807" type="curve" smooth="yes"/>
      <point x="154" y="795"/>
      <point x="139" y="783"/>
      <point x="127" y="783" type="curve" smooth="yes"/>
      <point x="114" y="783"/>
      <point x="106" y="794"/>
    </contour>
  </outline>
</glyph>
<glyph name="Ntilde" format="2">
  <advance width="677"/>
  <unicode hex="00D1"/>
  <outline>
    <contour>
      <point x="667" y="700" type="line"/>
      <point x="700" y="700" type="line"/>
      <point x="576" y="-21" type="line"/>
      <point x="171" y="630" type="line"/>
      <point x="63" y="0" type="line"/>
      <point x="29" y="0" type="line"/>
      <point x="153" y="721" type="line"/>
      <point x="558" y="66" type="line"/>
    </contour>
    <contour>
      <point x="305" y="768" type="line"/>
      <point x="318" y="800"/>
      <point x="345" y="832"/>
      <point x="388" y="832" type="curve" smooth="yes"/>
      <point x="437" y="832"/>
      <point x="453" y="785"/>
      <point x="500" y="786" type="curve" smooth="yes"/>
      <point x="527" y="787"/>
      <point x="546" y="808"/>
      <point x="564" y="833" type="curve"/>
      <point x="582" y="817" type="line"/>
      <point x="562" y="786"/>
      <point x="533" y="759"/>
      <point x="496" y="760" type="curve" smooth="yes"/>
      <point x="449" y="760"/>
      <point x="429" y="806"/>
      <point x="387" y="806" type="curve" smooth="yes"/>
      <point x="350" y="806"/>
      <point x="333" y="779"/>
      <point x="325" y="756" type="curve"/>
    </contour>
  </outline>
</glyph>
<glyph name="Oacute" format="2">
  <advance width="755"/>
  <unicode hex="00D3"/>
  <outline>
    <contour>
      <point x="113" y="350" type="curve" smooth="yes"/>
      <point x="88" y="183"/>
      <point x="174" y="26"/>
      <point x="354" y="25" type="curve" smooth="yes"/>
      <point x="536" y="24"/>
      <point x="681" y="174"/>
      <point x="709" y="350" type="curve" smooth="yes"/>
      <point x="734" y="517"/>
      <point x="647" y="674"/>
      <point x="467" y="675" type="curve" smooth="yes"/>
      <point x="285" y="676"/>
      <point x="141" y="526"/>
    </contour>
    <contour>
      <point x="78" y="350" type="curve" smooth="yes"/>
      <point x="108" y="546"/>
      <point x="270" y="709"/>
      <point x="470" y="709" type="curve" smooth="yes"/>
      <point x="668" y="709"/>
      <point x="770" y="536"/>
      <point x="743" y="350" type="curve" smooth="yes"/>
      <point x="713" y="154"/>
      <point x="551" y="-9"/>
      <point x="351" y="-9" type="curve" smooth="yes"/>
      <point x="153" y="-9"/>
      <point x="51" y="164"/>
    </contour>
    <contour>
      <point x="636" y="922" type="line"/>
      <point x="440" y="770" type="line"/>
      <point x="423" y="782" type="line"/>
      <point x="610" y="940" type="line"/>
    </contour>
  </outline>
</glyph>
<glyph name="Ocircumflex" format="2">
  <advance width="755"/>
  <unicode hex="00D4"/>
  <outline>
    <contour>
      <point x="113" y="350" type="curve" smooth="yes"/>
      <point x="88" y="183"/>
      <point x="174" y="26"/>
      <point x="354" y="25" type="curve" smooth="yes"/>
      <point x="536" y="24"/>
      <point x="681" y="174"/>
      <point x="709" y="350" type="curve" smooth="yes"/>
      <point x="734" y="517"/>
      <point x="647" y="674"/>
      <point x="467" y="675" type="curve" smooth="yes"/>
      <point x="285" y="676"/>
      <point x="141" y="526"/>
    </contour>
    <contour>
      <point x="78" y="350" type="curve" smooth="yes"/>
      <point x="108" y="546"/>
      <point x="270" y="709"/>
      <point x="470" y="709" type="curve" smooth="yes"/>
      <point x="668" y="709"/>
      <point x="770" y="536"/>
      <point x="743" y="350" type="curve" smooth="yes"/>
      <point x="713" y="154"/>
      <point x="551" y="-9"/>
      <point x="351" y="-9" type="curve" smooth="yes"/>
      <point x="153" y="-9"/>
      <point x="51" y="164"/>
    </contour>
    <contour>
      <point x="504" y="891" type="line"/>
      <point x="347" y="769" type="line"/>
      <point x="329" y="787" type="line"/>
      <point x="508" y="925" type="line"/>
      <point x="641" y="785" type="line"/>
      <point x="619" y="769" type="line"/>
    </contour>
  </outline>
</glyph>
<glyph name="Otilde" format="2">
  <advance width="755"/>
  <unicode hex="00D5"/>
  <outline>
    <contour>
      <point x="113" y="350" type="curve" smooth="yes"/>
      <point x="88" y="183"/>
      <point x="174" y="26"/>
      <point x="354" y="25" type="curve" smooth="yes"/>
      <point x="536" y="24"/>
      <point x="681" y="174"/>
      <point x="709" y="350" type="curve" smooth="yes"/>
      <point x="734" y="517"/>
      <point x="647" y="674"/>
      <point x="467" y="675" type="curve" smooth="yes"/>
      <point x="285" y="676"/>
      <point x="141" y="526"/>
    </contour>
    <contour>
      <point x="78" y="350" type="curve" smooth="yes"/>
      <point x="108" y="546"/>
      <point x="270" y="709"/>
      <point x="470" y="709" type="curve" smooth="yes"/>
      <point x="668" y="709"/>
      <point x="770" y="536"/>
      <point x="743" y="350" type="curve" smooth="yes"/>
      <point x="713" y="154"/>
      <point x="551" y="-9"/>
      <point x="351" y="-9" type="curve" smooth="yes"/>
      <point x="153" y="-9"/>
      <point x="51" y="164"/>
    </contour>
    <contour>
      <point x="352" y="795" type="line"/>
      <point x="358" y="828"/>
      <point x="396" y="859"/>
      <point x="436" y="859" type="curve" smooth="yes"/>
      <point x="485" y="859"/>
      <point x="501" y="812"/>
      <point x="548" y="813" type="curve" smooth="yes"/>
      <point x="575" y="814"/>
      <point x="594" y="835"/>
      <point x="612" y="860" type="curve"/>
      <point x="629" y="845" type="line"/>
      <point x="609" y="814"/>
      <point x="581" y="786"/>
      <point x="544" y="787" type="curve" smooth="yes"/>
      <point x="497" y="787"/>
      <point x="477" y="833"/>
      <point x="435" y="833" type="curve" smooth="yes"/>
      <point x="398" y="833"/>
      <point x="382" y="806"/>
      <point x="373" y="783" type="curve"/>
    </contour>
  </outline>
</glyph>
<glyph name="Ugrave" format="2">
  <advance width="572"/>
  <unicode hex="00D9"/>
  <outline>
    <contour>
      <point x="172" y="700" type="line"/>
      <point x="205" y="700" type="line"/>
      <point x="123" y="223" type="line" smooth="yes"/>
      <point x="109" y="116"/>
      <point x="147" y="24"/>
      <point x="262" y="23" type="curve" smooth="yes"/>
      <point x="377" y="22"/>
      <point x="453" y="111"/>
      <point x="472" y="223" type="curve"/>
      <point x="554" y="700" type="line"/>
      <point x="588" y="700" type="line"/>
      <point x="506" y="223" type="line" smooth="yes"/>
      <point x="484" y="94"/>
      <point x="397" y="-10"/>
      <point x="260" y="-10" type="curve" smooth="yes"/>
      <point x="124" y="-10"/>
      <point x="74" y="99"/>
      <point x="90" y="223" type="curve"/>
    </contour>
    <contour>
      <point x="287" y="924" type="line"/>
      <point x="317" y="941" type="line"/>
      <point x="450" y="781" type="line"/>
      <point x="433" y="769" type="line"/>
    </contour>
  </outline>
</glyph>
<glyph name="Ucircumflex" format="2">
  <advance width="572"/>
  <unicode hex="00DB"/>
  <outline>
    <contour>
      <point x="172" y="700" type="line"/>
      <point x="205" y="700" type="line"/>
      <point x="123" y="223" type="line" smooth="yes"/>
      <point x="109" y="116"/>
      <point x="147" y="24"/>
      <point x="262" y="23" type="curve" smooth="yes"/>
      <point x="377" y="22"/>
      <point x="453" y="111"/>
      <point x="472" y="223" type="curve"/>
      <point x="554" y="700" type="line"/>
      <point x="588" y="700" type="line"/>
      <point x="506" y="223" type="line" smooth="yes"/>
      <point x="484" y="94"/>
      <point x="397" y="-10"/>
      <point x="260" y="-10" type="curve" smooth="yes"/>
      <point x="124" y="-10"/>
      <point x="74" y="99"/>
      <point x="90" y="223" type="curve"/>
    </contour>
    <contour>
      <point x="413" y="891" type="line"/>
      <point x="255" y="769" type="line"/>
      <point x="238" y="787" type="line"/>
      <point x="417" y="925" type="line"/>
      <point x="550" y="785" type="line"/>
      <point x="528" y="769" type="line"/>
    </contour>
  </outline>
</glyph>
<glyph name="atilde" format="2">
  <advance width="533"/>
  <unicode hex="00E3"/>
  <outline>
    <contour>
      <point x="481" y="460" type="line"/>
      <point x="511" y="460" type="line"/>
      <point x="431" y="0" type="line"/>
      <point x="403" y="0" type="line"/>
    </contour>
    <contour>
      <point x="52" y="230" type="curve" smooth="yes"/>
      <point x="71" y="363"/>
      <point x="176" y="471"/>
      <point x="304" y="470" type="curve" smooth="yes"/>
      <point x="428" y="469"/>
      <point x="471" y="342"/>
      <point x="455" y="230" type="curve" smooth="yes"/>
      <point x="437" y="110"/>
      <point x="348" y="-10"/>
      <point x="224" y="-10" type="curve" smooth="yes"/>
      <point x="97" y="-10"/>
      <point x="35" y="104"/>
    </contour>
    <contour>
      <point x="84" y="230" type="curve" smooth="yes"/>
      <point x="68" y="120"/>
      <point x="120" y="19"/>
      <point x="232" y="20" type="curve" smooth="yes"/>
      <point x="336" y="21"/>
      <point x="424" y="125"/>
      <point x="441" y="230" type="curve" smooth="yes"/>
      <point x="455" y="327"/>
      <point x="409" y="438"/>
      <point x="306" y="440" type="curve" smooth="yes"/>
      <point x="194" y="442"/>
      <point x="102" y="346"/>
    </contour>
    <contour>
      <point x="191" y="557" type="line"/>
      <point x="192" y="589"/>
      <point x="239" y="621"/>
      <point x="274" y="621" type="curve" smooth="yes"/>
      <point x="323" y="621"/>
      <point x="340" y="574"/>
      <point x="387" y="575" type="curve" smooth="yes"/>
      <point x="414" y="576"/>
      <point x="432" y="597"/>
      <point x="450" y="622" type="curve"/>
      <point x="469" y="606" type="line"/>
      <point x="449" y="575"/>
      <point x="420" y="547"/>
      <point x="383" y="548" type="curve" smooth="yes"/>
      <point x="336" y="548"/>
      <point x="315" y="595"/>
      <point x="273" y="594" type="curve" smooth="yes"/>
      <point x="237" y="593"/>
      <point x="222" y="566"/>
      <point x="213" y="544" type="curve"/>
    </contour>
  </outline>
</glyph>
<glyph name="ae" format="2">
  <advance width="800"/>
  <unicode hex="00E6"/>
  <outline>
    <contour>
      <point x="62" y="133" type="curve" smooth="yes"/>
      <point x="51" y="70"/>
      <point x="90" y="19"/>
      <point x="167" y="19" type="curve" smooth="yes"/>
      <point x="256" y="19"/>
      <point x="329" y="89"/>
      <point x="344" y="170" type="curve"/>
      <point x="361" y="154" type="line"/>
      <point x="345" y="68"/>
      <point x="264" y="-10"/>
      <point x="165" y="-10" type="curve" smooth="yes"/>
      <point x="71" y="-10"/>
      <point x="17" y="50"/>
      <point x="30" y="130" type="curve" smooth="yes"/>
      <point x="45" y="226"/>
      <point x="137" y="282"/>
      <point x="238" y="282" type="curve" smooth="yes"/>
      <point x="302" y="282"/>
      <point x="343" y="256"/>
      <point x="366" y="232" type="curve"/>
      <point x="363" y="211" type="line"/>
      <point x="334" y="237"/>
      <point x="293" y="256"/>
      <point x="238" y="256" type="curve" smooth="yes"/>
      <point x="151" y="256"/>
      <point x="75" y="210"/>
    </contour>
    <contour>
      <point x="128" y="382" type="curve"/>
      <point x="115" y="407" type="line"/>
      <point x="157" y="437"/>
      <point x="213" y="472"/>
      <point x="286" y="470" type="curve" smooth="yes"/>
      <point x="372" y="468"/>
      <point x="404" y="404"/>
      <point x="394" y="330" type="curve"/>
      <point x="365" y="152" type="line"/>
      <point x="341" y="152" type="line"/>
      <point x="370" y="320" type="line"/>
      <point x="379" y="380"/>
      <point x="355" y="439"/>
      <point x="281" y="441" type="curve" smooth="yes"/>
      <point x="216" y="443"/>
      <point x="166" y="408"/>
    </contour>
    <contour>
      <point x="375" y="223" type="line"/>
      <point x="379" y="250" type="line"/>
      <point x="769" y="250" type="line"/>
      <point x="774" y="223" type="line"/>
    </contour>
    <contour>
      <point x="747" y="250" type="line" smooth="yes"/>
      <point x="762" y="352"/>
      <point x="708" y="441"/>
      <point x="610" y="442" type="curve" smooth="yes"/>
      <point x="493" y="443"/>
      <point x="410" y="348"/>
      <point x="388" y="243" type="curve"/>
      <point x="385" y="233" type="line"/>
      <point x="372" y="126"/>
      <point x="413" y="22"/>
      <point x="524" y="20" type="curve" smooth="yes"/>
      <point x="617" y="19"/>
      <point x="677" y="68"/>
      <point x="726" y="123" type="curve"/>
      <point x="749" y="106" type="line"/>
      <point x="692" y="40"/>
      <point x="626" y="-12"/>
      <point x="519" y="-10" type="curve" smooth="yes"/>
      <point x="397" y="-8"/>
      <point x="337" y="110"/>
      <point x="356" y="230" type="curve" smooth="yes"/>
      <point x="359" y="247"/>
      <point x="366" y="263"/>
      <point x="372" y="279" type="curve" smooth="yes"/>
      <point x="409" y="384"/>
      <point x="496" y="471"/>
      <point x="618" y="470" type="curve" smooth="yes"/>
      <point x="722" y="469"/>
      <point x="796" y="368"/>
      <point x="780" y="247" type="curve" smooth="yes"/>
      <point x="779" y="239"/>
      <point x="776" y="231"/>
      <point x="774" y="223" type="curve"/>
      <point x="744" y="230" type="line"/>
    </contour>
  </outline>
</glyph>
<glyph name="igrave" format="2">
  <advance width="204"/>
  <unicode hex="00EC"/>
  <outline>
    <contour>
      <point x="139" y="460" type="line"/>
      <point x="170" y="460" type="line"/>
      <point x="90" y="0" type="line"/>
      <point x="60" y="0" type="line"/>
    </contour>
    <contour>
      <point x="41" y="691" type="line"/>
      <point x="71" y="708" type="line"/>
      <point x="204" y="548" type="line"/>
      <point x="185" y="536" type="line"/>
    </contour>
  </outline>
</glyph>
<glyph name="idieresis" format="2">
  <advance width="204"/>
  <unicode hex="00EF"/>
  <outline>
    <contour>
      <point x="139" y="460" type="line"/>
      <point x="170" y="460" type="line"/>
      <point x="90" y="0" type="line"/>
      <point x="60" y="0" type="line"/>
    </contour>
    <contour>
      <point x="231" y="564" type="curve" smooth="yes"/>
      <point x="232" y="576"/>
      <point x="247" y="588"/>
      <point x="259" y="588" type="curve" smooth="yes"/>
      <point x="272" y="588"/>
      <point x="280" y="576"/>
      <point x="279" y="563" type="curve" smooth="yes"/>
      <point x="278" y="551"/>
      <point x="264" y="539"/>
      <point x="252" y="539" type="curve" smooth="yes"/>
      <point x="239" y="539"/>
      <point x="230" y="551"/>
    </contour>
    <contour>
      <point x="64" y="564" type="curve" smooth="yes"/>
      <point x="65" y="576"/>
      <point x="80" y="588"/>
      <point x="92" y="588" type="curve" smooth="yes"/>
      <point x="105" y="588"/>
      <point x="113" y="576"/>
      <point x="112" y="563" type="curve" smooth="yes"/>
      <point x="111" y="551"/>
      <point x="96" y="539"/>
      <point x="84" y="539" type="curve" smooth="yes"/>
      <point x="71" y="539"/>
      <point x="63" y="551"/>
    </contour>
  </outline>
</glyph>
<glyph name="eth" format="2">
  <advance width="531"/>
  <unicode hex="00F0"/>
  <outline>
    <contour>
      <point x="464" y="223" type="curve" smooth="yes"/>
      <point x="480" y="322"/>
      <point x="421" y="417"/>
      <point x="304" y="417" type="curve" smooth="yes"/>
      <point x="200" y="417"/>
      <point x="107" y="326"/>
      <point x="90" y="223" type="curve" smooth="yes"/>
      <point x="74" y="119"/>
      <point x="128" y="21"/>
      <point x="241" y="21" type="curve" smooth="yes"/>
      <point x="357" y="21"/>
      <point x="447" y="115"/>
    </contour>
    <contour>
      <point x="304" y="700" type="line"/>
      <point x="470" y="378" type="line" smooth="yes"/>
      <point x="491" y="334"/>
      <point x="503" y="277"/>
      <point x="495" y="223" type="curve" smooth="yes"/>
      <point x="476" y="94"/>
      <point x="373" y="-10"/>
      <point x="239" y="-10" type="curve" smooth="yes"/>
      <point x="106" y="-10"/>
      <point x="41" y="100"/>
      <point x="59" y="224" type="curve" smooth="yes"/>
      <point x="78" y="340"/>
      <point x="179" y="443"/>
      <point x="297" y="443" type="curve" smooth="yes"/>
      <point x="358" y="443"/>
      <point x="404" y="418"/>
      <point x="438" y="373" type="curve"/>
      <point x="436" y="372" type="line"/>
      <point x="265" y="700" type="line"/>
    </contour>
    <contour>
      <point x="212" y="558" type="line"/>
      <point x="216" y="585" type="line"/>
      <point x="487" y="585" type="line"/>
      <point x="483" y="558" type="line"/>
    </contour>
  </outline>
</glyph>
<glyph name="ograve" format="2">
  <advance width="535"/>
  <unicode hex="00F2"/>
  <outline>
    <contour>
      <point x="52" y="230" type="curve" smooth="yes"/>
      <point x="72" y="361"/>
      <point x="186" y="470"/>
      <point x="320" y="470" type="curve" smooth="yes"/>
      <point x="453" y="470"/>
      <point x="527" y="356"/>
      <point x="509" y="230" type="curve" smooth="yes"/>
      <point x="489" y="99"/>
      <point x="375" y="-10"/>
      <point x="241" y="-10" type="curve" smooth="yes"/>
      <point x="108" y="-10"/>
      <point x="34" y="104"/>
    </contour>
    <contour>
      <point x="84" y="230" type="curve" smooth="yes"/>
      <point x="67" y="121"/>
      <point x="128" y="20"/>
      <point x="243" y="20" type="curve" smooth="yes"/>
      <point x="360" y="20"/>
      <point x="459" y="115"/>
      <point x="477" y="230" type="curve" smooth="yes"/>
      <point x="494" y="339"/>
      <point x="433" y="440"/>
      <point x="318" y="440" type="curve" smooth="yes"/>
      <point x="201" y="440"/>
      <point x="102" y="345"/>
    </contour>
    <contour>
      <point x="219" y="691" type="line"/>
      <point x="250" y="708" type="line"/>
      <point x="383" y="548" type="line"/>
      <point x="365" y="536" type="line"/>
    </contour>
  </outline>
</glyph>
<glyph name="ocircumflex" format="2">
  <advance width="535"/>
  <unicode hex="00F4"/>
  <outline>
    <contour>
      <point x="52" y="230" type="curve" smooth="yes"/>
      <point x="72" y="361"/>
      <point x="186" y="470"/>
      <point x="320" y="470" type="curve" smooth="yes"/>
      <point x="453" y="470"/>
      <point x="527" y="356"/>
      <point x="509" y="230" type="curve" smooth="yes"/>
      <point x="489" y="99"/>
      <point x="375" y="-10"/>
      <point x="241" y="-10" type="curve" smooth="yes"/>
      <point x="108" y="-10"/>
      <point x="34" y="104"/>
    </contour>
    <contour>
      <point x="84" y="230" type="curve" smooth="yes"/>
      <point x="67" y="121"/>
      <point x="128" y="20"/>
      <point x="243" y="20" type="curve" smooth="yes"/>
      <point x="360" y="20"/>
      <point x="459" y="115"/>
      <point x="477" y="230" type="curve" smooth="yes"/>
      <point x="494" y="339"/>
      <point x="433" y="440"/>
      <point x="318" y="440" type="curve" smooth="yes"/>
      <point x="201" y="440"/>
      <point x="102" y="345"/>
    </contour>
    <contour>
      <point x="357" y="672" type="line"/>
      <point x="200" y="551" type="line"/>
      <point x="182" y="568" type="line"/>
      <point x="361" y="707" type="line"/>
      <point x="494" y="567" type="line"/>
      <point x="472" y="550" type="line"/>
    </contour>
  </outline>
</glyph>
<glyph name="divide" format="2">
  <advance width="604"/>
  <unicode hex="00F7"/>
  <outline>
    <contour>
      <point x="327" y="451" type="curve" smooth="yes"/>
      <point x="328" y="463"/>
      <point x="342" y="475"/>
      <point x="354" y="475" type="curve" smooth="yes"/>
      <point x="367" y="475"/>
      <point x="376" y="463"/>
      <point x="375" y="450" type="curve" smooth="yes"/>
      <point x="374" y="438"/>
      <point x="359" y="426"/>
      <point x="347" y="426" type="curve" smooth="yes"/>
      <point x="334" y="426"/>
      <point x="326" y="438"/>
    </contour>
    <contour>
      <point x="257" y="43" type="curve" smooth="yes"/>
      <point x="258" y="55"/>
      <point x="273" y="67"/>
      <point x="285" y="67" type="curve" smooth="yes"/>
      <point x="298" y="67"/>
      <point x="306" y="56"/>
      <point x="305" y="43" type="curve" smooth="yes"/>
      <point x="304" y="31"/>
      <point x="290" y="19"/>
      <point x="278" y="19" type="curve" smooth="yes"/>
      <point x="265" y="19"/>
      <point x="256" y="30"/>
    </contour>
    <contour>
      <point x="71" y="232" type="line"/>
      <point x="76" y="263" type="line"/>
      <point x="562" y="263" type="line"/>
      <point x="556" y="232" type="line"/>
    </contour>
  </outline>
</glyph>
<glyph name="oslash" format="2">
  <advance width="529"/>
  <unicode hex="00F8"/>
  <outline>
    <contour>
      <point x="52" y="230" type="curve" smooth="yes"/>
      <point x="72" y="361"/>
      <point x="186" y="470"/>
      <point x="320" y="470" type="curve" smooth="yes"/>
      <point x="453" y="470"/>
      <point x="527" y="356"/>
      <point x="509" y="230" type="curve" smooth="yes"/>
      <point x="489" y="99"/>
      <point x="375" y="-10"/>
      <point x="241" y="-10" type="curve" smooth="yes"/>
      <point x="108" y="-10"/>
      <point x="34" y="104"/>
    </contour>
    <contour>
      <point x="84" y="230" type="curve" smooth="yes"/>
      <point x="67" y="121"/>
      <point x="128" y="20"/>
      <point x="243" y="20" type="curve" smooth="yes"/>
      <point x="360" y="20"/>
      <point x="459" y="115"/>
      <point x="477" y="230" type="curve" smooth="yes"/>
      <point x="494" y="339"/>
      <point x="433" y="440"/>
      <point x="318" y="440" type="curve" smooth="yes"/>
      <point x="201" y="440"/>
      <point x="102" y="345"/>
    </contour>
    <contour>
      <point x="496" y="494" type="line"/>
      <point x="515" y="484" type="line"/>
      <point x="47" y="-38" type="line"/>
      <point x="28" y="-28" type="line"/>
    </contour>
  </outline>
</glyph>
<glyph name="udieresis" format="2">
  <advance width="474"/>
  <unicode hex="00FC"/>
  <outline>
    <contour>
      <point x="338" y="0" type="line"/>
      <point x="417" y="460" type="line"/>
      <point x="449" y="460" type="line"/>
      <point x="369" y="0" type="line"/>
    </contour>
    <contour>
      <point x="110" y="159" type="line" smooth="yes"/>
      <point x="101" y="86"/>
      <point x="115" y="21"/>
      <point x="197" y="20" type="curve" smooth="yes"/>
      <point x="286" y="19"/>
      <point x="351" y="99"/>
      <point x="370" y="179" type="curve"/>
      <point x="385" y="179" type="line"/>
      <point x="365" y="81"/>
      <point x="290" y="-11"/>
      <point x="188" y="-10" type="curve" smooth="yes"/>
      <point x="91" y="-10"/>
      <point x="68" y="67"/>
      <point x="79" y="156" type="curve"/>
      <point x="131" y="460" type="line"/>
      <point x="162" y="460" type="line"/>
    </contour>
    <contour>
      <point x="368" y="575" type="curve" smooth="yes"/>
      <point x="369" y="587"/>
      <point x="384" y="599"/>
      <point x="396" y="599" type="curve" smooth="yes"/>
      <point x="409" y="598"/>
      <point x="417" y="587"/>
      <point x="416" y="574" type="curve" smooth="yes"/>
      <point x="415" y="562"/>
      <point x="401" y="550"/>
      <point x="389" y="550" type="curve" smooth="yes"/>
      <point x="376" y="550"/>
      <point x="367" y="562"/>
    </contour>
    <contour>
      <point x="201" y="575" type="curve" smooth="yes"/>
      <point x="202" y="587"/>
      <point x="217" y="599"/>
      <point x="229" y="599" type="curve" smooth="yes"/>
      <point x="242" y="598"/>
      <point x="250" y="587"/>
      <point x="249" y="574" type="curve" smooth="yes"/>
      <point x="248" y="562"/>
      <point x="234" y="550"/>
      <point x="222" y="550" type="curve" smooth="yes"/>
      <point x="209" y="550"/>
      <point x="200" y="562"/>
    </contour>
  </outline>
</glyph>
<glyph name="ydieresis" format="2">
  <advance width="416"/>
  <unicode hex="00FF"/>
  <outline>
    <contour>
      <point x="463" y="460" type="line"/>
      <point x="54" y="-220" type="line"/>
      <point x="19" y="-219" type="line"/>
      <point x="173" y="35" type="line"/>
      <point x="58" y="460" type="line"/>
      <point x="95" y="460" type="line"/>
      <point x="201" y="44" type="line"/>
      <point x="183" y="46" type="line"/>
      <point x="428" y="460" type="line"/>
    </contour>
    <contour>
      <point x="338" y="569" type="curve" smooth="yes"/>
      <point x="339" y="581"/>
      <point x="353" y="593"/>
      <point x="365" y="593" type="curve" smooth="yes"/>
      <point x="378" y="593"/>
      <point x="387" y="581"/>
      <point x="386" y="568" type="curve" smooth="yes"/>
      <point x="385" y="556"/>
      <point x="370" y="544"/>
      <point x="358" y="544" type="curve" smooth="yes"/>
      <point x="345" y="545"/>
      <point x="337" y="556"/>
    </contour>
    <contour>
      <point x="171" y="569" type="curve" smooth="yes"/>
      <point x="172" y="581"/>
      <point x="186" y="593"/>
      <point x="198" y="593" type="curve" smooth="yes"/>
      <point x="211" y="593"/>
      <point x="220" y="581"/>
      <point x="219" y="568" type="curve" smooth="yes"/>
      <point x="218" y="556"/>
      <point x="203" y="544"/>
      <point x="191" y="544" type="curve" smooth="yes"/>
      <point x="178" y="545"/>
      <point x="170" y="556"/>
    </contour>
  </outline>
</glyph>
<glyph name="Abreve" format="2">
  <advance width="599"/>
  <unicode hex="0102"/>
  <outline>
    <contour>
      <point x="145" y="253" type="line"/>
      <point x="159" y="284" type="line"/>
      <point x="484" y="284" type="line"/>
      <point x="488" y="253" type="line"/>
    </contour>
    <contour>
      <point x="384" y="643" type="line"/>
      <point x="175" y="273" type="line"/>
      <point x="171" y="265" type="line"/>
      <point x="21" y="0" type="line"/>
      <point x="-17" y="0" type="line"/>
      <point x="396" y="722" type="line"/>
      <point x="561" y="0" type="line"/>
      <point x="525" y="0" type="line"/>
      <point x="468" y="263" type="line"/>
      <point x="466" y="271" type="line"/>
    </contour>
    <contour>
      <point x="278" y="928" type="curve"/>
      <point x="306" y="928" type="line"/>
      <point x="301" y="871"/>
      <point x="334" y="815"/>
      <point x="411" y="815" type="curve" smooth="yes"/>
      <point x="491" y="815"/>
      <point x="539" y="871"/>
      <point x="557" y="927" type="curve"/>
      <point x="585" y="927" type="line"/>
      <point x="565" y="855"/>
      <point x="506" y="789"/>
      <point x="409" y="789" type="curve" smooth="yes"/>
      <point x="313" y="789"/>
      <point x="271" y="855"/>
    </contour>
  </outline>
</glyph>
<glyph name="Aogonek" format="2">
  <advance width="599"/>
  <unicode hex="0104"/>
  <outline>
    <contour>
      <point x="147" y="253" type="line"/>
      <point x="160" y="284" type="line"/>
      <point x="484" y="284" type="line"/>
      <point x="488" y="253" type="line"/>
    </contour>
    <contour>
      <point x="384" y="643" type="line"/>
      <point x="175" y="273" type="line"/>
      <point x="171" y="265" type="line"/>
      <point x="21" y="0" type="line"/>
      <point x="-17" y="0" type="line"/>
      <point x="396" y="722" type="line"/>
      <point x="561" y="0" type="line"/>
      <point x="525" y="0" type="line"/>
      <point x="468" y="263" type="line"/>
      <point x="466" y="271" type="line"/>
    </contour>
    <contour>
      <point x="558" y="-160" type="curve"/>
      <point x="570" y="-181" type="line"/>
      <point x="547" y="-201"/>
      <point x="511" y="-220"/>
      <point x="471" y="-220" type="curve" smooth="yes"/>
      <point x="410" y="-220"/>
      <point x="371" y="-186"/>
      <point x="379" y="-133" type="curve" smooth="yes"/>
      <point x="390" y="-61"/>
      <point x="478" y="-19"/>
      <point x="546" y="14" type="curve"/>
      <point x="562" y="0" type="line"/>
      <point x="503" y="-28"/>
      <point x="420" y="-68"/>
      <point x="411" y="-128" type="curve" smooth="yes"/>
      <point x="406" y="-168"/>
      <point x="436" y="-190"/>
      <point x="476" y="-191" type="curve" smooth="yes"/>
      <point x="509" y="-192"/>
      <point x="538" y="-175"/>
    </contour>
  </outline>
</glyph>
<glyph name="ccircumflex" format="2">
  <advance width="469"/>
  <unicode hex="0109"/>
  <outline>
    <contour>
      <point x="79" y="230" type="curve" smooth="yes"/>
      <point x="62" y="121"/>
      <point x="124" y="21"/>
      <point x="239" y="20" type="curve" smooth="yes"/>
      <point x="308" y="20"/>
      <point x="367" y="54"/>
      <point x="403" y="87" type="curve"/>
      <point x="397" y="48" type="line"/>
      <point x="359" y="17"/>
      <point x="301" y="-10"/>
      <point x="236" y="-10" type="curve" smooth="yes"/>
      <point x="103" y="-10"/>
      <point x="29" y="104"/>
      <point x="47" y="230" type="curve" smooth="yes"/>
      <point x="67" y="362"/>
      <point x="180" y="470"/>
      <point x="315" y="470" type="curve" smooth="yes"/>
      <point x="376" y="470"/>
      <point x="429" y="445"/>
      <point x="459" y="412" type="curve"/>
      <point x="453" y="372" type="line"/>
      <point x="428" y="409"/>
      <point x="377" y="440"/>
      <point x="313" y="440" type="curve" smooth="yes"/>
      <point x="196" y="440"/>
      <point x="98" y="345"/>
    </contour>
    <contour>
      <point x="349" y="652" type="line"/>
      <point x="191" y="531" type="line"/>
      <point x="174" y="548" type="line"/>
      <point x="353" y="687" type="line"/>
      <point x="485" y="547" type="line"/>
      <point x="464" y="530" type="line"/>
    </contour>
  </outline>
</glyph>
<glyph name="Cdotaccent" format="2">
  <advance width="664"/>
  <unicode hex="010A"/>
  <outline>
    <contour>
      <point x="113" y="350" type="curve" smooth="yes"/>
      <point x="88" y="184"/>
      <point x="173" y="28"/>
      <point x="348" y="26" type="curve" smooth="yes"/>
      <point x="443" y="25"/>
      <point x="519" y="61"/>
      <point x="583" y="115" type="curve"/>
      <point x="576" y="70" type="line"/>
      <point x="510" y="21"/>
      <point x="439" y="-8"/>
      <point x="345" y="-8" type="curve" smooth="yes"/>
      <point x="149" y="-7"/>
      <point x="51" y="164"/>
      <point x="78" y="350" type="curve" smooth="yes"/>
      <point x="108" y="546"/>
      <point x="266" y="708"/>
      <point x="464" y="709" type="curve" smooth="yes"/>
      <point x="553" y="709"/>
      <point x="616" y="683"/>
      <point x="671" y="630" type="curve"/>
      <point x="663" y="585" type="line"/>
      <point x="614" y="644"/>
      <point x="546" y="674"/>
      <point x="461" y="674" type="curve" smooth="yes"/>
      <point x="284" y="673"/>
      <point x="141" y="527"/>
    </contour>
    <contour>
      <point x="457" y="800" type="curve" smooth="yes"/>
      <point x="458" y="812"/>
      <point x="473" y="824"/>
      <point x="485" y="824" type="curve" smooth="yes"/>
      <point x="498" y="824"/>
      <point x="506" y="813"/>
      <point x="505" y="800" type="curve" smooth="yes"/>
      <point x="504" y="788"/>
      <point x="489" y="776"/>
      <point x="477" y="776" type="curve" smooth="yes"/>
      <point x="464" y="776"/>
      <point x="456" y="787"/>
    </contour>
  </outline>
</glyph>
<glyph name="cdotaccent" format="2">
  <advance width="469"/>
  <unicode hex="010B"/>
  <outline>
    <contour>
      <point x="79" y="230" type="curve" smooth="yes"/>
      <point x="62" y="121"/>
      <point x="124" y="21"/>
      <point x="239" y="20" type="curve" smooth="yes"/>
      <point x="308" y="20"/>
      <point x="367" y="54"/>
      <point x="403" y="87" type="curve"/>
      <point x="397" y="48" type="line"/>
      <point x="359" y="17"/>
      <point x="301" y="-10"/>
      <point x="236" y="-10" type="curve" smooth="yes"/>
      <point x="103" y="-10"/>
      <point x="29" y="104"/>
      <point x="47" y="230" type="curve" smooth="yes"/>
      <point x="67" y="362"/>
      <point x="180" y="470"/>
      <point x="315" y="470" type="curve" smooth="yes"/>
      <point x="376" y="470"/>
      <point x="429" y="445"/>
      <point x="459" y="412" type="curve"/>
      <point x="453" y="372" type="line"/>
      <point x="428" y="409"/>
      <point x="377" y="440"/>
      <point x="313" y="440" type="curve" smooth="yes"/>
      <point x="196" y="440"/>
      <point x="98" y="345"/>
    </contour>
    <contour>
      <point x="308" y="562" type="curve" smooth="yes"/>
      <point x="309" y="574"/>
      <point x="324" y="586"/>
      <point x="336" y="586" type="curve" smooth="yes"/>
      <point x="349" y="586"/>
      <point x="357" y="574"/>
      <point x="356" y="561" type="curve" smooth="yes"/>
      <point x="355" y="549"/>
      <point x="340" y="537"/>
      <point x="328" y="537" type="curve" smooth="yes"/>
      <point x="315" y="537"/>
      <point x="307" y="549"/>
    </contour>
  </outline>
</glyph>
<glyph name="Dcaron" format="2">
  <advance width="629"/>
  <unicode hex="010E"/>
  <outline>
    <contour>
      <point x="176" y="700" type="line"/>
      <point x="210" y="700" type="line"/>
      <point x="90" y="0" type="line"/>
      <point x="57" y="0" type="line"/>
    </contour>
    <contour>
      <point x="229" y="0" type="curve"/>
      <point x="74" y="0" type="line"/>
      <point x="80" y="34" type="line"/>
      <point x="232" y="34" type="line"/>
      <point x="418" y="37"/>
      <point x="555" y="169"/>
      <point x="584" y="350" type="curve" smooth="yes"/>
      <point x="611" y="522"/>
      <point x="525" y="662"/>
      <point x="342" y="666" type="curve"/>
      <point x="188" y="666" type="line"/>
      <point x="194" y="700" type="line"/>
      <point x="345" y="700" type="line"/>
      <point x="546" y="696"/>
      <point x="645" y="540"/>
      <point x="617" y="350" type="curve" smooth="yes"/>
      <point x="586" y="151"/>
      <point x="433" y="3"/>
    </contour>
    <contour>
      <point x="424" y="824" type="line"/>
      <point x="581" y="946" type="line"/>
      <point x="600" y="928" type="line"/>
      <point x="421" y="790" type="line"/>
      <point x="288" y="930" type="line"/>
      <point x="310" y="947" type="line"/>
    </contour>
  </outline>
</glyph>
<glyph name="dcroat" format="2">
  <advance width="533"/>
  <unicode hex="0111"/>
  <outline>
    <contour>
      <point x="368" y="635" type="line"/>
      <point x="372" y="665" type="line"/>
      <point x="664" y="665" type="line"/>
      <point x="659" y="635" type="line"/>
    </contour>
    <contour>
      <point x="534" y="780" type="line"/>
      <point x="566" y="780" type="line"/>
      <point x="431" y="0" type="line"/>
      <point x="401" y="0" type="line"/>
    </contour>
    <contour>
      <point x="52" y="230" type="curve" smooth="yes"/>
      <point x="71" y="364"/>
      <point x="176" y="471"/>
      <point x="304" y="470" type="curve" smooth="yes"/>
      <point x="425" y="469"/>
      <point x="471" y="345"/>
      <point x="455" y="230" type="curve" smooth="yes"/>
      <point x="437" y="107"/>
      <point x="345" y="-10"/>
      <point x="224" y="-10" type="curve" smooth="yes"/>
      <point x="97" y="-10"/>
      <point x="34" y="103"/>
    </contour>
    <contour>
      <point x="84" y="230" type="curve" smooth="yes"/>
      <point x="68" y="120"/>
      <point x="121" y="19"/>
      <point x="232" y="20" type="curve" smooth="yes"/>
      <point x="338" y="21"/>
      <point x="424" y="128"/>
      <point x="441" y="230" type="curve" smooth="yes"/>
      <point x="455" y="324"/>
      <point x="411" y="438"/>
      <point x="306" y="440" type="curve" smooth="yes"/>
      <point x="195" y="442"/>
      <point x="102" y="346"/>
    </contour>
  </outline>
</glyph>
<glyph name="Ebreve" format="2">
  <advance width="505"/>
  <unicode hex="0114"/>
  <outline>
    <contour>
      <point x="73" y="0" type="line"/>
      <point x="78" y="31" type="line"/>
      <point x="411" y="31" type="line"/>
      <point x="406" y="0" type="line"/>
    </contour>
    <contour>
      <point x="187" y="669" type="line"/>
      <point x="192" y="700" type="line"/>
      <point x="525" y="700" type="line"/>
      <point x="520" y="669" type="line"/>
    </contour>
    <contour>
      <point x="136" y="371" type="line"/>
      <point x="141" y="402" type="line"/>
      <point x="455" y="402" type="line"/>
      <point x="449" y="371" type="line"/>
    </contour>
    <contour>
      <point x="176" y="700" type="line"/>
      <point x="210" y="700" type="line"/>
      <point x="90" y="0" type="line"/>
      <point x="57" y="0" type="line"/>
    </contour>
    <contour>
      <point x="239" y="909" type="curve"/>
      <point x="267" y="908" type="line"/>
      <point x="262" y="851"/>
      <point x="295" y="796"/>
      <point x="372" y="796" type="curve" smooth="yes"/>
      <point x="452" y="796"/>
      <point x="500" y="852"/>
      <point x="518" y="908" type="curve"/>
      <point x="547" y="908" type="line"/>
      <point x="527" y="836"/>
      <point x="467" y="769"/>
      <point x="370" y="769" type="curve" smooth="yes"/>
      <point x="274" y="769"/>
      <point x="232" y="836"/>
    </contour>
  </outline>
</glyph>
<glyph name="Edotaccent" format="2">
  <advance width="505"/>
  <unicode hex="0116"/>
  <outline>
    <contour>
      <point x="73" y="0" type="line"/>
      <point x="78" y="31" type="line"/>
      <point x="411" y="31" type="line"/>
      <point x="406" y="0" type="line"/>
    </contour>
    <contour>
      <point x="187" y="669" type="line"/>
      <point x="192" y="700" type="line"/>
      <point x="525" y="700" type="line"/>
      <point x="520" y="669" type="line"/>
    </contour>
    <contour>
      <point x="136" y="371" type="line"/>
      <point x="141" y="402" type="line"/>
      <point x="455" y="402" type="line"/>
      <point x="449" y="371" type="line"/>
    </contour>
    <contour>
      <point x="176" y="700" type="line"/>
      <point x="210" y="700" type="line"/>
      <point x="90" y="0" type="line"/>
      <point x="57" y="0" type="line"/>
    </contour>
    <contour>
      <point x="343" y="793" type="curve" smooth="yes"/>
      <point x="344" y="805"/>
      <point x="358" y="817"/>
      <point x="370" y="817" type="curve" smooth="yes"/>
      <point x="383" y="817"/>
      <point x="392" y="806"/>
      <point x="391" y="793" type="curve" smooth="yes"/>
      <point x="390" y="781"/>
      <point x="375" y="769"/>
      <point x="363" y="769" type="curve" smooth="yes"/>
      <point x="350" y="769"/>
      <point x="342" y="780"/>
    </contour>
  </outline>
</glyph>
<glyph name="eogonek" format="2">
  <advance width="490"/>
  <unicode hex="0119"/>
  <outline>
    <contour>
      <point x="76" y="223" type="line"/>
      <point x="80" y="250" type="line"/>
      <point x="436" y="250" type="line"/>
      <point x="452" y="344"/>
      <point x="404" y="440"/>
      <point x="301" y="441" type="curve" smooth="yes"/>
      <point x="196" y="442"/>
      <point x="108" y="351"/>
      <point x="90" y="241" type="curve"/>
      <point x="88" y="232" type="line"/>
      <point x="76" y="126"/>
      <point x="120" y="21"/>
      <point x="229" y="20" type="curve" smooth="yes"/>
      <point x="319" y="19"/>
      <point x="374" y="72"/>
      <point x="417" y="123" type="curve"/>
      <point x="440" y="106" type="line"/>
      <point x="391" y="48"/>
      <point x="330" y="-11"/>
      <point x="223" y="-10" type="curve" smooth="yes"/>
      <point x="99" y="-9"/>
      <point x="42" y="110"/>
      <point x="57" y="231" type="curve" smooth="yes"/>
      <point x="61" y="255"/>
      <point x="66" y="277"/>
      <point x="75" y="299" type="curve" smooth="yes"/>
      <point x="112" y="393"/>
      <point x="198" y="470"/>
      <point x="303" y="470" type="curve" smooth="yes"/>
      <point x="420" y="469"/>
      <point x="484" y="364"/>
      <point x="470" y="248" type="curve" smooth="yes"/>
      <point x="469" y="240"/>
      <point x="466" y="231"/>
      <point x="464" y="223" type="curve"/>
    </contour>
    <contour>
      <point x="238" y="-163" type="curve"/>
      <point x="250" y="-184" type="line"/>
      <point x="227" y="-204"/>
      <point x="192" y="-222"/>
      <point x="152" y="-222" type="curve" smooth="yes"/>
      <point x="91" y="-222"/>
      <point x="52" y="-189"/>
      <point x="59" y="-136" type="curve" smooth="yes"/>
      <point x="69" y="-64"/>
      <point x="156" y="-26"/>
      <point x="223" y="7" type="curve"/>
      <point x="240" y="-7" type="line"/>
      <point x="181" y="-35"/>
      <point x="98" y="-70"/>
      <point x="90" y="-131" type="curve" smooth="yes"/>
      <point x="86" y="-171"/>
      <point x="116" y="-193"/>
      <point x="156" y="-194" type="curve" smooth="yes"/>
      <point x="189" y="-195"/>
      <point x="218" y="-179"/>
    </contour>
  </outline>
</glyph>
<glyph name="Ecaron" format="2">
  <advance width="505"/>
  <unicode hex="011A"/>
  <outline>
    <contour>
      <point x="73" y="0" type="line"/>
      <point x="78" y="31" type="line"/>
      <point x="411" y="31" type="line"/>
      <point x="406" y="0" type="line"/>
    </contour>
    <contour>
      <point x="187" y="669" type="line"/>
      <point x="192" y="700" type="line"/>
      <point x="525" y="700" type="line"/>
      <point x="520" y="669" type="line"/>
    </contour>
    <contour>
      <point x="136" y="371" type="line"/>
      <point x="141" y="402" type="line"/>
      <point x="455" y="402" type="line"/>
      <point x="449" y="371" type="line"/>
    </contour>
    <contour>
      <point x="176" y="700" type="line"/>
      <point x="210" y="700" type="line"/>
      <point x="90" y="0" type="line"/>
      <point x="57" y="0" type="line"/>
    </contour>
    <contour>
      <point x="367" y="803" type="line"/>
      <point x="524" y="926" type="line"/>
      <point x="542" y="907" type="line"/>
      <point x="363" y="769" type="line"/>
      <point x="230" y="909" type="line"/>
      <point x="253" y="926" type="line"/>
    </contour>
  </outline>
</glyph>
<glyph name="Gbreve" format="2">
  <advance width="745"/>
  <unicode hex="011E"/>
  <outline>
    <contour>
      <point x="429" y="313" type="line"/>
      <point x="435" y="345" type="line"/>
      <point x="727" y="344" type="line"/>
      <point x="692" y="163"/>
      <point x="555" y="-8"/>
      <point x="353" y="-8" type="curve" smooth="yes"/>
      <point x="155" y="-8"/>
      <point x="51" y="163"/>
      <point x="78" y="350" type="curve" smooth="yes"/>
      <point x="109" y="547"/>
      <point x="271" y="709"/>
      <point x="472" y="709" type="curve" smooth="yes"/>
      <point x="589" y="709"/>
      <point x="673" y="650"/>
      <point x="722" y="557" type="curve"/>
      <point x="695" y="537" type="line"/>
      <point x="656" y="621"/>
      <point x="575" y="675"/>
      <point x="469" y="675" type="curve" smooth="yes"/>
      <point x="287" y="675"/>
      <point x="142" y="529"/>
      <point x="113" y="350" type="curve" smooth="yes"/>
      <point x="88" y="183"/>
      <point x="176" y="25"/>
      <point x="356" y="25" type="curve" smooth="yes"/>
      <point x="528" y="25"/>
      <point x="647" y="164"/>
      <point x="687" y="313" type="curve"/>
    </contour>
    <contour>
      <point x="354" y="909" type="curve"/>
      <point x="382" y="908" type="line"/>
      <point x="377" y="851"/>
      <point x="410" y="796"/>
      <point x="487" y="796" type="curve" smooth="yes"/>
      <point x="567" y="796"/>
      <point x="616" y="852"/>
      <point x="634" y="908" type="curve"/>
      <point x="662" y="908" type="line"/>
      <point x="642" y="836"/>
      <point x="582" y="769"/>
      <point x="485" y="769" type="curve" smooth="yes"/>
      <point x="389" y="769"/>
      <point x="347" y="836"/>
    </contour>
  </outline>
</glyph>
<glyph name="gbreve" format="2">
  <advance width="533"/>
  <unicode hex="011F"/>
  <outline>
    <contour>
      <point x="21" y="-30" type="curve"/>
      <point x="52" y="-30" type="line"/>
      <point x="42" y="-122"/>
      <point x="86" y="-199"/>
      <point x="188" y="-200" type="curve" smooth="yes"/>
      <point x="295" y="-201"/>
      <point x="384" y="-112"/>
      <point x="403" y="10" type="curve"/>
      <point x="480" y="460" type="line"/>
      <point x="511" y="460" type="line"/>
      <point x="434" y="10" type="line" smooth="yes"/>
      <point x="412" y="-129"/>
      <point x="312" y="-230"/>
      <point x="186" y="-230" type="curve" smooth="yes"/>
      <point x="66" y="-230"/>
      <point x="9" y="-140"/>
    </contour>
    <contour>
      <point x="52" y="230" type="curve" smooth="yes"/>
      <point x="71" y="363"/>
      <point x="176" y="471"/>
      <point x="304" y="470" type="curve" smooth="yes"/>
      <point x="428" y="469"/>
      <point x="471" y="342"/>
      <point x="455" y="230" type="curve" smooth="yes"/>
      <point x="437" y="110"/>
      <point x="348" y="-10"/>
      <point x="224" y="-10" type="curve" smooth="yes"/>
      <point x="97" y="-10"/>
      <point x="35" y="104"/>
    </contour>
    <contour>
      <point x="84" y="230" type="curve" smooth="yes"/>
      <point x="68" y="120"/>
      <point x="120" y="20"/>
      <point x="232" y="20" type="curve" smooth="yes"/>
      <point x="337" y="20"/>
      <point x="424" y="126"/>
      <point x="441" y="233" type="curve" smooth="yes"/>
      <point x="455" y="327"/>
      <point x="408" y="438"/>
      <point x="306" y="440" type="curve" smooth="yes"/>
      <point x="194" y="442"/>
      <point x="102" y="346"/>
    </contour>
    <contour>
      <point x="186" y="670" type="curve"/>
      <point x="213" y="670" type="line"/>
      <point x="208" y="613"/>
      <point x="241" y="557"/>
      <point x="318" y="557" type="curve" smooth="yes"/>
      <point x="398" y="557"/>
      <point x="447" y="613"/>
      <point x="465" y="669" type="curve"/>
      <point x="493" y="669" type="line"/>
      <point x="473" y="597"/>
      <point x="413" y="530"/>
      <point x="316" y="530" type="curve" smooth="yes"/>
      <point x="220" y="530"/>
      <point x="179" y="597"/>
    </contour>
  </outline>
</glyph>
<glyph name="uni0123" format="2">
  <advance width="553"/>
  <unicode hex="0123"/>
  <outline>
    <contour>
      <point x="461" y="822" type="line"/>
      <point x="490" y="808" type="line"/>
      <point x="317" y="574" type="line"/>
      <point x="296" y="583" type="line"/>
    </contour>
    <contour>
      <point x="21" y="-30" type="curve"/>
      <point x="52" y="-30" type="line"/>
      <point x="42" y="-122"/>
      <point x="86" y="-199"/>
      <point x="188" y="-200" type="curve" smooth="yes"/>
      <point x="295" y="-201"/>
      <point x="384" y="-112"/>
      <point x="403" y="10" type="curve"/>
      <point x="480" y="460" type="line"/>
      <point x="511" y="460" type="line"/>
      <point x="434" y="10" type="line" smooth="yes"/>
      <point x="412" y="-129"/>
      <point x="312" y="-230"/>
      <point x="186" y="-230" type="curve" smooth="yes"/>
      <point x="66" y="-230"/>
      <point x="9" y="-140"/>
    </contour>
    <contour>
      <point x="52" y="230" type="curve" smooth="yes"/>
      <point x="71" y="363"/>
      <point x="176" y="471"/>
      <point x="304" y="470" type="curve" smooth="yes"/>
      <point x="428" y="469"/>
      <point x="471" y="342"/>
      <point x="455" y="230" type="curve" smooth="yes"/>
      <point x="437" y="110"/>
      <point x="348" y="-10"/>
      <point x="224" y="-10" type="curve" smooth="yes"/>
      <point x="97" y="-10"/>
      <point x="35" y="104"/>
    </contour>
    <contour>
      <point x="84" y="230" type="curve" smooth="yes"/>
      <point x="68" y="120"/>
      <point x="120" y="20"/>
      <point x="232" y="20" type="curve" smooth="yes"/>
      <point x="337" y="20"/>
      <point x="424" y="126"/>
      <point x="441" y="233" type="curve" smooth="yes"/>
      <point x="455" y="327"/>
      <point x="408" y="438"/>
      <point x="306" y="440" type="curve" smooth="yes"/>
      <point x="194" y="442"/>
      <point x="102" y="346"/>
    </contour>
  </outline>
</glyph>
<glyph name="hcircumflex" format="2">
  <advance width="474"/>
  <unicode hex="0125"/>
  <outline>
    <contour>
      <point x="217" y="780" type="line"/>
      <point x="83" y="0" type="line"/>
      <point x="51" y="0" type="line"/>
      <point x="186" y="780" type="line"/>
    </contour>
    <contour>
      <point x="391" y="308" type="line" smooth="yes"/>
      <point x="400" y="377"/>
      <point x="383" y="439"/>
      <point x="303" y="440" type="curve" smooth="yes"/>
      <point x="214" y="441"/>
      <point x="149" y="361"/>
      <point x="130" y="281" type="curve"/>
      <point x="116" y="281" type="line"/>
      <point x="136" y="379"/>
      <point x="211" y="470"/>
      <point x="312" y="470" type="curve" smooth="yes"/>
      <point x="406" y="470"/>
      <point x="434" y="397"/>
      <point x="423" y="311" type="curve"/>
      <point x="369" y="0" type="line"/>
      <point x="338" y="0" type="line"/>
    </contour>
    <contour>
      <point x="241" y="962" type="line"/>
      <point x="82" y="841" type="line"/>
      <point x="65" y="858" type="line"/>
      <point x="244" y="997" type="line"/>
      <point x="377" y="857" type="line"/>
      <point x="355" y="840" type="line"/>
    </contour>
  </outline>
</glyph>
<glyph name="Hbar" format="2">
  <advance width="646"/>
  <unicode hex="0126"/>
  <outline>
    <contour>
      <point x="136" y="366" type="line"/>
      <point x="141" y="397" type="line"/>
      <point x="594" y="397" type="line"/>
      <point x="589" y="366" type="line"/>
    </contour>
    <contour>
      <point x="623" y="700" type="line"/>
      <point x="657" y="700" type="line"/>
      <point x="536" y="0" type="line"/>
      <point x="504" y="0" type="line"/>
    </contour>
    <contour>
      <point x="176" y="700" type="line"/>
      <point x="211" y="700" type="line"/>
      <point x="90" y="0" type="line"/>
      <point x="57" y="0" type="line"/>
    </contour>
    <contour>
      <point x="78" y="585" type="line"/>
      <point x="82" y="615" type="line"/>
      <point x="722" y="615" type="line"/>
      <point x="717" y="585" type="line"/>
    </contour>
  </outline>
</glyph>
<glyph name="jcircumflex" format="2">
  <advance width="194"/>
  <unicode hex="0135"/>
  <outline>
    <contour>
      <point x="-123" y="-150" type="line"/>
      <point x="-109" y="-170"/>
      <point x="-91" y="-187"/>
      <point x="-63" y="-188" type="curve" smooth="yes"/>
      <point x="0" y="-189"/>
      <point x="28" y="-126"/>
      <point x="38" y="-72" type="curve" smooth="yes"/>
      <point x="129" y="460" type="line"/>
      <point x="160" y="460" type="line"/>
      <point x="69" y="-75" type="line" smooth="yes"/>
      <point x="57" y="-148"/>
      <point x="14" y="-222"/>
      <point x="-68" y="-220" type="curve" smooth="yes"/>
      <point x="-106" y="-219"/>
      <point x="-129" y="-196"/>
      <point x="-145" y="-174" type="curve"/>
    </contour>
    <contour>
      <point x="178" y="652" type="line"/>
      <point x="21" y="531" type="line"/>
      <point x="3" y="548" type="line"/>
      <point x="182" y="687" type="line"/>
      <point x="315" y="547" type="line"/>
      <point x="293" y="530" type="line"/>
    </contour>
  </outline>
</glyph>
<glyph name="uni0136" format="2">
  <advance width="472"/>
  <unicode hex="0136"/>
  <outline>
    <contour>
      <point x="173" y="700" type="line"/>
      <point x="207" y="700" type="line"/>
      <point x="86" y="0" type="line"/>
      <point x="53" y="0" type="line"/>
    </contour>
    <contour>
      <point x="497" y="699" type="line"/>
      <point x="541" y="699" type="line"/>
      <point x="181" y="371" type="line"/>
      <point x="434" y="0" type="line"/>
      <point x="393" y="0" type="line"/>
      <point x="141" y="372" type="line"/>
    </contour>
    <contour>
      <point x="267" y="-61" type="line"/>
      <point x="297" y="-74" type="line"/>
      <point x="147" y="-322" type="line"/>
      <point x="126" y="-314" type="line"/>
    </contour>
  </outline>
</glyph>
<glyph name="kgreenlandic" format="2">
  <advance width="380"/>
  <unicode hex="0138"/>
  <outline>
    <contour>
      <point x="126" y="460" type="line"/>
      <point x="158" y="460" type="line"/>
      <point x="78" y="0" type="line"/>
      <point x="47" y="0" type="line"/>
    </contour>
    <contour>
      <point x="366" y="459" type="line"/>
      <point x="409" y="459" type="line"/>
      <point x="152" y="269" type="line"/>
      <point x="347" y="0" type="line"/>
      <point x="309" y="0" type="line"/>
      <point x="114" y="271" type="line"/>
    </contour>
  </outline>
</glyph>
<glyph name="Ldot" format="2">
  <advance width="422"/>
  <unicode hex="013F"/>
  <outline>
    <contour>
      <point x="177" y="700" type="line"/>
      <point x="210" y="700" type="line"/>
      <point x="95" y="31" type="line"/>
      <point x="385" y="31" type="line"/>
      <point x="380" y="0" type="line"/>
      <point x="57" y="0" type="line"/>
    </contour>
    <contour>
      <point x="300" y="415" type="curve" smooth="yes"/>
      <point x="301" y="427"/>
      <point x="316" y="439"/>
      <point x="328" y="439" type="curve" smooth="yes"/>
      <point x="341" y="439"/>
      <point x="349" y="427"/>
      <point x="348" y="414" type="curve" smooth="yes"/>
      <point x="347" y="402"/>
      <point x="333" y="390"/>
      <point x="321" y="390" type="curve" smooth="yes"/>
      <point x="308" y="390"/>
      <point x="299" y="402"/>
    </contour>
  </outline>
</glyph>
<glyph name="lslash" format="2">
  <advance width="175"/>
  <unicode hex="0142"/>
  <outline>
    <contour>
      <point x="33" y="373" type="line"/>
      <point x="25" y="396" type="line"/>
      <point x="247" y="544" type="line"/>
      <point x="254" y="522" type="line"/>
    </contour>
    <contour>
      <point x="179" y="780" type="line"/>
      <point x="210" y="780" type="line"/>
      <point x="76" y="0" type="line"/>
      <point x="45" y="0" type="line"/>
    </contour>
  </outline>
</glyph>
<glyph name="napostrophe" format="2">
  <advance width="602"/>
  <unicode hex="0149"/>
  <outline>
    <contour>
      <point x="255" y="460" type="line"/>
      <point x="176" y="0" type="line"/>
      <point x="145" y="0" type="line"/>
      <point x="225" y="460" type="line"/>
    </contour>
    <contour>
      <point x="485" y="308" type="line" smooth="yes"/>
      <point x="494" y="377"/>
      <point x="477" y="439"/>
      <point x="397" y="440" type="curve" smooth="yes"/>
      <point x="308" y="441"/>
      <point x="243" y="361"/>
      <point x="224" y="281" type="curve"/>
      <point x="209" y="281" type="line"/>
      <point x="229" y="379"/>
      <point x="303" y="470"/>
      <point x="405" y="470" type="curve" smooth="yes"/>
      <point x="499" y="470"/>
      <point x="527" y="397"/>
      <point x="516" y="311" type="curve"/>
      <point x="462" y="0" type="line"/>
      <point x="431" y="0" type="line"/>
    </contour>
    <contour>
      <point x="248" y="699" type="line"/>
      <point x="285" y="699" type="line"/>
      <point x="150" y="471" type="line"/>
      <point x="127" y="471" type="line"/>
    </contour>
  </outline>
</glyph>
<glyph name="obreve" format="2">
  <advance width="535"/>
  <unicode hex="014F"/>
  <outline>
    <contour>
      <point x="52" y="230" type="curve" smooth="yes"/>
      <point x="72" y="361"/>
      <point x="186" y="470"/>
      <point x="320" y="470" type="curve" smooth="yes"/>
      <point x="453" y="470"/>
      <point x="527" y="356"/>
      <point x="509" y="230" type="curve" smooth="yes"/>
      <point x="489" y="99"/>
      <point x="375" y="-10"/>
      <point x="241" y="-10" type="curve" smooth="yes"/>
      <point x="108" y="-10"/>
      <point x="34" y="104"/>
    </contour>
    <contour>
      <point x="84" y="230" type="curve" smooth="yes"/>
      <point x="67" y="121"/>
      <point x="128" y="20"/>
      <point x="243" y="20" type="curve" smooth="yes"/>
      <point x="360" y="20"/>
      <point x="459" y="115"/>
      <point x="477" y="230" type="curve" smooth="yes"/>
      <point x="494" y="339"/>
      <point x="433" y="440"/>
      <point x="318" y="440" type="curve" smooth="yes"/>
      <point x="201" y="440"/>
      <point x="102" y="345"/>
    </contour>
    <contour>
      <point x="202" y="670" type="curve"/>
      <point x="230" y="670" type="line"/>
      <point x="225" y="613"/>
      <point x="258" y="557"/>
      <point x="335" y="557" type="curve" smooth="yes"/>
      <point x="415" y="557"/>
      <point x="463" y="613"/>
      <point x="481" y="669" type="curve"/>
      <point x="510" y="669" type="line"/>
      <point x="490" y="597"/>
      <point x="430" y="530"/>
      <point x="333" y="530" type="curve" smooth="yes"/>
      <point x="237" y="530"/>
      <point x="195" y="597"/>
    </contour>
  </outline>
</glyph>
<glyph name="Racute" format="2">
  <advance width="480"/>
  <unicode hex="0154"/>
  <outline>
    <contour>
      <point x="223" y="326" type="line"/>
      <point x="259" y="326" type="line"/>
      <point x="427" y="0" type="line"/>
      <point x="388" y="0" type="line"/>
    </contour>
    <contour>
      <point x="176" y="700" type="line"/>
      <point x="210" y="700" type="line"/>
      <point x="90" y="0" type="line"/>
      <point x="57" y="0" type="line"/>
    </contour>
    <contour>
      <point x="186" y="669" type="line"/>
      <point x="192" y="700" type="line"/>
      <point x="309" y="700" type="line"/>
      <point x="434" y="698"/>
      <point x="527" y="626"/>
      <point x="507" y="502" type="curve" smooth="yes"/>
      <point x="487" y="376"/>
      <point x="374" y="306"/>
      <point x="244" y="304" type="curve"/>
      <point x="124" y="304" type="line"/>
      <point x="129" y="333" type="line"/>
      <point x="247" y="333" type="line"/>
      <point x="360" y="335"/>
      <point x="456" y="393"/>
      <point x="474" y="502" type="curve" smooth="yes"/>
      <point x="492" y="609"/>
      <point x="416" y="667"/>
      <point x="307" y="669" type="curve"/>
    </contour>
    <contour>
      <point x="496" y="922" type="line"/>
      <point x="299" y="770" type="line"/>
      <point x="283" y="782" type="line"/>
      <point x="470" y="940" type="line"/>
    </contour>
  </outline>
</glyph>
<glyph name="Rcaron" format="2">
  <advance width="480"/>
  <unicode hex="0158"/>
  <outline>
    <contour>
      <point x="223" y="326" type="line"/>
      <point x="259" y="326" type="line"/>
      <point x="427" y="0" type="line"/>
      <point x="388" y="0" type="line"/>
    </contour>
    <contour>
      <point x="176" y="700" type="line"/>
      <point x="210" y="700" type="line"/>
      <point x="90" y="0" type="line"/>
      <point x="57" y="0" type="line"/>
    </contour>
    <contour>
      <point x="186" y="669" type="line"/>
      <point x="192" y="700" type="line"/>
      <point x="309" y="700" type="line"/>
      <point x="434" y="698"/>
      <point x="527" y="626"/>
      <point x="507" y="502" type="curve" smooth="yes"/>
      <point x="487" y="376"/>
      <point x="374" y="306"/>
      <point x="244" y="304" type="curve"/>
      <point x="124" y="304" type="line"/>
      <point x="129" y="333" type="line"/>
      <point x="247" y="333" type="line"/>
      <point x="360" y="335"/>
      <point x="456" y="393"/>
      <point x="474" y="502" type="curve" smooth="yes"/>
      <point x="492" y="609"/>
      <point x="416" y="667"/>
      <point x="307" y="669" type="curve"/>
    </contour>
    <contour>
      <point x="338" y="803" type="line"/>
      <point x="495" y="926" type="line"/>
      <point x="513" y="907" type="line"/>
      <point x="334" y="769" type="line"/>
      <point x="201" y="909" type="line"/>
      <point x="224" y="926" type="line"/>
    </contour>
  </outline>
</glyph>
<glyph name="rcaron" format="2">
  <advance width="296"/>
  <unicode hex="0159"/>
  <outline>
    <contour>
      <point x="162" y="460" type="line"/>
      <point x="83" y="0" type="line"/>
      <point x="51" y="0" type="line"/>
      <point x="131" y="460" type="line"/>
    </contour>
    <contour>
      <point x="314" y="419" type="line"/>
      <point x="297" y="430"/>
      <point x="281" y="440"/>
      <point x="261" y="440" type="curve" smooth="yes"/>
      <point x="183" y="442"/>
      <point x="144" y="355"/>
      <point x="130" y="281" type="curve"/>
      <point x="116" y="281" type="line"/>
      <point x="132" y="372"/>
      <point x="182" y="472"/>
      <point x="270" y="470" type="curve" smooth="yes"/>
      <point x="295" y="470"/>
      <point x="316" y="459"/>
      <point x="335" y="444" type="curve"/>
    </contour>
    <contour>
      <point x="250" y="565" type="line"/>
      <point x="407" y="687" type="line"/>
      <point x="426" y="669" type="line"/>
      <point x="247" y="530" type="line"/>
      <point x="114" y="670" type="line"/>
      <point x="136" y="688" type="line"/>
    </contour>
  </outline>
</glyph>
<glyph name="Utilde" format="2">
  <advance width="572"/>
  <unicode hex="0168"/>
  <outline>
    <contour>
      <point x="172" y="700" type="line"/>
      <point x="205" y="700" type="line"/>
      <point x="123" y="223" type="line" smooth="yes"/>
      <point x="109" y="116"/>
      <point x="147" y="24"/>
      <point x="262" y="23" type="curve" smooth="yes"/>
      <point x="377" y="22"/>
      <point x="453" y="111"/>
      <point x="472" y="223" type="curve"/>
      <point x="554" y="700" type="line"/>
      <point x="588" y="700" type="line"/>
      <point x="506" y="223" type="line" smooth="yes"/>
      <point x="484" y="94"/>
      <point x="397" y="-10"/>
      <point x="260" y="-10" type="curve" smooth="yes"/>
      <point x="124" y="-10"/>
      <point x="74" y="99"/>
      <point x="90" y="223" type="curve"/>
    </contour>
    <contour>
      <point x="260" y="781" type="line"/>
      <point x="266" y="814"/>
      <point x="302" y="845"/>
      <point x="342" y="845" type="curve" smooth="yes"/>
      <point x="391" y="845"/>
      <point x="408" y="798"/>
      <point x="455" y="799" type="curve" smooth="yes"/>
      <point x="482" y="800"/>
      <point x="501" y="821"/>
      <point x="518" y="846" type="curve"/>
      <point x="536" y="830" type="line"/>
      <point x="516" y="799"/>
      <point x="489" y="772"/>
      <point x="452" y="773" type="curve" smooth="yes"/>
      <point x="405" y="773"/>
      <point x="384" y="819"/>
      <point x="342" y="819" type="curve" smooth="yes"/>
      <point x="305" y="819"/>
      <point x="289" y="792"/>
      <point x="281" y="769" type="curve"/>
    </contour>
  </outline>
</glyph>
<glyph name="utilde" format="2">
  <advance width="474"/>
  <unicode hex="0169"/>
  <outline>
    <contour>
      <point x="338" y="0" type="line"/>
      <point x="417" y="460" type="line"/>
      <point x="449" y="460" type="line"/>
      <point x="369" y="0" type="line"/>
    </contour>
    <contour>
      <point x="110" y="159" type="line" smooth="yes"/>
      <point x="101" y="86"/>
      <point x="115" y="22"/>
      <point x="197" y="21" type="curve" smooth="yes"/>
      <point x="286" y="20"/>
      <point x="350" y="99"/>
      <point x="369" y="179" type="curve"/>
      <point x="382" y="179" type="line"/>
      <point x="362" y="81"/>
      <point x="290" y="-11"/>
      <point x="189" y="-10" type="curve" smooth="yes"/>
      <point x="92" y="-10"/>
      <point x="68" y="66"/>
      <point x="79" y="156" type="curve"/>
      <point x="131" y="460" type="line"/>
      <point x="162" y="460" type="line"/>
    </contour>
    <contour>
      <point x="169" y="543" type="line"/>
      <point x="181" y="575"/>
      <point x="209" y="607"/>
      <point x="252" y="607" type="curve" smooth="yes"/>
      <point x="301" y="607"/>
      <point x="317" y="560"/>
      <point x="364" y="561" type="curve" smooth="yes"/>
      <point x="391" y="562"/>
      <point x="410" y="583"/>
      <point x="428" y="608" type="curve"/>
      <point x="446" y="592" type="line"/>
      <point x="426" y="561"/>
      <point x="398" y="533"/>
      <point x="361" y="534" type="curve" smooth="yes"/>
      <point x="314" y="534"/>
      <point x="294" y="580"/>
      <point x="252" y="580" type="curve" smooth="yes"/>
      <point x="215" y="580"/>
      <point x="198" y="553"/>
      <point x="190" y="530" type="curve"/>
    </contour>
  </outline>
</glyph>
<glyph name="Umacron" format="2">
  <advance width="572"/>
  <unicode hex="016A"/>
  <outline>
    <contour>
      <point x="172" y="700" type="line"/>
      <point x="205" y="700" type="line"/>
      <point x="123" y="223" type="line" smooth="yes"/>
      <point x="109" y="116"/>
      <point x="147" y="24"/>
      <point x="262" y="23" type="curve" smooth="yes"/>
      <point x="377" y="22"/>
      <point x="453" y="111"/>
      <point x="472" y="223" type="curve"/>
      <point x="554" y="700" type="line"/>
      <point x="588" y="700" type="line"/>
      <point x="506" y="223" type="line" smooth="yes"/>
      <point x="484" y="94"/>
      <point x="397" y="-10"/>
      <point x="260" y="-10" type="curve" smooth="yes"/>
      <point x="124" y="-10"/>
      <point x="74" y="99"/>
      <point x="90" y="223" type="curve"/>
    </contour>
    <contour>
      <point x="221" y="769" type="line"/>
      <point x="226" y="798" type="line"/>
      <point x="567" y="798" type="line"/>
      <point x="562" y="769" type="line"/>
    </contour>
  </outline>
</glyph>
<glyph name="Uring" format="2">
  <advance width="572"/>
  <unicode hex="016E"/>
  <outline>
    <contour>
      <point x="172" y="700" type="line"/>
      <point x="205" y="700" type="line"/>
      <point x="123" y="223" type="line" smooth="yes"/>
      <point x="109" y="116"/>
      <point x="147" y="24"/>
      <point x="262" y="23" type="curve" smooth="yes"/>
      <point x="377" y="22"/>
      <point x="453" y="111"/>
      <point x="472" y="223" type="curve"/>
      <point x="554" y="700" type="line"/>
      <point x="588" y="700" type="line"/>
      <point x="506" y="223" type="line" smooth="yes"/>
      <point x="484" y="94"/>
      <point x="397" y="-10"/>
      <point x="260" y="-10" type="curve" smooth="yes"/>
      <point x="124" y="-10"/>
      <point x="74" y="99"/>
      <point x="90" y="223" type="curve"/>
    </contour>
    <contour>
      <point x="308" y="869" type="curve" smooth="yes"/>
      <point x="316" y="924"/>
      <point x="371" y="968"/>
      <point x="424" y="968" type="curve" smooth="yes"/>
      <point x="477" y="968"/>
      <point x="516" y="922"/>
      <point x="508" y="868" type="curve" smooth="yes"/>
      <point x="500" y="813"/>
      <point x="445" y="769"/>
      <point x="392" y="769" type="curve" smooth="yes"/>
      <point x="339" y="769"/>
      <point x="300" y="815"/>
    </contour>
    <contour>
      <point x="331" y="868" type="curve" smooth="yes"/>
      <point x="325" y="827"/>
      <point x="353" y="791"/>
      <point x="394" y="790" type="curve" smooth="yes"/>
      <point x="435" y="789"/>
      <point x="479" y="827"/>
      <point x="485" y="869" type="curve" smooth="yes"/>
      <point x="491" y="910"/>
      <point x="463" y="946"/>
      <point x="422" y="947" type="curve" smooth="yes"/>
      <point x="381" y="948"/>
      <point x="337" y="910"/>
    </contour>
  </outline>
</glyph>
<glyph name="uring" format="2">
  <advance width="474"/>
  <unicode hex="016F"/>
  <outline>
    <contour>
      <point x="338" y="0" type="line"/>
      <point x="417" y="460" type="line"/>
      <point x="449" y="460" type="line"/>
      <point x="369" y="0" type="line"/>
    </contour>
    <contour>
      <point x="110" y="159" type="line" smooth="yes"/>
      <point x="101" y="86"/>
      <point x="115" y="21"/>
      <point x="197" y="20" type="curve" smooth="yes"/>
      <point x="286" y="19"/>
      <point x="351" y="99"/>
      <point x="370" y="179" type="curve"/>
      <point x="382" y="179" type="line"/>
      <point x="362" y="81"/>
      <point x="289" y="-11"/>
      <point x="188" y="-10" type="curve" smooth="yes"/>
      <point x="91" y="-10"/>
      <point x="68" y="67"/>
      <point x="79" y="156" type="curve"/>
      <point x="131" y="460" type="line"/>
      <point x="162" y="460" type="line"/>
    </contour>
    <contour>
      <point x="219" y="631" type="curve" smooth="yes"/>
      <point x="227" y="686"/>
      <point x="282" y="730"/>
      <point x="335" y="730" type="curve" smooth="yes"/>
      <point x="388" y="730"/>
      <point x="426" y="683"/>
      <point x="418" y="629" type="curve" smooth="yes"/>
      <point x="410" y="574"/>
      <point x="355" y="530"/>
      <point x="302" y="530" type="curve" smooth="yes"/>
      <point x="249" y="530"/>
      <point x="211" y="577"/>
    </contour>
    <contour>
      <point x="241" y="630" type="curve" smooth="yes"/>
      <point x="235" y="589"/>
      <point x="263" y="553"/>
      <point x="304" y="552" type="curve" smooth="yes"/>
      <point x="345" y="551"/>
      <point x="390" y="588"/>
      <point x="396" y="630" type="curve" smooth="yes"/>
      <point x="402" y="671"/>
      <point x="374" y="707"/>
      <point x="333" y="708" type="curve" smooth="yes"/>
      <point x="292" y="709"/>
      <point x="247" y="672"/>
    </contour>
  </outline>
</glyph>
<glyph name="Ycircumflex" format="2">
  <advance width="507"/>
  <unicode hex="0176"/>
  <outline>
    <contour>
      <point x="551" y="699" type="line"/>
      <point x="591" y="699" type="line"/>
      <point x="287" y="276" type="line"/>
      <point x="240" y="0" type="line"/>
      <point x="206" y="0" type="line"/>
      <point x="255" y="278" type="line"/>
      <point x="104" y="700" type="line"/>
      <point x="141" y="700" type="line"/>
      <point x="275" y="311" type="line"/>
    </contour>
    <contour>
      <point x="378" y="891" type="line"/>
      <point x="220" y="769" type="line"/>
      <point x="202" y="787" type="line"/>
      <point x="381" y="925" type="line"/>
      <point x="514" y="785" type="line"/>
      <point x="492" y="769" type="line"/>
    </contour>
  </outline>
</glyph>
<glyph name="zacute" format="2">
  <advance width="425"/>
  <unicode hex="017A"/>
  <outline>
    <contour>
      <point x="390" y="430" type="line"/>
      <point x="86" y="430" type="line"/>
      <point x="91" y="460" type="line"/>
      <point x="454" y="460" type="line"/>
      <point x="54" y="30" type="line"/>
      <point x="381" y="30" type="line"/>
      <point x="376" y="0" type="line"/>
      <point x="-10" y="0" type="line"/>
    </contour>
    <contour>
      <point x="458" y="690" type="line"/>
      <point x="261" y="537" type="line"/>
      <point x="246" y="550" type="line"/>
      <point x="432" y="708" type="line"/>
    </contour>
  </outline>
</glyph>
<glyph name="Zdotaccent" format="2">
  <advance width="521"/>
  <unicode hex="017B"/>
  <outline>
    <contour>
      <point x="124" y="668" type="line"/>
      <point x="129" y="700" type="line"/>
      <point x="599" y="700" type="line"/>
      <point x="54" y="33" type="line"/>
      <point x="472" y="32" type="line"/>
      <point x="467" y="0" type="line"/>
      <point x="-10" y="0" type="line"/>
      <point x="535" y="667" type="line"/>
    </contour>
    <contour>
      <point x="356" y="793" type="curve" smooth="yes"/>
      <point x="357" y="805"/>
      <point x="371" y="817"/>
      <point x="383" y="817" type="curve" smooth="yes"/>
      <point x="396" y="817"/>
      <point x="405" y="806"/>
      <point x="404" y="793" type="curve" smooth="yes"/>
      <point x="403" y="781"/>
      <point x="388" y="769"/>
      <point x="376" y="769" type="curve" smooth="yes"/>
      <point x="363" y="769"/>
      <point x="355" y="780"/>
    </contour>
  </outline>
</glyph>
<glyph name="Zcaron" format="2">
  <advance width="521"/>
  <unicode hex="017D"/>
  <outline>
    <contour>
      <point x="124" y="668" type="line"/>
      <point x="129" y="700" type="line"/>
      <point x="599" y="700" type="line"/>
      <point x="54" y="33" type="line"/>
      <point x="472" y="32" type="line"/>
      <point x="467" y="0" type="line"/>
      <point x="-10" y="0" type="line"/>
      <point x="535" y="667" type="line"/>
    </contour>
    <contour>
      <point x="380" y="803" type="line"/>
      <point x="537" y="926" type="line"/>
      <point x="556" y="907" type="line"/>
      <point x="377" y="769" type="line"/>
      <point x="244" y="909" type="line"/>
      <point x="266" y="926" type="line"/>
    </contour>
  </outline>
</glyph>
<glyph name="uni0219" format="2">
  <advance width="391"/>
  <unicode hex="0219"/>
  <outline>
    <contour>
      <point x="59" y="151" type="line"/>
      <point x="64" y="87"/>
      <point x="90" y="20"/>
      <point x="171" y="20" type="curve" smooth="yes"/>
      <point x="233" y="20"/>
      <point x="287" y="60"/>
      <point x="296" y="119" type="curve" smooth="yes"/>
      <point x="306" y="179"/>
      <point x="255" y="206"/>
      <point x="200" y="226" type="curve" smooth="yes"/>
      <point x="136" y="250"/>
      <point x="82" y="279"/>
      <point x="94" y="356" type="curve" smooth="yes"/>
      <point x="105" y="425"/>
      <point x="174" y="468"/>
      <point x="245" y="468" type="curve" smooth="yes"/>
      <point x="316" y="468"/>
      <point x="355" y="425"/>
      <point x="369" y="371" type="curve"/>
      <point x="342" y="357" type="line"/>
      <point x="328" y="400"/>
      <point x="298" y="438"/>
      <point x="242" y="438" type="curve" smooth="yes"/>
      <point x="187" y="438"/>
      <point x="134" y="407"/>
      <point x="125" y="354" type="curve" smooth="yes"/>
      <point x="114" y="290"/>
      <point x="169" y="268"/>
      <point x="224" y="248" type="curve" smooth="yes"/>
      <point x="284" y="225"/>
      <point x="338" y="189"/>
      <point x="328" y="121" type="curve" smooth="yes"/>
      <point x="317" y="41"/>
      <point x="248" y="-11"/>
      <point x="167" y="-10" type="curve" smooth="yes"/>
      <point x="73" y="-10"/>
      <point x="36" y="63"/>
      <point x="31" y="138" type="curve"/>
    </contour>
    <contour>
      <point x="188" y="-71" type="line"/>
      <point x="218" y="-84" type="line"/>
      <point x="68" y="-332" type="line"/>
      <point x="47" y="-324" type="line"/>
    </contour>
  </outline>
</glyph>
<glyph name="uni021A" format="2">
  <advance width="427"/>
  <unicode hex="021A"/>
  <outline>
    <contour>
      <point x="103" y="668" type="line"/>
      <point x="108" y="700" type="line"/>
      <point x="505" y="700" type="line"/>
      <point x="499" y="668" type="line"/>
      <point x="318" y="668" type="line"/>
      <point x="203" y="0" type="line"/>
      <point x="170" y="0" type="line"/>
      <point x="284" y="668" type="line"/>
    </contour>
    <contour>
      <point x="208.646" y="-60" type="line"/>
      <point x="238.646" y="-73" type="line"/>
      <point x="87.6455" y="-321" type="line"/>
      <point x="66.6455" y="-313" type="line"/>
    </contour>
  </outline>
</glyph>
<glyph name="uni0237" format="2">
  <advance width="194"/>
  <unicode hex="0237"/>
  <outline>
    <contour>
      <point x="-123" y="-150" type="line"/>
      <point x="-109" y="-170"/>
      <point x="-91" y="-187"/>
      <point x="-63" y="-188" type="curve" smooth="yes"/>
      <point x="0" y="-189"/>
      <point x="28" y="-126"/>
      <point x="38" y="-72" type="curve" smooth="yes"/>
      <point x="129" y="460" type="line"/>
      <point x="160" y="460" type="line"/>
      <point x="69" y="-75" type="line" smooth="yes"/>
      <point x="57" y="-148"/>
      <point x="14" y="-222"/>
      <point x="-68" y="-220" type="curve" smooth="yes"/>
      <point x="-106" y="-219"/>
      <point x="-129" y="-196"/>
      <point x="-145" y="-174" type="curve"/>
    </contour>
  </outline>
</glyph>
<glyph name="caron" format="2">
  <advance width="465"/>
  <unicode hex="02C7"/>
  <outline>
    <contour>
      <point x="308" y="605" type="line"/>
      <point x="465" y="727" type="line"/>
      <point x="483" y="709" type="line"/>
      <point x="304" y="570" type="line"/>
      <point x="171" y="710" type="line"/>
      <point x="194" y="728" type="line"/>
    </contour>
  </outline>
</glyph>
<glyph name="ring" format="2">
  <advance width="269"/>
  <unicode hex="02DA"/>
  <outline>
    <contour>
      <point x="142" y="786" type="curve" smooth="yes"/>
      <point x="150" y="841"/>
      <point x="205" y="884"/>
      <point x="258" y="884" type="curve" smooth="yes"/>
      <point x="311" y="884"/>
      <point x="349" y="838"/>
      <point x="341" y="784" type="curve" smooth="yes"/>
      <point x="333" y="729"/>
      <point x="278" y="686"/>
      <point x="225" y="686" type="curve" smooth="yes"/>
      <point x="172" y="686"/>
      <point x="134" y="732"/>
    </contour>
    <contour>
      <point x="164" y="785" type="curve" smooth="yes"/>
      <point x="158" y="744"/>
      <point x="186" y="708"/>
      <point x="227" y="707" type="curve" smooth="yes"/>
      <point x="268" y="706"/>
      <point x="313" y="743"/>
      <point x="319" y="785" type="curve" smooth="yes"/>
      <point x="325" y="826"/>
      <point x="297" y="862"/>
      <point x="256" y="863" type="curve" smooth="yes"/>
      <point x="215" y="864"/>
      <point x="170" y="827"/>
    </contour>
  </outline>
</glyph>
<glyph name="tilde" format="2">
  <advance width="514"/>
  <unicode hex="02DC"/>
  <outline>
    <contour>
      <point x="206" y="642" type="line"/>
      <point x="218" y="675"/>
      <point x="245" y="706"/>
      <point x="288" y="706" type="curve" smooth="yes"/>
      <point x="337" y="706"/>
      <point x="355" y="659"/>
      <point x="402" y="660" type="curve" smooth="yes"/>
      <point x="429" y="661"/>
      <point x="447" y="683"/>
      <point x="464" y="708" type="curve"/>
      <point x="483" y="692" type="line"/>
      <point x="463" y="661"/>
      <point x="435" y="633"/>
      <point x="398" y="634" type="curve" smooth="yes"/>
      <point x="351" y="634"/>
      <point x="330" y="680"/>
      <point x="288" y="680" type="curve" smooth="yes"/>
      <point x="251" y="680"/>
      <point x="235" y="653"/>
      <point x="227" y="630" type="curve"/>
    </contour>
  </outline>
</glyph>
<glyph name="pi" format="2">
  <advance width="476"/>
  <unicode hex="03C0"/>
  <outline>
    <contour>
      <point x="136" y="443" type="line"/>
      <point x="168" y="444" type="line"/>
      <point x="90" y="0" type="line"/>
      <point x="60" y="0" type="line"/>
    </contour>
    <contour>
      <point x="80" y="460" type="line"/>
      <point x="490" y="460" type="line"/>
      <point x="485" y="430" type="line"/>
      <point x="75" y="430" type="line"/>
    </contour>
    <contour>
      <point x="379" y="444" type="line"/>
      <point x="410" y="444" type="line"/>
      <point x="355" y="127" type="line"/>
      <point x="347" y="61"/>
      <point x="343" y="34"/>
      <point x="389" y="22" type="curve"/>
      <point x="384" y="-8" type="line"/>
      <point x="318" y="2"/>
      <point x="313" y="36"/>
      <point x="323" y="121" type="curve"/>
    </contour>
  </outline>
</glyph>
<glyph name="uni0403" format="2">
  <advance width="422"/>
  <unicode hex="0403"/>
  <outline>
    <contour>
      <point x="169" y="700" type="line"/>
      <point x="505" y="700" type="line"/>
      <point x="500" y="669" type="line"/>
      <point x="197" y="669" type="line"/>
      <point x="82" y="0" type="line"/>
      <point x="50" y="0" type="line"/>
    </contour>
    <contour>
      <point x="518" y="941" type="line"/>
      <point x="321" y="788" type="line"/>
      <point x="306" y="801" type="line"/>
      <point x="491" y="959" type="line"/>
    </contour>
  </outline>
</glyph>
<glyph name="uni040E" format="2">
  <advance width="490"/>
  <unicode hex="040E"/>
  <outline>
    <contour>
      <point x="585" y="700" type="line"/>
      <point x="145" y="0" type="line"/>
      <point x="108" y="0" type="line"/>
      <point x="245" y="221" type="line"/>
      <point x="93" y="700" type="line"/>
      <point x="129" y="700" type="line"/>
      <point x="274" y="230" type="line"/>
      <point x="256" y="232" type="line"/>
      <point x="548" y="700" type="line"/>
    </contour>
    <contour>
      <point x="219" y="908" type="curve"/>
      <point x="247" y="908" type="line"/>
      <point x="243" y="851"/>
      <point x="275" y="796"/>
      <point x="352" y="796" type="curve" smooth="yes"/>
      <point x="432" y="796"/>
      <point x="481" y="852"/>
      <point x="498" y="908" type="curve"/>
      <point x="526" y="907" type="line"/>
      <point x="507" y="835"/>
      <point x="447" y="769"/>
      <point x="350" y="769" type="curve" smooth="yes"/>
      <point x="254" y="769"/>
      <point x="213" y="835"/>
    </contour>
  </outline>
</glyph>
<glyph name="uni0411" format="2">
  <advance width="503"/>
  <unicode hex="0411"/>
  <outline>
    <contour>
      <point x="135" y="389" type="line"/>
      <point x="141" y="420" type="line"/>
      <point x="277" y="420" type="line"/>
      <point x="404" y="419"/>
      <point x="496" y="334"/>
      <point x="476" y="210" type="curve" smooth="yes"/>
      <point x="456" y="83"/>
      <point x="341" y="1"/>
      <point x="210" y="0" type="curve"/>
      <point x="68" y="0" type="line"/>
      <point x="74" y="31" type="line"/>
      <point x="211" y="31" type="line" smooth="yes"/>
      <point x="325" y="32"/>
      <point x="424" y="101"/>
      <point x="443" y="210" type="curve" smooth="yes"/>
      <point x="461" y="316"/>
      <point x="386" y="387"/>
      <point x="276" y="388" type="curve"/>
    </contour>
    <contour>
      <point x="169" y="700" type="line"/>
      <point x="507" y="700" type="line"/>
      <point x="502" y="669" type="line"/>
      <point x="197" y="669" type="line"/>
      <point x="82" y="0" type="line"/>
      <point x="50" y="0" type="line"/>
    </contour>
  </outline>
</glyph>
<glyph name="uni0416" format="2">
  <advance width="696"/>
  <unicode hex="0416"/>
  <outline>
    <contour>
      <point x="152" y="700" type="line"/>
      <point x="380" y="369" type="line"/>
      <point x="20" y="0" type="line"/>
      <point x="-25" y="0" type="line"/>
      <point x="341" y="372" type="line"/>
      <point x="113" y="700" type="line"/>
    </contour>
    <contour>
      <point x="429" y="700" type="line"/>
      <point x="463" y="700" type="line"/>
      <point x="342" y="0" type="line"/>
      <point x="310" y="0" type="line"/>
    </contour>
    <contour>
      <point x="727" y="699" type="line"/>
      <point x="772" y="699" type="line"/>
      <point x="434" y="369" type="line"/>
      <point x="664" y="0" type="line"/>
      <point x="624" y="0" type="line"/>
      <point x="399" y="372" type="line"/>
    </contour>
  </outline>
</glyph>
<glyph name="uni0418" format="2">
  <advance width="717"/>
  <unicode hex="0418"/>
  <outline>
    <contour>
      <point x="719" y="677" type="line"/>
      <point x="49" y="-36" type="line"/>
      <point x="65" y="23" type="line"/>
      <point x="734" y="737" type="line"/>
    </contour>
    <contour>
      <point x="210" y="700" type="line"/>
      <point x="91" y="13" type="line"/>
      <point x="49" y="-36" type="line"/>
      <point x="177" y="700" type="line"/>
    </contour>
    <contour>
      <point x="734" y="737" type="line"/>
      <point x="607" y="0" type="line"/>
      <point x="574" y="0" type="line"/>
      <point x="693" y="689" type="line"/>
    </contour>
  </outline>
</glyph>
<glyph name="uni041A" format="2">
  <advance width="548"/>
  <unicode hex="041A"/>
  <outline>
    <contour>
      <point x="173" y="700" type="line"/>
      <point x="207" y="700" type="line"/>
      <point x="86" y="0" type="line"/>
      <point x="53" y="0" type="line"/>
    </contour>
    <contour>
      <point x="497" y="699" type="line"/>
      <point x="541" y="699" type="line"/>
      <point x="181" y="370" type="line"/>
      <point x="434" y="0" type="line"/>
      <point x="393" y="0" type="line"/>
      <point x="141" y="373" type="line"/>
    </contour>
  </outline>
</glyph>
<glyph name="uni041C" format="2">
  <advance width="786"/>
  <unicode hex="041C"/>
  <outline>
    <contour>
      <point x="227" y="612" type="line"/>
      <point x="58" y="0" type="line"/>
      <point x="24" y="0" type="line"/>
      <point x="224" y="722" type="line"/>
      <point x="399" y="162" type="line"/>
      <point x="769" y="723" type="line"/>
      <point x="720" y="0" type="line"/>
      <point x="687" y="0" type="line"/>
      <point x="729" y="610" type="line"/>
      <point x="389" y="92" type="line"/>
    </contour>
  </outline>
</glyph>
<glyph name="uni041E" format="2">
  <advance width="766"/>
  <unicode hex="041E"/>
  <outline>
    <contour>
      <point x="113" y="350" type="curve" smooth="yes"/>
      <point x="88" y="183"/>
      <point x="173" y="26"/>
      <point x="353" y="25" type="curve" smooth="yes"/>
      <point x="535" y="24"/>
      <point x="679" y="174"/>
      <point x="708" y="350" type="curve" smooth="yes"/>
      <point x="733" y="517"/>
      <point x="648" y="674"/>
      <point x="468" y="675" type="curve" smooth="yes"/>
      <point x="286" y="676"/>
      <point x="142" y="526"/>
    </contour>
    <contour>
      <point x="78" y="350" type="curve" smooth="yes"/>
      <point x="108" y="546"/>
      <point x="270" y="709"/>
      <point x="470" y="709" type="curve" smooth="yes"/>
      <point x="668" y="709"/>
      <point x="771" y="536"/>
      <point x="744" y="350" type="curve" smooth="yes"/>
      <point x="714" y="154"/>
      <point x="551" y="-9"/>
      <point x="351" y="-9" type="curve" smooth="yes"/>
      <point x="153" y="-9"/>
      <point x="51" y="164"/>
    </contour>
  </outline>
</glyph>
<glyph name="uni041F" format="2">
  <advance width="642"/>
  <unicode hex="041F"/>
  <outline>
    <contour>
      <point x="622" y="669" type="line"/>
      <point x="197" y="669" type="line"/>
      <point x="82" y="0" type="line"/>
      <point x="50" y="0" type="line"/>
      <point x="170" y="700" type="line"/>
      <point x="659" y="700" type="line"/>
      <point x="538" y="0" type="line"/>
      <point x="506" y="0" type="line"/>
    </contour>
  </outline>
</glyph>
<glyph name="uni0420" format="2">
  <advance width="531"/>
  <unicode hex="0420"/>
  <outline>
    <contour>
      <point x="176" y="700" type="line"/>
      <point x="211" y="700" type="line"/>
      <point x="90" y="0" type="line"/>
      <point x="57" y="0" type="line"/>
    </contour>
    <contour>
      <point x="189" y="669" type="line"/>
      <point x="195" y="700" type="line"/>
      <point x="316" y="700" type="line"/>
      <point x="438" y="699"/>
      <point x="518" y="616"/>
      <point x="499" y="495" type="curve" smooth="yes"/>
      <point x="480" y="371"/>
      <point x="376" y="291"/>
      <point x="250" y="290" type="curve"/>
      <point x="125" y="290" type="line"/>
      <point x="130" y="321" type="line"/>
      <point x="251" y="321" type="line" smooth="yes"/>
      <point x="360" y="322"/>
      <point x="447" y="388"/>
      <point x="465" y="495" type="curve" smooth="yes"/>
      <point x="482" y="599"/>
      <point x="419" y="667"/>
      <point x="313" y="668" type="curve"/>
    </contour>
  </outline>
</glyph>
<glyph name="uni0422" format="2">
  <advance width="451"/>
  <unicode hex="0422"/>
  <outline>
    <contour>
      <point x="103" y="668" type="line"/>
      <point x="108" y="700" type="line"/>
      <point x="505" y="700" type="line"/>
      <point x="499" y="668" type="line"/>
      <point x="318" y="668" type="line"/>
      <point x="203" y="0" type="line"/>
      <point x="170" y="0" type="line"/>
      <point x="284" y="668" type="line"/>
    </contour>
  </outline>
</glyph>
<glyph name="uni0423" format="2">
  <advance width="490"/>
  <unicode hex="0423"/>
  <outline>
    <contour>
      <point x="585" y="700" type="line"/>
      <point x="145" y="0" type="line"/>
      <point x="108" y="0" type="line"/>
      <point x="245" y="220" type="line"/>
      <point x="93" y="700" type="line"/>
      <point x="129" y="700" type="line"/>
      <point x="274" y="230" type="line"/>
      <point x="256" y="232" type="line"/>
      <point x="548" y="700" type="line"/>
    </contour>
  </outline>
</glyph>
<glyph name="uni0428" format="2">
  <advance width="904"/>
  <unicode hex="0428"/>
  <outline>
    <contour>
      <point x="773" y="31" type="line"/>
      <point x="888" y="700" type="line"/>
      <point x="921" y="700" type="line"/>
      <point x="801" y="0" type="line"/>
      <point x="50" y="0" type="line"/>
      <point x="170" y="700" type="line"/>
      <point x="203" y="700" type="line"/>
      <point x="88" y="31" type="line"/>
      <point x="414" y="31" type="line"/>
      <point x="529" y="700" type="line"/>
      <point x="562" y="700" type="line"/>
      <point x="447" y="31" type="line"/>
    </contour>
  </outline>
</glyph>
<glyph name="uni0429" format="2">
  <advance width="948"/>
  <unicode hex="0429"/>
  <outline>
    <contour>
      <point x="773" y="31" type="line"/>
      <point x="888" y="700" type="line"/>
      <point x="921" y="700" type="line"/>
      <point x="806" y="31" type="line"/>
      <point x="889" y="31" type="line"/>
      <point x="864" y="-110" type="line"/>
      <point x="834" y="-110" type="line"/>
      <point x="854" y="0" type="line"/>
      <point x="50" y="0" type="line"/>
      <point x="170" y="700" type="line"/>
      <point x="203" y="700" type="line"/>
      <point x="88" y="31" type="line"/>
      <point x="414" y="31" type="line"/>
      <point x="529" y="700" type="line"/>
      <point x="562" y="700" type="line"/>
      <point x="447" y="31" type="line"/>
    </contour>
  </outline>
</glyph>
<glyph name="uni042A" format="2">
  <advance width="609"/>
  <unicode hex="042A"/>
  <outline>
    <contour>
      <point x="240" y="389" type="line"/>
      <point x="246" y="420" type="line"/>
      <point x="383" y="420" type="line" smooth="yes"/>
      <point x="510" y="420"/>
      <point x="601" y="333"/>
      <point x="581" y="209" type="curve" smooth="yes"/>
      <point x="561" y="82"/>
      <point x="446" y="0"/>
      <point x="315" y="0" type="curve" smooth="yes"/>
      <point x="174" y="0" type="line"/>
      <point x="179" y="31" type="line"/>
      <point x="317" y="31" type="line" smooth="yes"/>
      <point x="431" y="32"/>
      <point x="529" y="101"/>
      <point x="548" y="210" type="curve" smooth="yes"/>
      <point x="566" y="316"/>
      <point x="491" y="388"/>
      <point x="381" y="388" type="curve" smooth="yes"/>
    </contour>
    <contour>
      <point x="272" y="669" type="line"/>
      <point x="96" y="669" type="line"/>
      <point x="102" y="700" type="line"/>
      <point x="310" y="700" type="line"/>
      <point x="189" y="0" type="line"/>
      <point x="157" y="0" type="line"/>
    </contour>
  </outline>
</glyph>
<glyph name="uni042C" format="2">
  <advance width="499"/>
  <unicode hex="042C"/>
  <outline>
    <contour>
      <point x="166" y="700" type="line"/>
      <point x="200" y="700" type="line"/>
      <point x="79" y="0" type="line"/>
      <point x="47" y="0" type="line"/>
    </contour>
    <contour>
      <point x="130" y="389" type="line"/>
      <point x="136" y="420" type="line"/>
      <point x="273" y="420" type="line" smooth="yes"/>
      <point x="400" y="420"/>
      <point x="491" y="333"/>
      <point x="471" y="209" type="curve" smooth="yes"/>
      <point x="451" y="82"/>
      <point x="336" y="0"/>
      <point x="205" y="0" type="curve" smooth="yes"/>
      <point x="64" y="0" type="line"/>
      <point x="69" y="31" type="line"/>
      <point x="207" y="31" type="line" smooth="yes"/>
      <point x="321" y="32"/>
      <point x="419" y="101"/>
      <point x="438" y="210" type="curve" smooth="yes"/>
      <point x="456" y="316"/>
      <point x="381" y="388"/>
      <point x="271" y="388" type="curve" smooth="yes"/>
    </contour>
  </outline>
</glyph>
<glyph name="uni042E" format="2">
  <advance width="994"/>
  <unicode hex="042E"/>
  <outline>
    <contour>
      <point x="131" y="364" type="line"/>
      <point x="137" y="396" type="line"/>
      <point x="351" y="396" type="line"/>
      <point x="346" y="364" type="line"/>
    </contour>
    <contour>
      <point x="170" y="700" type="line"/>
      <point x="203" y="700" type="line"/>
      <point x="82" y="0" type="line"/>
      <point x="50" y="0" type="line"/>
    </contour>
    <contour>
      <point x="353" y="351" type="curve" smooth="yes"/>
      <point x="328" y="184"/>
      <point x="413" y="26"/>
      <point x="593" y="25" type="curve" smooth="yes"/>
      <point x="775" y="24"/>
      <point x="919" y="174"/>
      <point x="948" y="351" type="curve" smooth="yes"/>
      <point x="973" y="518"/>
      <point x="888" y="675"/>
      <point x="708" y="676" type="curve" smooth="yes"/>
      <point x="526" y="677"/>
      <point x="382" y="527"/>
    </contour>
    <contour>
      <point x="318" y="351" type="curve" smooth="yes"/>
      <point x="348" y="547"/>
      <point x="510" y="710"/>
      <point x="710" y="710" type="curve" smooth="yes"/>
      <point x="908" y="710"/>
      <point x="1010" y="537"/>
      <point x="983" y="351" type="curve" smooth="yes"/>
      <point x="953" y="155"/>
      <point x="791" y="-9"/>
      <point x="591" y="-9" type="curve" smooth="yes"/>
      <point x="393" y="-9"/>
      <point x="291" y="165"/>
    </contour>
  </outline>
</glyph>
<glyph name="uni042F" format="2">
  <advance width="480"/>
  <unicode hex="042F"/>
  <outline>
    <contour>
      <point x="317" y="325" type="line"/>
      <point x="41" y="0" type="line"/>
      <point x="-2" y="0" type="line"/>
      <point x="278" y="325" type="line"/>
    </contour>
    <contour>
      <point x="491" y="700" type="line"/>
      <point x="370" y="0" type="line"/>
      <point x="336" y="0" type="line"/>
      <point x="457" y="700" type="line"/>
    </contour>
    <contour>
      <point x="469" y="669" type="line"/>
      <point x="352" y="669" type="line" smooth="yes"/>
      <point x="239" y="668"/>
      <point x="144" y="611"/>
      <point x="125" y="502" type="curve" smooth="yes"/>
      <point x="107" y="395"/>
      <point x="183" y="335"/>
      <point x="292" y="334" type="curve"/>
      <point x="412" y="333" type="line"/>
      <point x="407" y="304" type="line"/>
      <point x="289" y="304" type="line"/>
      <point x="164" y="305"/>
      <point x="72" y="378"/>
      <point x="92" y="502" type="curve" smooth="yes"/>
      <point x="112" y="628"/>
      <point x="224" y="699"/>
      <point x="354" y="700" type="curve" smooth="yes"/>
      <point x="475" y="700" type="line"/>
    </contour>
  </outline>
</glyph>
<glyph name="uni0432" format="2">
  <advance width="410"/>
  <unicode hex="0432"/>
  <outline>
    <contour>
      <point x="103" y="234" type="line"/>
      <point x="230" y="234" type="line" smooth="yes"/>
      <point x="312" y="233"/>
      <point x="390" y="212"/>
      <point x="377" y="124" type="curve" smooth="yes"/>
      <point x="365" y="50"/>
      <point x="304" y="0"/>
      <point x="213" y="0" type="curve" smooth="yes"/>
      <point x="63" y="0" type="line"/>
      <point x="67" y="28" type="line"/>
      <point x="209" y="28" type="line" smooth="yes"/>
      <point x="284" y="28"/>
      <point x="337" y="69"/>
      <point x="347" y="128" type="curve" smooth="yes"/>
      <point x="357" y="201"/>
      <point x="288" y="216"/>
      <point x="230" y="217" type="curve" smooth="yes"/>
      <point x="100" y="217" type="line"/>
    </contour>
    <contour>
      <point x="101" y="226" type="line"/>
      <point x="104" y="245" type="line"/>
      <point x="223" y="245" type="line" smooth="yes"/>
      <point x="276" y="246"/>
      <point x="351" y="268"/>
      <point x="362" y="334" type="curve" smooth="yes"/>
      <point x="373" y="398"/>
      <point x="321" y="432"/>
      <point x="257" y="432" type="curve" smooth="yes"/>
      <point x="136" y="432" type="line"/>
      <point x="141" y="460" type="line"/>
      <point x="259" y="460" type="line" smooth="yes"/>
      <point x="338" y="460"/>
      <point x="407" y="419"/>
      <point x="393" y="334" type="curve" smooth="yes"/>
      <point x="380" y="256"/>
      <point x="302" y="228"/>
      <point x="222" y="226" type="curve" smooth="yes"/>
    </contour>
    <contour>
      <point x="124" y="460" type="line"/>
      <point x="156" y="460" type="line"/>
      <point x="76" y="0" type="line"/>
      <point x="45" y="0" type="line"/>
    </contour>
  </outline>
</glyph>
<glyph name="uni0434" format="2">
  <advance width="635"/>
  <unicode hex="0434"/>
  <outline>
    <contour>
      <point x="362" y="425" type="line"/>
      <point x="107" y="15" type="line"/>
      <point x="71" y="15" type="line"/>
      <point x="373" y="496" type="line"/>
      <point x="509" y="14" type="line"/>
      <point x="476" y="14" type="line"/>
    </contour>
    <contour>
      <point x="536" y="0" type="line"/>
      <point x="45" y="0" type="line"/>
      <point x="28" y="-90" type="line"/>
      <point x="-5" y="-90" type="line"/>
      <point x="17" y="30" type="line"/>
      <point x="571" y="30" type="line"/>
      <point x="549" y="-90" type="line"/>
      <point x="519" y="-90" type="line"/>
    </contour>
  </outline>
</glyph>
<glyph name="uni0435" format="2">
  <advance width="494"/>
  <unicode hex="0435"/>
  <outline>
    <contour>
      <point x="78" y="223" type="line"/>
      <point x="82" y="250" type="line"/>
      <point x="438" y="250" type="line"/>
      <point x="455" y="344"/>
      <point x="405" y="440"/>
      <point x="302" y="441" type="curve" smooth="yes"/>
      <point x="197" y="442"/>
      <point x="110" y="351"/>
      <point x="92" y="241" type="curve"/>
      <point x="90" y="232" type="line"/>
      <point x="78" y="125"/>
      <point x="122" y="21"/>
      <point x="231" y="20" type="curve" smooth="yes"/>
      <point x="321" y="19"/>
      <point x="376" y="72"/>
      <point x="419" y="123" type="curve"/>
      <point x="443" y="106" type="line"/>
      <point x="394" y="48"/>
      <point x="333" y="-11"/>
      <point x="226" y="-10" type="curve" smooth="yes"/>
      <point x="103" y="-9"/>
      <point x="44" y="110"/>
      <point x="59" y="231" type="curve" smooth="yes"/>
      <point x="63" y="255"/>
      <point x="68" y="277"/>
      <point x="77" y="299" type="curve" smooth="yes"/>
      <point x="113" y="393"/>
      <point x="199" y="470"/>
      <point x="304" y="470" type="curve" smooth="yes"/>
      <point x="421" y="469"/>
      <point x="486" y="364"/>
      <point x="472" y="248" type="curve" smooth="yes"/>
      <point x="471" y="240"/>
      <point x="468" y="231"/>
      <point x="466" y="223" type="curve"/>
    </contour>
  </outline>
</glyph>
<glyph name="uni0436" format="2">
  <advance width="505"/>
  <unicode hex="0436"/>
  <outline>
    <contour>
      <point x="492" y="459" type="line"/>
      <point x="533" y="459" type="line"/>
      <point x="313" y="265" type="line"/>
      <point x="472" y="0" type="line"/>
      <point x="435" y="0" type="line"/>
      <point x="279" y="272" type="line"/>
    </contour>
    <contour>
      <point x="320" y="460" type="line"/>
      <point x="240" y="0" type="line"/>
      <point x="211" y="0" type="line"/>
      <point x="290" y="460" type="line"/>
    </contour>
    <contour>
      <point x="115" y="460" type="line"/>
      <point x="265" y="269" type="line"/>
      <point x="19" y="0" type="line"/>
      <point x="-22" y="0" type="line"/>
      <point x="229" y="268" type="line"/>
      <point x="78" y="460" type="line"/>
    </contour>
  </outline>
</glyph>
<glyph name="uni0438" format="2">
  <advance width="480"/>
  <unicode hex="0438"/>
  <outline>
    <contour>
      <point x="448" y="438" type="line"/>
      <point x="43" y="-36" type="line"/>
      <point x="58" y="22" type="line"/>
      <point x="463" y="497" type="line"/>
    </contour>
    <contour>
      <point x="161" y="460" type="line"/>
      <point x="83" y="11" type="line"/>
      <point x="43" y="-36" type="line"/>
      <point x="129" y="460" type="line"/>
    </contour>
    <contour>
      <point x="463" y="497" type="line"/>
      <point x="377" y="0" type="line"/>
      <point x="345" y="0" type="line"/>
      <point x="423" y="449" type="line"/>
    </contour>
  </outline>
</glyph>
<glyph name="uni0439" format="2">
  <advance width="480"/>
  <unicode hex="0439"/>
  <outline>
    <contour>
      <point x="448" y="438" type="line"/>
      <point x="43" y="-36" type="line"/>
      <point x="58" y="22" type="line"/>
      <point x="463" y="497" type="line"/>
    </contour>
    <contour>
      <point x="161" y="460" type="line"/>
      <point x="83" y="11" type="line"/>
      <point x="43" y="-36" type="line"/>
      <point x="129" y="460" type="line"/>
    </contour>
    <contour>
      <point x="463" y="497" type="line"/>
      <point x="377" y="0" type="line"/>
      <point x="345" y="0" type="line"/>
      <point x="423" y="449" type="line"/>
    </contour>
    <contour>
      <point x="170" y="692" type="curve"/>
      <point x="197" y="692" type="line"/>
      <point x="194" y="634"/>
      <point x="227" y="579"/>
      <point x="304" y="579" type="curve" smooth="yes"/>
      <point x="384" y="579"/>
      <point x="432" y="634"/>
      <point x="449" y="691" type="curve"/>
      <point x="477" y="691" type="line"/>
      <point x="458" y="619"/>
      <point x="400" y="552"/>
      <point x="303" y="552" type="curve" smooth="yes"/>
      <point x="207" y="552"/>
      <point x="165" y="619"/>
    </contour>
  </outline>
</glyph>
<glyph name="uni043B" format="2">
  <advance width="493"/>
  <unicode hex="043B"/>
  <outline>
    <contour>
      <point x="469" y="460" type="line"/>
      <point x="390" y="0" type="line"/>
      <point x="358" y="0" type="line"/>
      <point x="432" y="430" type="line"/>
      <point x="158" y="430" type="line"/>
      <point x="112" y="160" type="line" smooth="yes"/>
      <point x="97" y="66"/>
      <point x="55" y="10"/>
      <point x="-18" y="0" type="curve"/>
      <point x="-13" y="29" type="line"/>
      <point x="38" y="40"/>
      <point x="69" y="87"/>
      <point x="80" y="160" type="curve"/>
      <point x="132" y="460" type="line"/>
    </contour>
  </outline>
</glyph>
<glyph name="uni043E" format="2">
  <advance width="529"/>
  <unicode hex="043E"/>
  <outline>
    <contour>
      <point x="52" y="230" type="curve" smooth="yes"/>
      <point x="72" y="361"/>
      <point x="185" y="470"/>
      <point x="319" y="470" type="curve" smooth="yes"/>
      <point x="452" y="470"/>
      <point x="527" y="356"/>
      <point x="509" y="230" type="curve" smooth="yes"/>
      <point x="489" y="99"/>
      <point x="375" y="-10"/>
      <point x="241" y="-10" type="curve" smooth="yes"/>
      <point x="108" y="-10"/>
      <point x="34" y="104"/>
    </contour>
    <contour>
      <point x="84" y="230" type="curve" smooth="yes"/>
      <point x="67" y="121"/>
      <point x="128" y="21"/>
      <point x="243" y="20" type="curve" smooth="yes"/>
      <point x="360" y="19"/>
      <point x="458" y="115"/>
      <point x="477" y="230" type="curve" smooth="yes"/>
      <point x="494" y="339"/>
      <point x="433" y="439"/>
      <point x="318" y="440" type="curve" smooth="yes"/>
      <point x="201" y="441"/>
      <point x="103" y="345"/>
    </contour>
  </outline>
</glyph>
<glyph name="uni043F" format="2">
  <advance width="461"/>
  <unicode hex="043F"/>
  <outline>
    <contour>
      <point x="442" y="460" type="line"/>
      <point x="362" y="0" type="line"/>
      <point x="331" y="0" type="line"/>
      <point x="405" y="430" type="line"/>
      <point x="150" y="430" type="line"/>
      <point x="76" y="0" type="line"/>
      <point x="45" y="0" type="line"/>
      <point x="124" y="460" type="line"/>
    </contour>
  </outline>
</glyph>
<glyph name="uni0442" format="2">
  <advance width="271"/>
  <unicode hex="0442"/>
  <outline>
    <contour>
      <point x="56" y="460" type="line"/>
      <point x="319" y="460" type="line"/>
      <point x="313" y="430" type="line"/>
      <point x="51" y="430" type="line"/>
    </contour>
    <contour>
      <point x="170" y="450" type="line"/>
      <point x="202" y="450" type="line"/>
      <point x="124" y="0" type="line"/>
      <point x="93" y="0" type="line"/>
    </contour>
  </outline>
</glyph>
<glyph name="uni0444" format="2">
  <advance width="568"/>
  <unicode hex="0444"/>
  <outline>
    <contour>
      <point x="337" y="560" type="line"/>
      <point x="369" y="560" type="line"/>
      <point x="255" y="-100" type="line"/>
      <point x="225" y="-100" type="line"/>
    </contour>
    <contour>
      <point x="46" y="230" type="curve" smooth="yes"/>
      <point x="68" y="367"/>
      <point x="187" y="470"/>
      <point x="336" y="470" type="curve" smooth="yes"/>
      <point x="482" y="470"/>
      <point x="568" y="363"/>
      <point x="547" y="230" type="curve" smooth="yes"/>
      <point x="525" y="93"/>
      <point x="406" y="-10"/>
      <point x="257" y="-10" type="curve" smooth="yes"/>
      <point x="111" y="-10"/>
      <point x="25" y="97"/>
    </contour>
    <contour>
      <point x="77" y="230" type="curve" smooth="yes"/>
      <point x="58" y="117"/>
      <point x="128" y="21"/>
      <point x="259" y="20" type="curve" smooth="yes"/>
      <point x="392" y="19"/>
      <point x="496" y="113"/>
      <point x="516" y="230" type="curve" smooth="yes"/>
      <point x="535" y="343"/>
      <point x="465" y="439"/>
      <point x="334" y="440" type="curve" smooth="yes"/>
      <point x="201" y="441"/>
      <point x="97" y="347"/>
    </contour>
  </outline>
</glyph>
<glyph name="uni0447" format="2">
  <advance width="422"/>
  <unicode hex="0447"/>
  <outline>
    <contour>
      <point x="220" y="140" type="line"/>
      <point x="224" y="170" type="line"/>
      <point x="344" y="170" type="line"/>
      <point x="339" y="140" type="line"/>
    </contour>
    <contour>
      <point x="371" y="460" type="line"/>
      <point x="403" y="460" type="line"/>
      <point x="323" y="0" type="line"/>
      <point x="293" y="0" type="line"/>
    </contour>
    <contour>
      <point x="132" y="460" type="line"/>
      <point x="108" y="328" type="line" smooth="yes"/>
      <point x="91" y="223"/>
      <point x="119" y="170"/>
      <point x="224" y="170" type="curve"/>
      <point x="220" y="140" type="line"/>
      <point x="91" y="140"/>
      <point x="58" y="206"/>
      <point x="77" y="328" type="curve" smooth="yes"/>
      <point x="100" y="460" type="line"/>
    </contour>
  </outline>
</glyph>
<glyph name="uni044B" format="2">
  <advance width="560"/>
  <unicode hex="044B"/>
  <outline>
    <contour>
      <point x="510" y="460" type="line"/>
      <point x="542" y="460" type="line"/>
      <point x="462" y="0" type="line"/>
      <point x="431" y="0" type="line"/>
    </contour>
    <contour>
      <point x="124" y="460" type="line"/>
      <point x="156" y="460" type="line"/>
      <point x="76" y="0" type="line"/>
      <point x="45" y="0" type="line"/>
    </contour>
    <contour>
      <point x="105" y="258" type="line"/>
      <point x="109" y="286" type="line"/>
      <point x="230" y="286" type="line" smooth="yes"/>
      <point x="320" y="286"/>
      <point x="385" y="235"/>
      <point x="371" y="142" type="curve" smooth="yes"/>
      <point x="357" y="48"/>
      <point x="274" y="0"/>
      <point x="182" y="0" type="curve" smooth="yes"/>
      <point x="61" y="0" type="line"/>
      <point x="65" y="28" type="line"/>
      <point x="186" y="28" type="line" smooth="yes"/>
      <point x="259" y="28"/>
      <point x="327" y="66"/>
      <point x="340" y="143" type="curve" smooth="yes"/>
      <point x="352" y="216"/>
      <point x="300" y="258"/>
      <point x="228" y="258" type="curve" smooth="yes"/>
    </contour>
  </outline>
</glyph>
<glyph name="uni044E" format="2">
  <advance width="729"/>
  <unicode hex="044E"/>
  <outline>
    <contour>
      <point x="103" y="226" type="line"/>
      <point x="108" y="256" type="line"/>
      <point x="274" y="256" type="line"/>
      <point x="268" y="226" type="line"/>
    </contour>
    <contour>
      <point x="124" y="460" type="line"/>
      <point x="156" y="460" type="line"/>
      <point x="76" y="0" type="line"/>
      <point x="45" y="0" type="line"/>
    </contour>
    <contour>
      <point x="246" y="230" type="curve" smooth="yes"/>
      <point x="266" y="361"/>
      <point x="380" y="470"/>
      <point x="514" y="470" type="curve" smooth="yes"/>
      <point x="647" y="470"/>
      <point x="721" y="356"/>
      <point x="703" y="230" type="curve" smooth="yes"/>
      <point x="683" y="99"/>
      <point x="569" y="-10"/>
      <point x="435" y="-10" type="curve" smooth="yes"/>
      <point x="302" y="-10"/>
      <point x="228" y="104"/>
    </contour>
    <contour>
      <point x="278" y="230" type="curve" smooth="yes"/>
      <point x="261" y="121"/>
      <point x="322" y="21"/>
      <point x="437" y="20" type="curve" smooth="yes"/>
      <point x="554" y="19"/>
      <point x="652" y="115"/>
      <point x="671" y="230" type="curve" smooth="yes"/>
      <point x="688" y="339"/>
      <point x="627" y="439"/>
      <point x="512" y="440" type="curve" smooth="yes"/>
      <point x="395" y="441"/>
      <point x="297" y="345"/>
    </contour>
  </outline>
</glyph>
<glyph name="uni044F" format="2">
  <advance width="420"/>
  <unicode hex="044F"/>
  <outline>
    <contour>
      <point x="60" y="0" type="line"/>
      <point x="22" y="0" type="line"/>
      <point x="208" y="206" type="line"/>
      <point x="244" y="206" type="line"/>
    </contour>
    <contour>
      <point x="346" y="0" type="line"/>
      <point x="314" y="0" type="line"/>
      <point x="394" y="460" type="line"/>
      <point x="425" y="460" type="line"/>
    </contour>
    <contour>
      <point x="364" y="212" type="line"/>
      <point x="359" y="184" type="line"/>
      <point x="242" y="184" type="line"/>
      <point x="153" y="185"/>
      <point x="86" y="228"/>
      <point x="100" y="322" type="curve" smooth="yes"/>
      <point x="114" y="416"/>
      <point x="195" y="458"/>
      <point x="286" y="460" type="curve" smooth="yes"/>
      <point x="406" y="460" type="line"/>
      <point x="402" y="432" type="line"/>
      <point x="284" y="432" type="line" smooth="yes"/>
      <point x="209" y="431"/>
      <point x="143" y="397"/>
      <point x="131" y="322" type="curve" smooth="yes"/>
      <point x="119" y="247"/>
      <point x="172" y="214"/>
      <point x="244" y="212" type="curve" smooth="yes"/>
    </contour>
  </outline>
</glyph>
<glyph name="uni045C" format="2">
  <advance width="426"/>
  <unicode hex="045C"/>
  <outline>
    <contour>
      <point x="126" y="460" type="line"/>
      <point x="158" y="460" type="line"/>
      <point x="78" y="0" type="line"/>
      <point x="47" y="0" type="line"/>
    </contour>
    <contour>
      <point x="366" y="459" type="line"/>
      <point x="409" y="459" type="line"/>
      <point x="152" y="269" type="line"/>
      <point x="347" y="0" type="line"/>
      <point x="309" y="0" type="line"/>
      <point x="114" y="271" type="line"/>
    </contour>
    <contour>
      <point x="474" y="700" type="line"/>
      <point x="278" y="548" type="line"/>
      <point x="262" y="561" type="line"/>
      <point x="448" y="719" type="line"/>
    </contour>
  </outline>
</glyph>
<glyph name="uni045E" format="2">
  <advance width="426"/>
  <unicode hex="045E"/>
  <outline>
    <contour>
      <point x="463" y="460" type="line"/>
      <point x="55" y="-220" type="line"/>
      <point x="19" y="-219" type="line"/>
      <point x="173" y="35" type="line"/>
      <point x="58" y="460" type="line"/>
      <point x="95" y="460" type="line"/>
      <point x="201" y="44" type="line"/>
      <point x="183" y="46" type="line"/>
      <point x="427" y="460" type="line"/>
    </contour>
    <contour>
      <point x="147" y="670" type="curve"/>
      <point x="175" y="670" type="line"/>
      <point x="170" y="613"/>
      <point x="203" y="557"/>
      <point x="280" y="557" type="curve" smooth="yes"/>
      <point x="360" y="557"/>
      <point x="408" y="613"/>
      <point x="426" y="669" type="curve"/>
      <point x="455" y="669" type="line"/>
      <point x="436" y="597"/>
      <point x="376" y="530"/>
      <point x="279" y="530" type="curve" smooth="yes"/>
      <point x="183" y="530"/>
      <point x="141" y="597"/>
    </contour>
  </outline>
</glyph>
<glyph name="uni2010" format="2">
  <advance width="203"/>
  <unicode hex="2010"/>
  <outline>
    <contour>
      <point x="20" y="245" type="line"/>
      <point x="24" y="275" type="line"/>
      <point x="219" y="275" type="line"/>
      <point x="214" y="245" type="line"/>
    </contour>
  </outline>
</glyph>
<glyph name="quoteleft" format="2">
  <advance width="232"/>
  <unicode hex="2018"/>
  <outline>
    <contour>
      <point x="151" y="471" type="line"/>
      <point x="112" y="471" type="line"/>
      <point x="247" y="699" type="line"/>
      <point x="271" y="699" type="line"/>
    </contour>
  </outline>
</glyph>
<glyph name="quotesinglbase" format="2">
  <advance width="245"/>
  <unicode hex="201A"/>
  <outline>
    <contour>
      <point x="125" y="79" type="line"/>
      <point x="163" y="79" type="line"/>
      <point x="28" y="-149" type="line"/>
      <point x="5" y="-149" type="line"/>
    </contour>
  </outline>
</glyph>
<glyph name="quotedblright" format="2">
  <advance width="399"/>
  <unicode hex="201D"/>
  <outline>
    <contour>
      <point x="228" y="699" type="line"/>
      <point x="266" y="699" type="line"/>
      <point x="131" y="471" type="line"/>
      <point x="107" y="471" type="line"/>
    </contour>
    <contour>
      <point x="382" y="699" type="line"/>
      <point x="420" y="699" type="line"/>
      <point x="285" y="471" type="line"/>
      <point x="261" y="471" type="line"/>
    </contour>
  </outline>
</glyph>
<glyph name="ellipsis" format="2">
  <advance width="813"/>
  <unicode hex="2026"/>
  <outline>
    <contour>
      <point x="84" y="13" type="curve" smooth="yes"/>
      <point x="85" y="25"/>
      <point x="100" y="37"/>
      <point x="112" y="37" type="curve" smooth="yes"/>
      <point x="125" y="37"/>
      <point x="133" y="26"/>
      <point x="132" y="13" type="curve" smooth="yes"/>
      <point x="131" y="1"/>
      <point x="116" y="-11"/>
      <point x="104" y="-11" type="curve" smooth="yes"/>
      <point x="91" y="-11"/>
      <point x="83" y="0"/>
    </contour>
    <contour>
      <point x="358" y="13" type="curve" smooth="yes"/>
      <point x="359" y="25"/>
      <point x="374" y="37"/>
      <point x="386" y="37" type="curve" smooth="yes"/>
      <point x="399" y="37"/>
      <point x="407" y="26"/>
      <point x="406" y="13" type="curve" smooth="yes"/>
      <point x="405" y="1"/>
      <point x="390" y="-11"/>
      <point x="378" y="-11" type="curve" smooth="yes"/>
      <point x="365" y="-11"/>
      <point x="357" y="0"/>
    </contour>
    <contour>
      <point x="632" y="13" type="curve" smooth="yes"/>
      <point x="633" y="25"/>
      <point x="648" y="37"/>
      <point x="660" y="37" type="curve" smooth="yes"/>
      <point x="673" y="37"/>
      <point x="681" y="26"/>
      <point x="680" y="13" type="curve" smooth="yes"/>
      <point x="679" y="1"/>
      <point x="665" y="-11"/>
      <point x="653" y="-11" type="curve" smooth="yes"/>
      <point x="640" y="-11"/>
      <point x="631" y="0"/>
    </contour>
  </outline>
</glyph>
<glyph name="perthousand" format="2">
  <advance width="1056"/>
  <unicode hex="2030"/>
  <outline>
    <contour>
      <point x="727" y="144" type="curve" smooth="yes"/>
      <point x="740" y="226"/>
      <point x="810" y="296"/>
      <point x="899" y="296" type="curve" smooth="yes"/>
      <point x="988" y="296"/>
      <point x="1033" y="223"/>
      <point x="1021" y="143" type="curve" smooth="yes"/>
      <point x="1008" y="61"/>
      <point x="938" y="-10"/>
      <point x="849" y="-10" type="curve" smooth="yes"/>
      <point x="760" y="-10"/>
      <point x="715" y="64"/>
    </contour>
    <contour>
      <point x="755" y="143" type="curve" smooth="yes"/>
      <point x="745" y="80"/>
      <point x="778" y="18"/>
      <point x="851" y="17" type="curve" smooth="yes"/>
      <point x="924" y="16"/>
      <point x="982" y="77"/>
      <point x="993" y="143" type="curve" smooth="yes"/>
      <point x="1003" y="206"/>
      <point x="969" y="268"/>
      <point x="897" y="269" type="curve" smooth="yes"/>
      <point x="824" y="270"/>
      <point x="766" y="209"/>
    </contour>
    <contour>
      <point x="101" y="557" type="curve" smooth="yes"/>
      <point x="114" y="639"/>
      <point x="184" y="710"/>
      <point x="273" y="710" type="curve" smooth="yes"/>
      <point x="362" y="710"/>
      <point x="408" y="636"/>
      <point x="396" y="556" type="curve" smooth="yes"/>
      <point x="383" y="474"/>
      <point x="313" y="404"/>
      <point x="224" y="404" type="curve" smooth="yes"/>
      <point x="135" y="404"/>
      <point x="89" y="477"/>
    </contour>
    <contour>
      <point x="130" y="557" type="curve" smooth="yes"/>
      <point x="120" y="494"/>
      <point x="153" y="431"/>
      <point x="226" y="430" type="curve" smooth="yes"/>
      <point x="299" y="429"/>
      <point x="356" y="491"/>
      <point x="367" y="557" type="curve" smooth="yes"/>
      <point x="377" y="620"/>
      <point x="343" y="682"/>
      <point x="271" y="683" type="curve" smooth="yes"/>
      <point x="198" y="684"/>
      <point x="141" y="623"/>
    </contour>
    <contour>
      <point x="365" y="144" type="curve" smooth="yes"/>
      <point x="378" y="226"/>
      <point x="448" y="296"/>
      <point x="537" y="296" type="curve" smooth="yes"/>
      <point x="626" y="296"/>
      <point x="671" y="223"/>
      <point x="659" y="143" type="curve" smooth="yes"/>
      <point x="646" y="61"/>
      <point x="576" y="-10"/>
      <point x="487" y="-10" type="curve" smooth="yes"/>
      <point x="398" y="-10"/>
      <point x="353" y="64"/>
    </contour>
    <contour>
      <point x="393" y="143" type="curve" smooth="yes"/>
      <point x="383" y="80"/>
      <point x="416" y="18"/>
      <point x="489" y="17" type="curve" smooth="yes"/>
      <point x="562" y="16"/>
      <point x="620" y="77"/>
      <point x="631" y="143" type="curve" smooth="yes"/>
      <point x="641" y="206"/>
      <point x="607" y="268"/>
      <point x="535" y="269" type="curve" smooth="yes"/>
      <point x="462" y="270"/>
      <point x="404" y="209"/>
    </contour>
    <contour>
      <point x="645" y="699" type="line"/>
      <point x="677" y="699" type="line"/>
      <point x="115" y="0" type="line"/>
      <point x="84" y="0" type="line"/>
    </contour>
  </outline>
</glyph>
<glyph name="uni2031" format="2">
  <advance width="1418"/>
  <unicode hex="2031"/>
  <outline>
    <contour>
      <point x="1089" y="144" type="curve" smooth="yes"/>
      <point x="1102" y="226"/>
      <point x="1172" y="296"/>
      <point x="1261" y="296" type="curve" smooth="yes"/>
      <point x="1350" y="296"/>
      <point x="1395" y="223"/>
      <point x="1383" y="143" type="curve" smooth="yes"/>
      <point x="1370" y="61"/>
      <point x="1300" y="-10"/>
      <point x="1211" y="-10" type="curve" smooth="yes"/>
      <point x="1122" y="-10"/>
      <point x="1077" y="64"/>
    </contour>
    <contour>
      <point x="1117" y="143" type="curve" smooth="yes"/>
      <point x="1107" y="80"/>
      <point x="1140" y="18"/>
      <point x="1213" y="17" type="curve" smooth="yes"/>
      <point x="1286" y="16"/>
      <point x="1344" y="77"/>
      <point x="1355" y="143" type="curve" smooth="yes"/>
      <point x="1365" y="206"/>
      <point x="1330" y="268"/>
      <point x="1258" y="269" type="curve" smooth="yes"/>
      <point x="1185" y="270"/>
      <point x="1128" y="209"/>
    </contour>
    <contour>
      <point x="727" y="144" type="curve" smooth="yes"/>
      <point x="740" y="226"/>
      <point x="810" y="296"/>
      <point x="899" y="296" type="curve" smooth="yes"/>
      <point x="988" y="296"/>
      <point x="1033" y="223"/>
      <point x="1021" y="143" type="curve" smooth="yes"/>
      <point x="1008" y="61"/>
      <point x="938" y="-10"/>
      <point x="849" y="-10" type="curve" smooth="yes"/>
      <point x="760" y="-10"/>
      <point x="715" y="64"/>
    </contour>
    <contour>
      <point x="755" y="143" type="curve" smooth="yes"/>
      <point x="745" y="80"/>
      <point x="778" y="18"/>
      <point x="851" y="17" type="curve" smooth="yes"/>
      <point x="924" y="16"/>
      <point x="982" y="77"/>
      <point x="993" y="143" type="curve" smooth="yes"/>
      <point x="1003" y="206"/>
      <point x="969" y="268"/>
      <point x="897" y="269" type="curve" smooth="yes"/>
      <point x="824" y="270"/>
      <point x="766" y="209"/>
    </contour>
    <contour>
      <point x="101" y="557" type="curve" smooth="yes"/>
      <point x="114" y="639"/>
      <point x="184" y="710"/>
      <point x="273" y="710" type="curve" smooth="yes"/>
      <point x="362" y="710"/>
      <point x="408" y="636"/>
      <point x="396" y="556" type="curve" smooth="yes"/>
      <point x="383" y="474"/>
      <point x="313" y="404"/>
      <point x="224" y="404" type="curve" smooth="yes"/>
      <point x="135" y="404"/>
      <point x="89" y="477"/>
    </contour>
    <contour>
      <point x="130" y="557" type="curve" smooth="yes"/>
      <point x="120" y="494"/>
      <point x="153" y="431"/>
      <point x="226" y="430" type="curve" smooth="yes"/>
      <point x="299" y="429"/>
      <point x="356" y="491"/>
      <point x="367" y="557" type="curve" smooth="yes"/>
      <point x="377" y="620"/>
      <point x="343" y="682"/>
      <point x="271" y="683" type="curve" smooth="yes"/>
      <point x="198" y="684"/>
      <point x="141" y="623"/>
    </contour>
    <contour>
      <point x="365" y="144" type="curve" smooth="yes"/>
      <point x="378" y="226"/>
      <point x="448" y="296"/>
      <point x="537" y="296" type="curve" smooth="yes"/>
      <point x="626" y="296"/>
      <point x="671" y="223"/>
      <point x="659" y="143" type="curve" smooth="yes"/>
      <point x="646" y="61"/>
      <point x="576" y="-10"/>
      <point x="487" y="-10" type="curve" smooth="yes"/>
      <point x="398" y="-10"/>
      <point x="353" y="64"/>
    </contour>
    <contour>
      <point x="393" y="143" type="curve" smooth="yes"/>
      <point x="383" y="80"/>
      <point x="416" y="18"/>
      <point x="489" y="17" type="curve" smooth="yes"/>
      <point x="562" y="16"/>
      <point x="620" y="77"/>
      <point x="631" y="143" type="curve" smooth="yes"/>
      <point x="641" y="206"/>
      <point x="607" y="268"/>
      <point x="535" y="269" type="curve" smooth="yes"/>
      <point x="462" y="270"/>
      <point x="404" y="209"/>
    </contour>
    <contour>
      <point x="645" y="699" type="line"/>
      <point x="677" y="699" type="line"/>
      <point x="115" y="0" type="line"/>
      <point x="84" y="0" type="line"/>
    </contour>
  </outline>
</glyph>
<glyph name="guilsinglright" format="2">
  <advance width="339"/>
  <unicode hex="203A"/>
  <outline>
    <contour>
      <point x="284" y="254" type="line"/>
      <point x="138" y="472" type="line"/>
      <point x="160" y="490" type="line"/>
      <point x="318" y="253" type="line"/>
      <point x="81" y="21" type="line"/>
      <point x="64" y="40" type="line"/>
    </contour>
  </outline>
</glyph>
<glyph name="uni203D" format="2">
  <advance width="540"/>
  <unicode hex="203D"/>
  <outline>
    <contour>
      <point x="489" y="514" type="curve" smooth="yes"/>
      <point x="505" y="605"/>
      <point x="451" y="680"/>
      <point x="348" y="680" type="curve" smooth="yes"/>
      <point x="266" y="680"/>
      <point x="207" y="634"/>
      <point x="159" y="577" type="curve"/>
      <point x="135" y="594" type="line"/>
      <point x="190" y="659"/>
      <point x="255" y="711"/>
      <point x="353" y="710" type="curve" smooth="yes"/>
      <point x="471" y="709"/>
      <point x="537" y="620"/>
      <point x="520" y="514" type="curve" smooth="yes"/>
      <point x="501" y="405"/>
      <point x="397" y="330"/>
      <point x="285" y="323" type="curve"/>
      <point x="268" y="346" type="line"/>
      <point x="376" y="352"/>
      <point x="470" y="418"/>
    </contour>
    <contour>
      <point x="287" y="510" type="line"/>
      <point x="326" y="510" type="line"/>
      <point x="259" y="170" type="line"/>
      <point x="236" y="170" type="line"/>
    </contour>
    <contour>
      <point x="197" y="13" type="curve" smooth="yes"/>
      <point x="198" y="25"/>
      <point x="213" y="37"/>
      <point x="225" y="37" type="curve" smooth="yes"/>
      <point x="238" y="37"/>
      <point x="246" y="26"/>
      <point x="245" y="13" type="curve" smooth="yes"/>
      <point x="244" y="1"/>
      <point x="229" y="-11"/>
      <point x="217" y="-11" type="curve" smooth="yes"/>
      <point x="204" y="-11"/>
      <point x="196" y="0"/>
    </contour>
  </outline>
</glyph>
<glyph name="uni2076" format="2">
  <advance width="325"/>
  <unicode hex="2076"/>
  <outline>
    <contour>
      <point x="99" y="412" type="curve" smooth="yes"/>
      <point x="89" y="349"/>
      <point x="121" y="292"/>
      <point x="189" y="291" type="curve" smooth="yes"/>
      <point x="257" y="290"/>
      <point x="314" y="346"/>
      <point x="324" y="412" type="curve" smooth="yes"/>
      <point x="333" y="471"/>
      <point x="298" y="526"/>
      <point x="237" y="528" type="curve" smooth="yes"/>
      <point x="166" y="530"/>
      <point x="110" y="473"/>
    </contour>
    <contour>
      <point x="293" y="697" type="line"/>
      <point x="318" y="696" type="line"/>
      <point x="146" y="502" type="line"/>
      <point x="145" y="503" type="line"/>
      <point x="171" y="527"/>
      <point x="204" y="545"/>
      <point x="243" y="544" type="curve" smooth="yes"/>
      <point x="312" y="543"/>
      <point x="351" y="477"/>
      <point x="342" y="411" type="curve" smooth="yes"/>
      <point x="331" y="334"/>
      <point x="268" y="271"/>
      <point x="189" y="272" type="curve" smooth="yes"/>
      <point x="110" y="273"/>
      <point x="69" y="338"/>
      <point x="80" y="412" type="curve" smooth="yes"/>
      <point x="86" y="446"/>
      <point x="106" y="480"/>
      <point x="127" y="504" type="curve"/>
    </contour>
  </outline>
</glyph>
<glyph name="uni2079" format="2">
  <advance width="325"/>
  <unicode hex="2079"/>
  <outline>
    <contour>
      <point x="346" y="568" type="curve" smooth="yes"/>
      <point x="356" y="631"/>
      <point x="323" y="688"/>
      <point x="255" y="689" type="curve" smooth="yes"/>
      <point x="187" y="690"/>
      <point x="131" y="634"/>
      <point x="121" y="568" type="curve" smooth="yes"/>
      <point x="112" y="509"/>
      <point x="147" y="454"/>
      <point x="208" y="452" type="curve" smooth="yes"/>
      <point x="279" y="450"/>
      <point x="335" y="507"/>
    </contour>
    <contour>
      <point x="152" y="283" type="line"/>
      <point x="127" y="284" type="line"/>
      <point x="298" y="478" type="line"/>
      <point x="300" y="477" type="line"/>
      <point x="274" y="453"/>
      <point x="241" y="435"/>
      <point x="202" y="436" type="curve" smooth="yes"/>
      <point x="133" y="437"/>
      <point x="93" y="503"/>
      <point x="102" y="569" type="curve" smooth="yes"/>
      <point x="113" y="646"/>
      <point x="177" y="709"/>
      <point x="256" y="708" type="curve" smooth="yes"/>
      <point x="335" y="707"/>
      <point x="376" y="642"/>
      <point x="365" y="568" type="curve" smooth="yes"/>
      <point x="359" y="534"/>
      <point x="339" y="500"/>
      <point x="318" y="476" type="curve"/>
    </contour>
  </outline>
</glyph>
<glyph name="uni2085" format="2">
  <advance width="334"/>
  <unicode hex="2085"/>
  <outline>
    <contour>
      <point x="292" y="136" type="curve" smooth="yes"/>
      <point x="280" y="51"/>
      <point x="212" y="-8"/>
      <point x="133" y="-8" type="curve" smooth="yes"/>
      <point x="70" y="-8"/>
      <point x="38" y="28"/>
      <point x="19" y="80" type="curve"/>
      <point x="36" y="91" type="line"/>
      <point x="52" y="45"/>
      <point x="80" y="11"/>
      <point x="134" y="11" type="curve" smooth="yes"/>
      <point x="204" y="11"/>
      <point x="261" y="64"/>
      <point x="272" y="136" type="curve" smooth="yes"/>
      <point x="281" y="196"/>
      <point x="249" y="249"/>
      <point x="188" y="251" type="curve" smooth="yes"/>
      <point x="139" y="253"/>
      <point x="100" y="227"/>
      <point x="63" y="195" type="curve"/>
      <point x="82" y="220" type="line"/>
      <point x="108" y="248"/>
      <point x="151" y="270"/>
      <point x="196" y="269" type="curve" smooth="yes"/>
      <point x="266" y="268"/>
      <point x="302" y="205"/>
    </contour>
    <contour>
      <point x="167" y="400" type="line"/>
      <point x="93" y="224" type="line"/>
      <point x="61" y="193" type="line"/>
      <point x="155" y="418" type="line"/>
      <point x="347" y="418" type="line"/>
      <point x="344" y="400" type="line"/>
    </contour>
  </outline>
</glyph>
<glyph name="uni2088" format="2">
  <advance width="298"/>
  <unicode hex="2088"/>
  <outline>
    <contour>
      <point x="72" y="324" type="curve" smooth="yes"/>
      <point x="81" y="378"/>
      <point x="135" y="426"/>
      <point x="194" y="426" type="curve" smooth="yes"/>
      <point x="253" y="426"/>
      <point x="291" y="376"/>
      <point x="283" y="323" type="curve" smooth="yes"/>
      <point x="275" y="266"/>
      <point x="218" y="218"/>
      <point x="161" y="219" type="curve" smooth="yes"/>
      <point x="105" y="219"/>
      <point x="64" y="268"/>
    </contour>
    <contour>
      <point x="91" y="322" type="curve" smooth="yes"/>
      <point x="84" y="276"/>
      <point x="118" y="233"/>
      <point x="161" y="232" type="curve" smooth="yes"/>
      <point x="204" y="231"/>
      <point x="256" y="274"/>
      <point x="263" y="321" type="curve" smooth="yes"/>
      <point x="270" y="366"/>
      <point x="242" y="407"/>
      <point x="193" y="408" type="curve" smooth="yes"/>
      <point x="144" y="409"/>
      <point x="98" y="368"/>
    </contour>
    <contour>
      <point x="24" y="112" type="curve" smooth="yes"/>
      <point x="34" y="176"/>
      <point x="97" y="226"/>
      <point x="160" y="226" type="curve" smooth="yes"/>
      <point x="223" y="226"/>
      <point x="268" y="174"/>
      <point x="259" y="111" type="curve" smooth="yes"/>
      <point x="250" y="47"/>
      <point x="192" y="-7"/>
      <point x="122" y="-6" type="curve" smooth="yes"/>
      <point x="52" y="-5"/>
      <point x="14" y="50"/>
    </contour>
    <contour>
      <point x="43" y="114" type="curve" smooth="yes"/>
      <point x="34" y="60"/>
      <point x="65" y="13"/>
      <point x="123" y="12" type="curve" smooth="yes"/>
      <point x="182" y="11"/>
      <point x="233" y="57"/>
      <point x="241" y="114" type="curve" smooth="yes"/>
      <point x="248" y="166"/>
      <point x="212" y="212"/>
      <point x="160" y="213" type="curve" smooth="yes"/>
      <point x="107" y="214"/>
      <point x="52" y="168"/>
    </contour>
  </outline>
</glyph>
<glyph name="uni2152" format="2">
  <advance width="1048"/>
  <unicode hex="2152"/>
  <outline>
    <contour>
      <point x="679" y="699" type="line"/>
      <point x="707" y="699" type="line"/>
      <point x="47" y="0" type="line"/>
      <point x="19" y="0" type="line"/>
    </contour>
    <contour>
      <point x="107" y="650" type="line"/>
      <point x="110" y="671" type="line"/>
      <point x="232" y="698" type="line"/>
      <point x="158" y="274" type="line"/>
      <point x="138" y="274" type="line"/>
      <point x="206" y="673" type="line"/>
    </contour>
    <contour>
      <point x="474" y="377" type="line"/>
      <point x="477" y="398" type="line"/>
      <point x="598" y="425" type="line"/>
      <point x="525" y="2" type="line"/>
      <point x="505" y="2" type="line"/>
      <point x="574" y="400" type="line"/>
    </contour>
    <contour>
      <point x="748" y="210" type="curve" smooth="yes"/>
      <point x="738" y="129"/>
      <point x="744" y="14"/>
      <point x="829" y="13" type="curve" smooth="yes"/>
      <point x="913" y="12"/>
      <point x="966" y="119"/>
      <point x="979" y="210" type="curve" smooth="yes"/>
      <point x="989" y="291"/>
      <point x="984" y="406"/>
      <point x="899" y="407" type="curve" smooth="yes"/>
      <point x="815" y="408"/>
      <point x="761" y="301"/>
    </contour>
    <contour>
      <point x="728" y="210" type="curve" smooth="yes"/>
      <point x="742" y="313"/>
      <point x="803" y="426"/>
      <point x="899" y="426" type="curve" smooth="yes"/>
      <point x="996" y="425"/>
      <point x="1010" y="304"/>
      <point x="999" y="210" type="curve" smooth="yes"/>
      <point x="985" y="107"/>
      <point x="924" y="-6"/>
      <point x="828" y="-6" type="curve" smooth="yes"/>
      <point x="731" y="-5"/>
      <point x="717" y="116"/>
    </contour>
  </outline>
</glyph>
<glyph name="onethird" format="2">
  <advance width="732"/>
  <unicode hex="2153"/>
  <outline>
    <contour>
      <point x="679" y="699" type="line"/>
      <point x="707" y="699" type="line"/>
      <point x="47" y="0" type="line"/>
      <point x="19" y="0" type="line"/>
    </contour>
    <contour>
      <point x="107" y="650" type="line"/>
      <point x="110" y="671" type="line"/>
      <point x="232" y="698" type="line"/>
      <point x="158" y="274" type="line"/>
      <point x="138" y="274" type="line"/>
      <point x="206" y="673" type="line"/>
    </contour>
    <contour>
      <point x="570" y="215" type="curve"/>
      <point x="573" y="228" type="line"/>
      <point x="628" y="233"/>
      <point x="687" y="261"/>
      <point x="698" y="318" type="curve" smooth="yes"/>
      <point x="706" y="363"/>
      <point x="678" y="406"/>
      <point x="625" y="407" type="curve" smooth="yes"/>
      <point x="568" y="408"/>
      <point x="529" y="366"/>
      <point x="515" y="317" type="curve"/>
      <point x="496" y="317" type="line"/>
      <point x="511" y="377"/>
      <point x="557" y="427"/>
      <point x="626" y="426" type="curve" smooth="yes"/>
      <point x="692" y="425"/>
      <point x="728" y="373"/>
      <point x="718" y="318" type="curve" smooth="yes"/>
      <point x="706" y="252"/>
      <point x="637" y="219"/>
    </contour>
    <contour>
      <point x="551" y="-6" type="curve" smooth="yes"/>
      <point x="474" y="-6"/>
      <point x="439" y="47"/>
      <point x="444" y="111" type="curve"/>
      <point x="464" y="111" type="line"/>
      <point x="461" y="56"/>
      <point x="486" y="14"/>
      <point x="552" y="13" type="curve" smooth="yes"/>
      <point x="612" y="12"/>
      <point x="665" y="54"/>
      <point x="674" y="109" type="curve" smooth="yes"/>
      <point x="684" y="175"/>
      <point x="623" y="204"/>
      <point x="569" y="209" type="curve"/>
      <point x="572" y="223" type="line"/>
      <point x="638" y="218"/>
      <point x="705" y="183"/>
      <point x="693" y="106" type="curve" smooth="yes"/>
      <point x="683" y="41"/>
      <point x="621" y="-6"/>
    </contour>
  </outline>
</glyph>
<glyph name="uni2155" format="2">
  <advance width="722"/>
  <unicode hex="2155"/>
  <outline>
    <contour>
      <point x="679" y="699" type="line"/>
      <point x="707" y="699" type="line"/>
      <point x="47" y="0" type="line"/>
      <point x="19" y="0" type="line"/>
    </contour>
    <contour>
      <point x="107" y="650" type="line"/>
      <point x="110" y="671" type="line"/>
      <point x="232" y="698" type="line"/>
      <point x="158" y="274" type="line"/>
      <point x="138" y="274" type="line"/>
      <point x="206" y="673" type="line"/>
    </contour>
    <contour>
      <point x="669" y="136" type="curve" smooth="yes"/>
      <point x="657" y="51"/>
      <point x="589" y="-8"/>
      <point x="510" y="-8" type="curve" smooth="yes"/>
      <point x="447" y="-8"/>
      <point x="414" y="28"/>
      <point x="395" y="80" type="curve"/>
      <point x="413" y="91" type="line"/>
      <point x="429" y="45"/>
      <point x="457" y="11"/>
      <point x="511" y="11" type="curve" smooth="yes"/>
      <point x="581" y="11"/>
      <point x="638" y="64"/>
      <point x="649" y="136" type="curve" smooth="yes"/>
      <point x="658" y="196"/>
      <point x="626" y="249"/>
      <point x="565" y="251" type="curve" smooth="yes"/>
      <point x="516" y="253"/>
      <point x="476" y="227"/>
      <point x="439" y="195" type="curve"/>
      <point x="459" y="220" type="line"/>
      <point x="485" y="248"/>
      <point x="527" y="270"/>
      <point x="572" y="269" type="curve" smooth="yes"/>
      <point x="642" y="268"/>
      <point x="679" y="205"/>
    </contour>
    <contour>
      <point x="544" y="400" type="line"/>
      <point x="470" y="224" type="line"/>
      <point x="437" y="193" type="line"/>
      <point x="531" y="418" type="line"/>
      <point x="724" y="418" type="line"/>
      <point x="721" y="400" type="line"/>
    </contour>
  </outline>
</glyph>
<glyph name="uni2156" format="2">
  <advance width="845"/>
  <unicode hex="2156"/>
  <outline>
    <contour>
      <point x="802" y="699" type="line"/>
      <point x="830" y="699" type="line"/>
      <point x="170" y="0" type="line"/>
      <point x="142" y="0" type="line"/>
    </contour>
    <contour>
      <point x="52" y="283" type="line"/>
      <point x="274" y="486" type="line" smooth="yes"/>
      <point x="305" y="515"/>
      <point x="338" y="548"/>
      <point x="345" y="592" type="curve" smooth="yes"/>
      <point x="353" y="637"/>
      <point x="330" y="689"/>
      <point x="268" y="690" type="curve" smooth="yes"/>
      <point x="197" y="692"/>
      <point x="152" y="627"/>
      <point x="137" y="559" type="curve"/>
      <point x="118" y="559" type="line"/>
      <point x="134" y="638"/>
      <point x="186" y="709"/>
      <point x="269" y="708" type="curve" smooth="yes"/>
      <point x="344" y="707"/>
      <point x="373" y="645"/>
      <point x="364" y="590" type="curve" smooth="yes"/>
      <point x="356" y="543"/>
      <point x="323" y="506"/>
      <point x="289" y="475" type="curve" smooth="yes"/>
      <point x="98" y="301" type="line"/>
      <point x="327" y="301" type="line"/>
      <point x="323" y="282" type="line"/>
    </contour>
    <contour>
      <point x="792" y="136" type="curve" smooth="yes"/>
      <point x="780" y="51"/>
      <point x="712" y="-8"/>
      <point x="633" y="-8" type="curve" smooth="yes"/>
      <point x="570" y="-8"/>
      <point x="537" y="28"/>
      <point x="518" y="80" type="curve"/>
      <point x="536" y="91" type="line"/>
      <point x="552" y="45"/>
      <point x="580" y="11"/>
      <point x="634" y="11" type="curve" smooth="yes"/>
      <point x="704" y="11"/>
      <point x="761" y="64"/>
      <point x="772" y="136" type="curve" smooth="yes"/>
      <point x="781" y="196"/>
      <point x="749" y="249"/>
      <point x="688" y="251" type="curve" smooth="yes"/>
      <point x="639" y="253"/>
      <point x="600" y="227"/>
      <point x="563" y="195" type="curve"/>
      <point x="582" y="220" type="line"/>
      <point x="608" y="248"/>
      <point x="651" y="270"/>
      <point x="696" y="269" type="curve" smooth="yes"/>
      <point x="766" y="268"/>
      <point x="802" y="205"/>
    </contour>
    <contour>
      <point x="667" y="400" type="line"/>
      <point x="593" y="224" type="line"/>
      <point x="560" y="193" type="line"/>
      <point x="654" y="418" type="line"/>
      <point x="847" y="418" type="line"/>
      <point x="844" y="400" type="line"/>
    </contour>
  </outline>
</glyph>
